{"glyphs":{"0":{"ha":829,"x_min":63,"x_max":765,"o":"m 429 1042 q 593 997 528 1042 q 697 881 658 953 q 750 719 735 810 q 765 539 765 629 q 747 336 765 435 q 685 161 728 238 q 576 38 643 85 q 411 -8 508 -8 q 269 24 333 -8 q 158 122 204 57 q 88 282 113 186 q 63 506 63 378 q 87 728 63 629 q 158 897 111 828 q 274 1004 206 967 q 429 1042 342 1042 m 278 506 q 291 330 278 403 q 326 210 304 257 q 376 142 349 164 q 432 121 403 121 q 494 151 467 121 q 540 236 521 181 q 569 372 558 292 q 579 551 579 451 q 567 740 579 664 q 536 860 556 815 q 493 925 517 906 q 444 944 469 944 q 381 915 411 944 q 328 828 351 885 q 292 691 306 772 q 278 506 278 610 z "},"1":{"ha":463,"x_min":22,"x_max":356,"o":"m 356 0 l 156 0 l 156 831 l 22 831 l 22 904 q 163 934 81 904 q 356 1039 244 964 l 356 0 z "},"2":{"ha":708,"x_min":53,"x_max":665,"o":"m 204 169 q 329 157 261 169 q 467 144 397 144 q 531 150 504 144 q 576 167 557 156 q 610 197 596 179 q 639 240 624 215 q 653 201 642 229 q 665 115 665 172 q 635 16 665 47 q 519 -15 604 -15 q 431 -8 471 -15 q 350 10 390 0 q 267 27 310 19 q 174 35 225 35 q 148 30 161 35 q 121 19 135 25 q 94 6 107 13 q 72 -4 82 0 q 61 22 69 3 q 53 85 53 42 q 80 207 53 150 q 148 317 107 264 q 237 421 189 369 q 326 528 285 472 q 394 647 367 585 q 421 786 421 710 q 415 849 421 818 q 394 903 408 879 q 353 942 379 928 q 290 957 328 957 q 224 935 240 957 q 207 885 207 913 q 211 850 207 869 q 224 813 215 831 q 248 779 233 794 q 283 758 263 764 q 240 724 264 736 q 188 711 215 711 q 140 722 163 711 q 99 751 117 732 q 69 797 81 769 q 58 861 58 825 q 71 928 58 896 q 113 986 83 961 q 190 1026 142 1011 q 307 1040 238 1040 q 455 1017 394 1040 q 553 956 515 994 q 607 867 590 917 q 624 767 624 818 q 596 632 624 692 q 525 521 568 572 q 431 426 482 469 q 331 340 379 382 q 244 257 282 299 q 189 169 206 215 l 204 169 l 204 169 z "},"3":{"ha":743,"x_min":44,"x_max":703,"o":"m 303 357 q 253 347 272 357 q 222 321 233 338 q 207 284 211 304 q 203 243 203 264 q 215 173 203 200 q 247 130 228 146 q 290 108 267 114 q 333 103 313 103 q 404 122 375 103 q 451 172 433 142 q 478 239 469 201 q 486 314 486 276 q 473 406 486 361 q 431 488 460 451 q 359 549 403 525 q 256 581 315 574 q 344 620 306 594 q 408 678 382 646 q 447 745 433 710 q 461 817 461 781 q 453 869 461 843 q 428 914 444 894 q 387 945 411 933 q 331 957 363 957 q 264 937 289 957 q 239 876 239 917 q 243 843 239 861 q 256 808 247 825 q 278 777 265 790 q 310 758 292 764 q 263 723 289 735 q 213 711 238 711 q 165 721 188 711 q 126 749 143 731 q 98 794 108 768 q 88 853 88 821 q 160 990 88 939 q 350 1040 232 1040 q 471 1023 418 1040 q 559 976 524 1006 q 613 906 594 946 q 632 819 632 865 q 596 690 632 757 q 481 579 560 624 q 651 485 599 546 q 703 333 703 425 q 681 211 703 272 q 617 101 660 150 q 511 22 574 53 q 367 -8 449 -8 q 314 -6 346 -8 q 246 7 282 -3 q 174 35 210 17 q 110 82 139 53 q 63 153 81 111 q 44 256 44 196 q 79 381 44 335 q 185 428 114 428 q 257 411 225 428 q 303 357 289 394 z "},"4":{"ha":713,"x_min":24,"x_max":663,"o":"m 24 375 q 48 485 29 424 q 88 615 67 547 q 124 753 108 683 q 140 888 140 822 q 133 983 140 953 q 115 1042 126 1014 q 182 1036 151 1042 q 234 1013 213 1031 q 268 965 256 996 q 281 882 281 933 q 267 785 281 835 q 234 684 253 735 q 194 583 215 633 q 158 485 172 533 l 374 485 l 374 1014 l 575 1042 l 575 485 l 663 485 l 663 375 l 575 375 l 575 0 l 374 0 l 374 375 l 24 375 z "},"5":{"ha":719,"x_min":50,"x_max":675,"o":"m 590 1040 q 603 1001 597 1019 q 608 954 608 982 q 579 868 608 903 q 476 833 550 833 q 417 838 450 833 q 352 848 385 842 q 289 860 319 854 q 238 868 258 865 l 196 617 q 280 650 239 640 q 364 660 321 660 q 497 633 439 660 q 594 560 554 606 q 654 453 633 514 q 675 325 675 392 q 657 206 675 265 q 599 99 639 146 q 496 22 560 51 q 340 -8 432 -8 q 243 0 294 -8 q 149 33 192 8 q 78 101 106 57 q 50 218 50 146 q 63 298 50 265 q 95 351 75 331 q 141 381 115 372 q 193 390 167 390 q 264 373 235 390 q 308 319 293 356 q 229 291 256 313 q 203 225 203 269 q 215 169 203 193 q 246 128 226 144 q 289 103 265 111 q 338 94 313 94 q 403 115 376 94 q 447 169 431 136 q 472 241 464 201 q 479 317 479 281 q 463 417 479 375 q 420 488 447 460 q 356 528 393 515 q 279 542 319 542 q 163 517 217 542 q 76 469 110 493 l 160 1019 q 225 1011 197 1015 q 276 1003 253 1007 q 323 998 300 1000 q 375 996 346 996 q 480 1006 428 996 q 590 1040 532 1015 z "},"6":{"ha":767,"x_min":61,"x_max":724,"o":"m 321 457 q 293 515 293 483 q 306 562 293 539 q 341 603 318 585 q 395 632 364 621 q 464 643 426 643 q 588 616 538 643 q 667 546 638 589 q 710 451 697 503 q 724 353 724 400 q 702 215 724 281 q 638 100 681 150 q 533 21 596 50 q 389 -8 471 -8 q 267 14 326 -8 q 163 88 208 36 q 89 224 117 139 q 61 433 61 308 q 83 660 61 550 q 153 854 106 769 q 275 990 201 939 q 451 1042 349 1042 q 537 1030 500 1042 q 599 999 574 1018 q 636 953 624 979 q 649 899 649 928 q 633 839 649 865 q 586 813 617 813 q 539 826 565 813 q 556 875 556 846 q 527 934 556 910 q 460 958 499 958 q 370 913 410 958 q 303 794 331 868 q 262 628 276 721 q 247 440 247 536 q 263 274 247 338 q 301 176 278 211 q 353 130 325 142 q 408 118 382 118 q 480 139 450 118 q 528 193 510 160 q 556 269 547 226 q 565 354 565 311 q 531 491 565 446 q 438 536 496 536 q 374 520 406 536 q 321 457 343 504 z "},"7":{"ha":657,"x_min":21,"x_max":656,"o":"m 656 1018 q 633 941 656 988 q 577 836 611 894 q 503 710 543 778 q 430 567 464 642 q 374 413 396 492 q 351 254 351 333 q 358 166 351 201 q 374 104 364 131 q 395 56 383 78 q 419 10 407 35 q 336 -12 376 -12 q 252 7 288 -12 q 194 59 217 26 q 160 134 171 92 q 149 222 149 176 q 173 346 149 283 q 233 469 197 408 q 312 588 269 531 q 390 697 354 646 q 451 789 426 747 q 475 861 475 831 q 450 876 475 869 q 392 886 425 882 q 325 893 358 890 q 274 896 292 896 q 169 874 210 896 q 128 789 128 851 q 51 836 82 790 q 21 946 21 882 q 31 994 21 975 q 58 1023 40 1013 q 99 1037 75 1033 q 153 1040 124 1040 q 244 1035 194 1040 q 345 1023 293 1029 q 447 1011 397 1017 q 542 1006 497 1006 q 656 1018 597 1006 z "},"8":{"ha":765,"x_min":51,"x_max":722,"o":"m 385 108 q 442 126 415 108 q 487 171 468 143 q 517 233 506 199 q 528 304 528 268 q 512 383 528 347 q 472 447 496 419 q 421 494 449 475 q 368 525 393 514 q 313 485 336 510 q 274 428 289 460 q 251 364 258 397 q 243 301 243 331 q 254 228 243 263 q 285 167 265 193 q 330 124 304 140 q 385 108 356 108 m 390 -8 q 251 19 314 -8 q 144 90 189 46 q 76 190 100 133 q 51 308 51 247 q 63 389 51 347 q 98 467 74 431 q 160 533 122 504 q 250 579 197 563 q 133 678 171 621 q 94 801 94 736 q 112 889 94 846 q 165 966 129 932 q 251 1021 200 1000 q 372 1042 303 1042 q 491 1022 438 1042 q 583 971 544 1003 q 642 897 621 939 q 663 808 663 854 q 624 683 663 747 q 510 579 586 619 q 668 474 614 547 q 722 311 722 400 q 700 197 722 254 q 635 94 678 140 q 531 20 593 49 q 390 -8 469 -8 m 379 626 q 460 724 432 665 q 488 835 488 782 q 481 885 488 860 q 460 928 474 910 q 427 959 447 947 q 382 971 407 971 q 302 928 332 971 q 272 825 272 885 q 299 718 272 771 q 379 626 326 665 z "},"9":{"ha":765,"x_min":42,"x_max":704,"o":"m 444 618 q 472 560 472 592 q 460 513 472 536 q 424 472 447 490 q 370 443 401 454 q 301 432 339 432 q 178 459 228 432 q 98 529 128 486 q 55 623 68 572 q 42 722 42 674 q 63 844 42 786 q 127 947 85 903 q 232 1016 169 990 q 376 1042 294 1042 q 498 1019 439 1042 q 603 946 557 997 q 676 810 649 894 q 704 600 704 725 q 682 374 704 483 q 612 179 660 264 q 490 43 564 94 q 314 -8 417 -8 q 228 8 265 -8 q 167 49 192 24 q 129 104 142 74 q 117 164 117 135 q 133 224 117 197 q 179 250 149 250 q 226 236 200 250 q 210 188 210 217 q 238 128 210 153 q 306 104 267 104 q 395 145 356 104 q 462 253 435 186 q 503 409 489 321 q 518 593 518 497 q 503 764 518 696 q 464 873 488 832 q 412 931 440 914 q 357 947 383 947 q 285 926 315 947 q 237 871 256 904 q 209 797 218 838 q 200 721 200 757 q 235 584 200 629 q 328 539 269 539 q 391 555 360 539 q 444 618 422 571 z "},"A":{"ha":838,"x_min":-60,"x_max":774,"o":"m 572 0 l 572 504 q 471 538 515 528 q 382 553 426 549 q 353 423 365 489 q 332 292 340 357 q 319 167 324 228 q 315 54 315 106 q 320 -42 315 -4 q 333 -102 325 -79 q 349 -137 340 -125 q 365 -158 358 -150 q 291 -154 331 -158 q 217 -127 251 -150 q 161 -57 183 -104 q 139 78 139 -10 q 146 179 139 124 q 165 297 153 235 q 197 424 178 358 q 239 556 215 490 q 132 535 172 551 q 85 482 92 518 q 103 465 92 482 q 114 431 114 447 q 94 397 114 410 q 46 385 75 385 q -27 410 6 385 q -60 483 -60 435 q 8 593 -60 550 q 188 636 76 636 q 269 632 221 636 q 347 790 304 715 q 440 920 390 864 q 546 1009 490 976 q 663 1042 601 1042 q 715 1038 683 1042 q 774 1022 746 1033 l 774 0 l 572 0 m 572 942 q 475 818 519 907 q 399 613 431 729 q 485 592 442 604 q 572 565 529 581 l 572 942 z "},"Æ":{"ha":1168,"x_min":14,"x_max":1157,"o":"m 647 0 l 647 504 q 546 539 592 528 q 456 554 500 550 q 406 295 424 426 q 389 60 389 164 q 396 -67 389 -26 q 412 -125 403 -108 q 429 -145 421 -142 q 440 -157 438 -149 q 353 -149 394 -154 q 281 -122 313 -144 q 231 -55 250 -100 q 213 74 213 -10 q 219 176 213 119 q 239 294 226 232 q 270 423 251 357 q 314 556 289 489 q 208 536 249 551 q 160 482 167 521 q 177 465 167 482 q 188 431 188 447 q 171 398 188 411 q 114 385 154 385 q 46 410 78 385 q 14 488 14 435 q 33 543 14 517 q 83 589 51 569 q 159 620 115 608 q 253 632 203 632 q 342 628 293 632 q 420 787 376 711 q 513 919 464 863 q 617 1010 563 976 q 732 1043 672 1043 q 852 1029 790 1043 q 988 1015 914 1015 q 1063 1021 1024 1015 q 1144 1042 1101 1026 q 1140 992 1142 1019 q 1127 942 1138 965 q 1094 904 1117 919 q 1029 889 1072 889 q 933 903 976 889 q 847 933 890 918 l 847 582 l 1063 582 l 1056 479 l 847 479 l 847 147 l 1157 147 l 1157 0 l 647 0 m 647 943 q 549 817 593 907 q 471 611 504 728 q 560 592 515 603 q 647 565 604 581 l 647 943 z "},"Á":{"ha":838,"x_min":-60,"x_max":774,"o":"m 572 0 l 572 504 q 471 538 515 528 q 382 553 426 549 q 353 423 365 489 q 332 292 340 357 q 319 167 324 228 q 315 54 315 106 q 320 -42 315 -4 q 333 -102 325 -79 q 349 -137 340 -125 q 365 -158 358 -150 q 291 -154 331 -158 q 217 -127 251 -150 q 161 -57 183 -104 q 139 78 139 -10 q 146 179 139 124 q 165 297 153 235 q 197 424 178 358 q 239 556 215 490 q 132 535 172 551 q 85 482 92 518 q 103 465 92 482 q 114 431 114 447 q 94 397 114 410 q 46 385 75 385 q -27 410 6 385 q -60 483 -60 435 q 8 593 -60 550 q 188 636 76 636 q 269 632 221 636 q 347 790 304 715 q 440 920 390 864 q 546 1009 490 976 q 663 1042 601 1042 q 715 1038 683 1042 q 774 1022 746 1033 l 774 0 l 572 0 m 572 942 q 475 818 519 907 q 399 613 431 729 q 485 592 442 604 q 572 565 529 581 l 572 942 m 622 1389 l 768 1389 l 656 1126 l 551 1126 l 622 1389 z "},"Â":{"ha":838,"x_min":-60,"x_max":794,"o":"m 572 0 l 572 504 q 471 538 515 528 q 382 553 426 549 q 353 423 365 489 q 332 292 340 357 q 319 167 324 228 q 315 54 315 106 q 320 -42 315 -4 q 333 -102 325 -79 q 349 -137 340 -125 q 365 -158 358 -150 q 291 -154 331 -158 q 217 -127 251 -150 q 161 -57 183 -104 q 139 78 139 -10 q 146 179 139 124 q 165 297 153 235 q 197 424 178 358 q 239 556 215 490 q 132 535 172 551 q 85 482 92 518 q 103 465 92 482 q 114 431 114 447 q 94 397 114 410 q 46 385 75 385 q -27 410 6 385 q -60 483 -60 435 q 8 593 -60 550 q 188 636 76 636 q 269 632 221 636 q 347 790 304 715 q 440 920 390 864 q 546 1009 490 976 q 663 1042 601 1042 q 715 1038 683 1042 q 774 1022 746 1033 l 774 0 l 572 0 m 750 1126 l 643 1238 l 449 1126 l 388 1126 l 626 1389 l 656 1389 l 794 1126 l 750 1126 m 572 942 q 475 818 519 907 q 399 613 431 729 q 485 592 442 604 q 572 565 529 581 l 572 942 z "},"Ä":{"ha":838,"x_min":-60,"x_max":849,"o":"m 572 0 l 572 504 q 471 538 515 528 q 382 553 426 549 q 353 423 365 489 q 332 292 340 357 q 319 167 324 228 q 315 54 315 106 q 320 -42 315 -4 q 333 -102 325 -79 q 349 -137 340 -125 q 365 -158 358 -150 q 291 -154 331 -158 q 217 -127 251 -150 q 161 -57 183 -104 q 139 78 139 -10 q 146 179 139 124 q 165 297 153 235 q 197 424 178 358 q 239 556 215 490 q 132 535 172 551 q 85 482 92 518 q 103 465 92 482 q 114 431 114 447 q 94 397 114 410 q 46 385 75 385 q -27 410 6 385 q -60 483 -60 435 q 8 593 -60 550 q 188 636 76 636 q 269 632 221 636 q 347 790 304 715 q 440 920 390 864 q 546 1009 490 976 q 663 1042 601 1042 q 715 1038 683 1042 q 774 1022 746 1033 l 774 0 l 572 0 m 572 942 q 475 818 519 907 q 399 613 431 729 q 485 592 442 604 q 572 565 529 581 l 572 942 m 679 1228 q 703 1288 679 1263 q 764 1313 728 1313 q 824 1288 799 1313 q 849 1228 849 1263 q 824 1167 849 1192 q 764 1143 799 1143 q 703 1167 728 1143 q 679 1228 679 1192 m 429 1228 q 453 1288 429 1263 q 514 1313 478 1313 q 574 1288 549 1313 q 599 1228 599 1263 q 574 1167 599 1192 q 514 1143 549 1143 q 453 1167 478 1143 q 429 1228 429 1192 z "},"À":{"ha":838,"x_min":-60,"x_max":774,"o":"m 572 0 l 572 504 q 471 538 515 528 q 382 553 426 549 q 353 423 365 489 q 332 292 340 357 q 319 167 324 228 q 315 54 315 106 q 320 -42 315 -4 q 333 -102 325 -79 q 349 -137 340 -125 q 365 -158 358 -150 q 291 -154 331 -158 q 217 -127 251 -150 q 161 -57 183 -104 q 139 78 139 -10 q 146 179 139 124 q 165 297 153 235 q 197 424 178 358 q 239 556 215 490 q 132 535 172 551 q 85 482 92 518 q 103 465 92 482 q 114 431 114 447 q 94 397 114 410 q 46 385 75 385 q -27 410 6 385 q -60 483 -60 435 q 8 593 -60 550 q 188 636 76 636 q 269 632 221 636 q 347 790 304 715 q 440 920 390 864 q 546 1009 490 976 q 663 1042 601 1042 q 715 1038 683 1042 q 774 1022 746 1033 l 774 0 l 572 0 m 572 942 q 475 818 519 907 q 399 613 431 729 q 485 592 442 604 q 572 565 529 581 l 572 942 m 411 1389 l 557 1389 l 653 1126 l 549 1126 l 411 1389 z "},"Ą":{"ha":838,"x_min":-60,"x_max":831,"o":"m 636 7 l 629 0 l 572 0 l 572 504 q 471 538 515 528 q 382 553 426 549 q 353 423 365 489 q 332 292 340 357 q 319 167 324 228 q 315 54 315 106 q 320 -42 315 -4 q 333 -102 325 -79 q 349 -137 340 -125 q 365 -158 358 -150 q 291 -154 331 -158 q 217 -127 251 -150 q 161 -57 183 -104 q 139 78 139 -10 q 146 179 139 124 q 165 297 153 235 q 197 424 178 358 q 239 556 215 490 q 132 535 172 551 q 85 482 92 518 q 103 465 92 482 q 114 431 114 447 q 94 397 114 410 q 46 385 75 385 q -27 410 6 385 q -60 483 -60 435 q 8 593 -60 550 q 188 636 76 636 q 269 632 221 636 q 347 790 304 715 q 440 920 390 864 q 546 1009 490 976 q 663 1042 601 1042 q 715 1038 683 1042 q 774 1022 746 1033 l 774 0 l 721 0 l 733 7 l 636 7 m 572 942 q 475 818 519 907 q 399 613 431 729 q 485 592 442 604 q 572 565 529 581 l 572 942 m 563 -137 q 579 -70 563 -107 q 629 0 596 -33 l 721 0 q 685 -41 700 -14 q 669 -97 669 -68 q 688 -156 669 -126 q 740 -186 706 -186 q 785 -170 765 -186 q 825 -139 806 -154 l 831 -182 q 810 -209 822 -194 q 783 -237 799 -224 q 745 -259 767 -250 q 696 -268 724 -268 q 639 -256 664 -268 q 597 -224 614 -243 q 572 -183 581 -206 q 563 -137 563 -160 z "},"Å":{"ha":838,"x_min":-60,"x_max":774,"o":"m 572 0 l 572 504 q 471 538 515 528 q 382 553 426 549 q 353 423 365 489 q 332 292 340 357 q 319 167 324 228 q 315 54 315 106 q 320 -42 315 -4 q 333 -102 325 -79 q 349 -137 340 -125 q 365 -158 358 -150 q 291 -154 331 -158 q 217 -127 251 -150 q 161 -57 183 -104 q 139 78 139 -10 q 146 179 139 124 q 165 297 153 235 q 197 424 178 358 q 239 556 215 490 q 132 535 172 551 q 85 482 92 518 q 103 465 92 482 q 114 431 114 447 q 94 397 114 410 q 46 385 75 385 q -27 410 6 385 q -60 483 -60 435 q 8 593 -60 550 q 188 636 76 636 q 269 632 221 636 q 347 790 304 715 q 440 920 390 864 q 546 1009 490 976 q 663 1042 601 1042 q 715 1038 683 1042 q 774 1022 746 1033 l 774 0 l 572 0 m 600 1338 q 649 1328 629 1338 q 681 1303 669 1318 q 699 1268 693 1288 q 704 1229 704 1249 q 678 1149 704 1185 q 596 1114 651 1114 q 513 1149 542 1114 q 485 1226 485 1183 q 513 1303 485 1269 q 600 1338 542 1338 m 572 942 q 475 818 519 907 q 399 613 431 729 q 485 592 442 604 q 572 565 529 581 l 572 942 m 653 1225 q 642 1271 653 1250 q 599 1292 631 1292 q 558 1276 575 1292 q 540 1226 540 1260 q 553 1182 540 1201 q 599 1163 567 1163 q 640 1179 626 1163 q 653 1225 653 1196 z "},"Ã":{"ha":838,"x_min":-60,"x_max":883,"o":"m 572 0 l 572 504 q 471 538 515 528 q 382 553 426 549 q 353 423 365 489 q 332 292 340 357 q 319 167 324 228 q 315 54 315 106 q 320 -42 315 -4 q 333 -102 325 -79 q 349 -137 340 -125 q 365 -158 358 -150 q 291 -154 331 -158 q 217 -127 251 -150 q 161 -57 183 -104 q 139 78 139 -10 q 146 179 139 124 q 165 297 153 235 q 197 424 178 358 q 239 556 215 490 q 132 535 172 551 q 85 482 92 518 q 103 465 92 482 q 114 431 114 447 q 94 397 114 410 q 46 385 75 385 q -27 410 6 385 q -60 483 -60 435 q 8 593 -60 550 q 188 636 76 636 q 269 632 221 636 q 347 790 304 715 q 440 920 390 864 q 546 1009 490 976 q 663 1042 601 1042 q 715 1038 683 1042 q 774 1022 746 1033 l 774 0 l 572 0 m 883 1276 q 867 1227 882 1251 q 825 1183 851 1203 q 763 1150 799 1163 q 689 1138 728 1138 q 623 1146 654 1138 q 561 1163 592 1154 q 502 1181 531 1172 q 444 1189 474 1189 q 360 1153 392 1189 l 351 1156 q 423 1257 371 1222 q 554 1292 475 1292 q 623 1285 592 1292 q 682 1269 654 1278 q 736 1253 710 1260 q 793 1246 763 1246 q 841 1254 819 1246 q 874 1278 863 1263 l 883 1276 m 572 942 q 475 818 519 907 q 399 613 431 729 q 485 592 442 604 q 572 565 529 581 l 572 942 z "},"B":{"ha":943,"x_min":25,"x_max":929,"o":"m 496 911 l 496 603 l 506 603 q 570 621 542 603 q 619 668 599 639 q 650 733 639 697 q 661 807 661 769 q 649 869 661 839 q 613 924 638 900 q 549 963 588 949 q 456 978 510 978 q 345 961 399 978 q 250 910 292 944 q 183 825 208 876 q 157 706 157 774 q 163 635 157 663 q 177 591 169 608 q 193 564 185 574 q 206 546 201 554 q 74 584 122 546 q 25 714 25 622 q 60 838 25 779 q 154 942 94 897 q 295 1015 214 988 q 469 1042 376 1042 q 615 1020 553 1042 q 720 965 678 999 q 783 887 763 931 q 804 797 804 843 q 778 690 804 742 q 701 601 753 638 q 805 567 761 593 q 876 502 849 540 q 916 417 903 464 q 929 318 929 369 q 919 206 929 265 q 882 95 908 146 q 811 10 856 44 q 699 -24 767 -24 q 576 1 625 -24 q 528 89 528 25 q 540 160 528 118 q 597 121 572 132 q 644 110 621 110 q 689 127 671 110 q 719 173 707 144 q 735 236 731 201 q 740 306 740 271 q 734 378 740 339 q 708 453 728 418 q 653 513 689 489 q 560 536 618 536 q 533 535 551 536 q 496 532 515 535 l 496 0 l 296 0 l 296 883 l 496 911 z "},"C":{"ha":701,"x_min":65,"x_max":806,"o":"m 806 236 q 756 126 790 174 q 674 44 722 78 q 567 -6 626 11 q 443 -22 508 -22 q 165 104 264 -22 q 65 486 65 231 q 82 679 65 581 q 140 858 99 778 q 252 990 182 939 q 429 1042 322 1042 q 529 1028 481 1042 q 615 988 578 1015 q 674 919 651 961 q 696 822 696 878 q 680 754 696 781 q 621 728 664 728 q 581 734 604 728 q 533 764 558 740 q 563 805 551 775 q 574 864 574 835 q 547 942 574 908 q 476 976 521 976 q 394 936 429 976 q 337 830 360 896 q 303 680 314 764 q 292 508 292 596 q 310 315 292 393 q 361 190 329 238 q 437 124 393 143 q 531 104 481 104 q 673 144 610 104 q 771 250 736 183 l 806 236 z "},"Ć":{"ha":701,"x_min":65,"x_max":806,"o":"m 806 236 q 756 126 790 174 q 674 44 722 78 q 567 -6 626 11 q 443 -22 508 -22 q 165 104 264 -22 q 65 486 65 231 q 82 679 65 581 q 140 858 99 778 q 252 990 182 939 q 429 1042 322 1042 q 529 1028 481 1042 q 615 988 578 1015 q 674 919 651 961 q 696 822 696 878 q 680 754 696 781 q 621 728 664 728 q 581 734 604 728 q 533 764 558 740 q 563 805 551 775 q 574 864 574 835 q 547 942 574 908 q 476 976 521 976 q 394 936 429 976 q 337 830 360 896 q 303 680 314 764 q 292 508 292 596 q 310 315 292 393 q 361 190 329 238 q 437 124 393 143 q 531 104 481 104 q 673 144 610 104 q 771 250 736 183 l 806 236 m 485 1389 l 631 1389 l 518 1126 l 414 1126 l 485 1389 z "},"Č":{"ha":701,"x_min":65,"x_max":806,"o":"m 806 236 q 756 126 790 174 q 674 44 722 78 q 567 -6 626 11 q 443 -22 508 -22 q 165 104 264 -22 q 65 486 65 231 q 82 679 65 581 q 140 858 99 778 q 252 990 182 939 q 429 1042 322 1042 q 529 1028 481 1042 q 615 988 578 1015 q 674 919 651 961 q 696 822 696 878 q 680 754 696 781 q 621 728 664 728 q 581 734 604 728 q 533 764 558 740 q 563 805 551 775 q 574 864 574 835 q 547 942 574 908 q 476 976 521 976 q 394 936 429 976 q 337 830 360 896 q 303 680 314 764 q 292 508 292 596 q 310 315 292 393 q 361 190 329 238 q 437 124 393 143 q 531 104 481 104 q 673 144 610 104 q 771 250 736 183 l 806 236 m 325 1389 l 432 1278 l 626 1389 l 688 1389 l 449 1126 l 419 1126 l 281 1389 l 325 1389 z "},"Ç":{"ha":704,"x_min":67,"x_max":807,"o":"m 663 -178 q 651 -231 663 -208 q 620 -270 639 -254 q 576 -294 601 -286 q 525 -303 551 -303 q 437 -291 472 -303 q 368 -264 401 -279 q 385 -233 375 -247 q 414 -219 394 -219 q 449 -225 435 -219 q 476 -238 464 -231 q 499 -251 488 -246 q 525 -257 510 -257 q 548 -243 540 -257 q 556 -211 556 -229 q 540 -168 556 -187 q 489 -149 524 -149 q 446 -153 461 -149 q 421 -165 431 -158 l 440 -22 q 165 106 263 -21 q 67 486 67 232 q 83 679 67 581 q 142 858 100 778 q 253 990 183 939 q 431 1042 324 1042 q 531 1028 482 1042 q 616 988 579 1015 q 675 919 653 961 q 697 822 697 878 q 681 754 697 781 q 622 728 665 728 q 583 734 606 728 q 535 764 560 740 q 564 805 553 775 q 575 864 575 835 q 549 942 575 908 q 478 976 522 976 q 396 936 431 976 q 338 830 361 896 q 304 680 315 764 q 293 508 293 596 q 312 315 293 393 q 363 190 331 238 q 438 124 394 143 q 532 104 482 104 q 674 144 611 104 q 772 250 738 183 l 807 236 q 696 60 779 124 q 500 -18 613 -4 l 488 -92 q 558 -81 529 -81 q 663 -178 663 -81 z "},"Ĉ":{"ha":701,"x_min":65,"x_max":806,"o":"m 806 236 q 756 126 790 174 q 674 44 722 78 q 567 -6 626 11 q 443 -22 508 -22 q 165 104 264 -22 q 65 486 65 231 q 82 679 65 581 q 140 858 99 778 q 252 990 182 939 q 429 1042 322 1042 q 529 1028 481 1042 q 615 988 578 1015 q 674 919 651 961 q 696 822 696 878 q 680 754 696 781 q 621 728 664 728 q 581 734 604 728 q 533 764 558 740 q 563 805 551 775 q 574 864 574 835 q 547 942 574 908 q 476 976 521 976 q 394 936 429 976 q 337 830 360 896 q 303 680 314 764 q 292 508 292 596 q 310 315 292 393 q 361 190 329 238 q 437 124 393 143 q 531 104 481 104 q 673 144 610 104 q 771 250 736 183 l 806 236 m 589 1126 l 482 1238 l 288 1126 l 226 1126 l 465 1389 l 494 1389 l 633 1126 l 589 1126 z "},"D":{"ha":982,"x_min":25,"x_max":946,"o":"m 497 911 l 497 131 q 578 104 542 104 q 654 145 622 104 q 706 252 686 186 q 736 403 726 318 q 746 575 746 488 q 734 738 746 664 q 691 866 722 813 q 603 949 660 919 q 460 978 547 978 q 336 960 392 978 q 241 906 281 942 q 180 819 201 871 q 158 699 158 767 q 165 632 158 658 q 181 588 172 606 q 197 560 189 569 q 207 546 204 550 q 74 585 124 546 q 25 710 25 624 q 58 839 25 778 q 151 944 92 900 q 294 1015 211 989 q 479 1042 378 1042 q 693 1001 604 1042 q 838 892 782 961 q 920 731 894 822 q 946 535 946 639 q 926 343 946 440 q 871 167 907 246 q 785 38 835 88 q 672 -12 735 -12 q 595 3 640 -12 q 497 54 550 18 l 497 0 l 296 0 l 296 883 l 497 911 z "},"E":{"ha":621,"x_min":57,"x_max":724,"o":"m 724 236 q 675 125 708 174 q 594 43 642 76 q 490 -8 547 10 q 371 -25 433 -25 q 233 1 292 -25 q 135 69 175 26 q 76 168 96 113 q 57 283 57 224 q 69 376 57 329 q 104 465 81 424 q 163 536 128 506 q 246 579 199 567 q 149 675 179 621 q 119 789 119 729 q 138 883 119 836 q 191 965 156 929 q 278 1022 226 1000 q 397 1044 331 1044 q 474 1035 438 1044 q 538 1006 510 1026 q 582 952 565 985 q 599 872 599 919 q 581 788 599 824 q 526 751 563 751 q 493 759 511 751 q 456 786 475 767 q 487 822 475 793 q 499 879 499 850 q 490 922 499 906 q 467 948 481 939 q 438 960 453 957 q 410 963 422 963 q 357 950 379 963 q 321 917 335 938 q 300 868 307 896 q 293 811 293 840 q 304 736 293 772 q 338 669 315 700 q 396 616 361 639 q 478 581 431 593 q 399 541 433 569 q 341 473 364 513 q 306 388 318 433 q 294 299 294 342 q 304 226 294 261 q 334 166 314 192 q 385 124 354 140 q 461 108 417 108 q 531 118 494 108 q 598 146 567 128 q 653 190 629 164 q 689 250 678 217 l 724 236 z "},"É":{"ha":621,"x_min":57,"x_max":724,"o":"m 724 236 q 675 125 708 174 q 594 43 642 76 q 490 -8 547 10 q 371 -25 433 -25 q 233 1 292 -25 q 135 69 175 26 q 76 168 96 113 q 57 283 57 224 q 69 376 57 329 q 104 465 81 424 q 163 536 128 506 q 246 579 199 567 q 149 675 179 621 q 119 789 119 729 q 138 883 119 836 q 191 965 156 929 q 278 1022 226 1000 q 397 1044 331 1044 q 474 1035 438 1044 q 538 1006 510 1026 q 582 952 565 985 q 599 872 599 919 q 581 788 599 824 q 526 751 563 751 q 493 759 511 751 q 456 786 475 767 q 487 822 475 793 q 499 879 499 850 q 490 922 499 906 q 467 948 481 939 q 438 960 453 957 q 410 963 422 963 q 357 950 379 963 q 321 917 335 938 q 300 868 307 896 q 293 811 293 840 q 304 736 293 772 q 338 669 315 700 q 396 616 361 639 q 478 581 431 593 q 399 541 433 569 q 341 473 364 513 q 306 388 318 433 q 294 299 294 342 q 304 226 294 261 q 334 166 314 192 q 385 124 354 140 q 461 108 417 108 q 531 118 494 108 q 598 146 567 128 q 653 190 629 164 q 689 250 678 217 l 724 236 m 422 1389 l 568 1389 l 456 1126 l 351 1126 l 422 1389 z "},"Ê":{"ha":621,"x_min":57,"x_max":724,"o":"m 724 236 q 675 125 708 174 q 594 43 642 76 q 490 -8 547 10 q 371 -25 433 -25 q 233 1 292 -25 q 135 69 175 26 q 76 168 96 113 q 57 283 57 224 q 69 376 57 329 q 104 465 81 424 q 163 536 128 506 q 246 579 199 567 q 149 675 179 621 q 119 789 119 729 q 138 883 119 836 q 191 965 156 929 q 278 1022 226 1000 q 397 1044 331 1044 q 474 1035 438 1044 q 538 1006 510 1026 q 582 952 565 985 q 599 872 599 919 q 581 788 599 824 q 526 751 563 751 q 493 759 511 751 q 456 786 475 767 q 487 822 475 793 q 499 879 499 850 q 490 922 499 906 q 467 948 481 939 q 438 960 453 957 q 410 963 422 963 q 357 950 379 963 q 321 917 335 938 q 300 868 307 896 q 293 811 293 840 q 304 736 293 772 q 338 669 315 700 q 396 616 361 639 q 478 581 431 593 q 399 541 433 569 q 341 473 364 513 q 306 388 318 433 q 294 299 294 342 q 304 226 294 261 q 334 166 314 192 q 385 124 354 140 q 461 108 417 108 q 531 118 494 108 q 598 146 567 128 q 653 190 629 164 q 689 250 678 217 l 724 236 m 547 1126 l 440 1238 l 246 1126 l 185 1126 l 424 1389 l 453 1389 l 592 1126 l 547 1126 z "},"Ë":{"ha":621,"x_min":57,"x_max":724,"o":"m 724 236 q 675 125 708 174 q 594 43 642 76 q 490 -8 547 10 q 371 -25 433 -25 q 233 1 292 -25 q 135 69 175 26 q 76 168 96 113 q 57 283 57 224 q 69 376 57 329 q 104 465 81 424 q 163 536 128 506 q 246 579 199 567 q 149 675 179 621 q 119 789 119 729 q 138 883 119 836 q 191 965 156 929 q 278 1022 226 1000 q 397 1044 331 1044 q 474 1035 438 1044 q 538 1006 510 1026 q 582 952 565 985 q 599 872 599 919 q 581 788 599 824 q 526 751 563 751 q 493 759 511 751 q 456 786 475 767 q 487 822 475 793 q 499 879 499 850 q 490 922 499 906 q 467 948 481 939 q 438 960 453 957 q 410 963 422 963 q 357 950 379 963 q 321 917 335 938 q 300 868 307 896 q 293 811 293 840 q 304 736 293 772 q 338 669 315 700 q 396 616 361 639 q 478 581 431 593 q 399 541 433 569 q 341 473 364 513 q 306 388 318 433 q 294 299 294 342 q 304 226 294 261 q 334 166 314 192 q 385 124 354 140 q 461 108 417 108 q 531 118 494 108 q 598 146 567 128 q 653 190 629 164 q 689 250 678 217 l 724 236 m 206 1228 q 230 1288 206 1263 q 290 1313 254 1313 q 350 1288 325 1313 q 375 1228 375 1263 q 350 1167 375 1192 q 290 1143 325 1143 q 230 1167 254 1143 q 206 1228 206 1192 m 456 1228 q 480 1288 456 1263 q 540 1313 504 1313 q 600 1288 575 1313 q 625 1228 625 1263 q 600 1167 625 1192 q 540 1143 575 1143 q 480 1167 504 1143 q 456 1228 456 1192 z "},"È":{"ha":621,"x_min":57,"x_max":724,"o":"m 724 236 q 675 125 708 174 q 594 43 642 76 q 490 -8 547 10 q 371 -25 433 -25 q 233 1 292 -25 q 135 69 175 26 q 76 168 96 113 q 57 283 57 224 q 69 376 57 329 q 104 465 81 424 q 163 536 128 506 q 246 579 199 567 q 149 675 179 621 q 119 789 119 729 q 138 883 119 836 q 191 965 156 929 q 278 1022 226 1000 q 397 1044 331 1044 q 474 1035 438 1044 q 538 1006 510 1026 q 582 952 565 985 q 599 872 599 919 q 581 788 599 824 q 526 751 563 751 q 493 759 511 751 q 456 786 475 767 q 487 822 475 793 q 499 879 499 850 q 490 922 499 906 q 467 948 481 939 q 438 960 453 957 q 410 963 422 963 q 357 950 379 963 q 321 917 335 938 q 300 868 307 896 q 293 811 293 840 q 304 736 293 772 q 338 669 315 700 q 396 616 361 639 q 478 581 431 593 q 399 541 433 569 q 341 473 364 513 q 306 388 318 433 q 294 299 294 342 q 304 226 294 261 q 334 166 314 192 q 385 124 354 140 q 461 108 417 108 q 531 118 494 108 q 598 146 567 128 q 653 190 629 164 q 689 250 678 217 l 724 236 m 197 1389 l 343 1389 l 439 1126 l 335 1126 l 197 1389 z "},"Ę":{"ha":624,"x_min":58,"x_max":725,"o":"m 725 236 q 637 78 701 140 q 485 -10 572 15 q 457 -49 468 -25 q 446 -97 446 -72 q 464 -156 446 -126 q 517 -186 482 -186 q 562 -170 542 -186 q 601 -139 582 -154 l 607 -182 q 587 -209 599 -194 q 559 -237 575 -224 q 522 -259 543 -250 q 472 -268 500 -268 q 415 -256 440 -268 q 374 -224 390 -243 q 348 -183 357 -206 q 339 -137 339 -160 q 350 -83 339 -112 q 383 -25 361 -53 l 372 -25 q 235 1 293 -25 q 137 69 176 26 q 78 168 97 113 q 58 283 58 224 q 70 376 58 329 q 106 465 82 424 q 165 536 129 506 q 247 579 200 567 q 151 675 181 621 q 121 789 121 729 q 139 883 121 836 q 192 965 157 929 q 280 1022 228 1000 q 399 1044 332 1044 q 475 1035 439 1044 q 539 1006 511 1026 q 583 952 567 985 q 600 872 600 919 q 582 788 600 824 q 528 751 564 751 q 494 759 513 751 q 457 786 476 767 q 488 822 476 793 q 500 879 500 850 q 491 922 500 906 q 468 948 482 939 q 439 960 454 957 q 411 963 424 963 q 358 950 381 963 q 322 917 336 938 q 301 868 308 896 q 294 811 294 840 q 306 736 294 772 q 340 669 317 700 q 397 616 363 639 q 479 581 432 593 q 400 541 435 569 q 342 473 365 513 q 308 388 319 433 q 296 299 296 342 q 306 226 296 261 q 335 166 315 192 q 387 124 356 140 q 463 108 418 108 q 532 118 496 108 q 599 146 568 128 q 655 190 631 164 q 690 250 679 217 l 725 236 z "},"Ð":{"ha":982,"x_min":25,"x_max":946,"o":"m 158 699 q 165 632 158 658 q 181 588 172 606 q 197 560 189 569 q 207 546 204 550 q 74 585 124 546 q 25 710 25 624 q 58 839 25 778 q 151 944 92 900 q 294 1015 211 989 q 479 1042 378 1042 q 693 1001 604 1042 q 838 892 782 961 q 920 731 894 822 q 946 535 946 639 q 926 343 946 440 q 871 167 907 246 q 785 38 835 88 q 672 -12 735 -12 q 595 3 640 -12 q 497 54 550 18 l 497 0 l 296 0 l 296 479 l 243 479 l 249 582 l 296 582 l 296 883 l 497 911 l 497 582 l 606 582 l 600 479 l 497 479 l 497 131 q 578 104 542 104 q 654 145 622 104 q 706 252 686 186 q 736 403 726 318 q 746 575 746 488 q 734 738 746 664 q 691 866 722 813 q 603 949 660 919 q 460 978 547 978 q 336 960 392 978 q 241 906 281 942 q 180 819 201 871 q 158 699 158 767 z "},"€":{"ha":858,"x_min":35,"x_max":826,"o":"m 632 464 l 628 394 l 358 394 q 390 258 368 311 q 447 173 413 204 q 527 129 482 142 q 626 117 572 117 q 728 128 675 117 q 815 172 782 139 l 826 132 q 774 67 806 93 q 706 24 743 40 q 627 -1 668 7 q 544 -8 586 -8 q 417 10 482 -8 q 297 74 353 28 q 199 197 240 119 q 142 394 157 275 l 35 394 l 39 464 l 135 464 q 133 495 133 479 q 133 528 133 511 l 133 554 l 36 554 l 40 624 l 138 624 q 169 788 146 711 q 237 920 193 864 q 345 1009 281 976 q 500 1042 410 1042 q 606 1028 554 1042 q 697 988 657 1015 q 760 919 736 961 q 783 821 783 878 q 767 753 783 778 q 708 728 750 728 q 669 734 692 728 q 621 764 646 740 q 638 777 631 767 q 651 801 646 788 q 658 829 656 815 q 661 854 661 843 q 655 892 661 871 q 635 931 649 913 q 599 963 621 950 q 547 976 578 976 q 472 950 506 976 q 415 877 439 924 q 376 765 392 831 q 356 624 361 700 l 633 624 l 629 554 l 353 554 l 353 521 q 353 492 353 506 q 354 464 353 478 l 632 464 z "},"F":{"ha":775,"x_min":29,"x_max":790,"o":"m 697 625 l 697 522 l 494 522 l 494 0 l 292 0 l 292 928 q 236 915 261 925 q 194 884 211 906 q 167 826 176 863 q 158 736 158 790 q 165 658 158 690 q 180 603 171 625 q 199 567 189 581 q 215 546 208 554 q 75 590 121 546 q 29 729 29 633 q 51 851 29 794 q 121 951 74 908 q 241 1017 168 993 q 415 1042 314 1042 q 481 1039 450 1042 q 542 1033 513 1036 q 601 1028 571 1031 q 667 1025 632 1025 q 732 1028 701 1025 q 790 1042 763 1032 q 781 953 790 986 q 754 903 771 921 q 716 881 738 886 q 671 875 694 875 q 587 883 632 875 q 494 900 542 890 l 494 625 l 697 625 z "},"G":{"ha":824,"x_min":46,"x_max":774,"o":"m 774 581 l 774 3 q 760 -101 774 -50 q 715 -194 747 -153 q 628 -262 682 -236 q 492 -287 574 -287 q 381 -271 426 -287 q 306 -226 335 -254 q 263 -163 276 -199 q 250 -90 250 -128 q 259 -27 250 -60 q 288 33 268 6 q 340 77 307 60 q 419 94 372 94 q 452 91 432 94 q 492 74 472 88 q 526 31 513 60 q 540 -47 540 3 q 503 -23 521 -28 q 471 -18 485 -18 q 396 -44 417 -18 q 375 -103 375 -71 q 382 -144 375 -124 q 403 -181 389 -165 q 438 -208 418 -197 q 486 -218 458 -218 q 562 -184 532 -218 q 592 -75 592 -150 l 592 269 q 507 181 560 211 q 382 151 454 151 q 250 181 311 151 q 143 265 189 210 q 72 401 97 321 q 46 583 46 482 q 72 765 46 681 q 147 910 97 849 q 272 1006 197 971 q 444 1042 346 1042 q 553 1030 499 1042 q 651 992 607 1018 q 722 924 694 965 q 749 822 749 882 q 731 753 749 779 q 672 728 714 728 q 625 734 656 728 q 569 764 594 740 q 599 801 589 771 q 608 853 608 831 q 604 885 608 865 q 588 923 600 904 q 553 955 576 942 q 493 968 531 968 q 394 937 438 968 q 320 853 350 906 q 275 733 290 801 q 260 590 260 665 q 277 449 260 508 q 322 349 294 389 q 382 291 349 310 q 449 272 415 272 q 560 350 517 272 q 610 582 604 428 l 774 581 z "},"Ğ":{"ha":824,"x_min":46,"x_max":774,"o":"m 774 581 l 774 3 q 760 -101 774 -50 q 715 -194 747 -153 q 628 -262 682 -236 q 492 -287 574 -287 q 381 -271 426 -287 q 306 -226 335 -254 q 263 -163 276 -199 q 250 -90 250 -128 q 259 -27 250 -60 q 288 33 268 6 q 340 77 307 60 q 419 94 372 94 q 452 91 432 94 q 492 74 472 88 q 526 31 513 60 q 540 -47 540 3 q 503 -23 521 -28 q 471 -18 485 -18 q 396 -44 417 -18 q 375 -103 375 -71 q 382 -144 375 -124 q 403 -181 389 -165 q 438 -208 418 -197 q 486 -218 458 -218 q 562 -184 532 -218 q 592 -75 592 -150 l 592 269 q 507 181 560 211 q 382 151 454 151 q 250 181 311 151 q 143 265 189 210 q 72 401 97 321 q 46 583 46 482 q 72 765 46 681 q 147 910 97 849 q 272 1006 197 971 q 444 1042 346 1042 q 553 1030 499 1042 q 651 992 607 1018 q 722 924 694 965 q 749 822 749 882 q 731 753 749 779 q 672 728 714 728 q 625 734 656 728 q 569 764 594 740 q 599 801 589 771 q 608 853 608 831 q 604 885 608 865 q 588 923 600 904 q 553 955 576 942 q 493 968 531 968 q 394 937 438 968 q 320 853 350 906 q 275 733 290 801 q 260 590 260 665 q 277 449 260 508 q 322 349 294 389 q 382 291 349 310 q 449 272 415 272 q 560 350 517 272 q 610 582 604 428 l 774 581 m 646 1324 q 624 1242 646 1276 q 567 1183 603 1207 q 487 1148 532 1160 q 394 1136 442 1136 q 301 1148 347 1136 q 220 1183 256 1160 q 163 1242 185 1207 q 142 1324 142 1276 l 251 1324 q 264 1269 251 1292 q 297 1230 276 1246 q 342 1206 317 1214 q 396 1199 368 1199 q 449 1206 422 1199 q 495 1230 475 1214 q 528 1269 515 1246 q 540 1324 540 1292 l 646 1324 z "},"H":{"ha":964,"x_min":25,"x_max":900,"o":"m 496 625 l 700 625 l 700 1039 l 900 1039 l 900 0 l 700 0 l 700 522 l 496 522 l 496 0 l 296 0 l 296 942 q 193 851 229 910 q 157 708 157 792 q 163 637 157 664 q 177 592 169 610 q 193 564 185 574 q 206 546 201 554 q 74 584 122 546 q 25 714 25 622 q 60 840 25 781 q 152 944 94 899 q 284 1015 210 989 q 438 1042 358 1042 q 467 1041 453 1042 q 496 1039 482 1040 l 496 625 z "},"I":{"ha":560,"x_min":25,"x_max":496,"o":"m 496 0 l 296 0 l 296 942 q 193 851 229 910 q 157 708 157 792 q 163 638 157 665 q 177 592 169 610 q 193 565 185 575 q 206 546 201 554 q 74 584 122 546 q 25 714 25 622 q 60 840 25 781 q 152 944 94 899 q 284 1015 210 989 q 438 1042 358 1042 q 467 1041 453 1042 q 496 1039 482 1040 l 496 0 z "},"Ĳ":{"ha":944,"x_min":25,"x_max":881,"o":"m 496 81 q 576 47 543 75 q 610 -25 610 19 q 609 -40 610 -32 q 607 -54 608 -47 q 535 -25 569 -25 q 481 -52 500 -25 q 461 -115 461 -79 q 471 -161 461 -142 q 497 -193 481 -181 q 532 -212 513 -206 q 571 -218 551 -218 q 608 -210 590 -218 q 641 -184 626 -203 q 665 -132 656 -165 q 674 -47 674 -99 l 674 996 l 881 1042 l 881 56 q 865 -82 881 -19 q 815 -190 850 -144 q 724 -262 781 -236 q 583 -287 667 -287 q 396 -231 456 -287 q 336 -86 336 -175 q 340 -41 336 -62 q 351 0 343 -19 l 296 0 l 296 942 q 193 851 229 910 q 157 708 157 792 q 163 638 157 665 q 177 592 169 610 q 193 565 185 575 q 206 546 201 554 q 74 584 122 546 q 25 714 25 622 q 60 840 25 781 q 152 944 94 899 q 284 1015 210 989 q 438 1042 358 1042 q 467 1041 453 1042 q 496 1039 482 1040 l 496 81 z "},"Í":{"ha":560,"x_min":25,"x_max":565,"o":"m 496 0 l 296 0 l 296 942 q 193 851 229 910 q 157 708 157 792 q 163 638 157 665 q 177 592 169 610 q 193 565 185 575 q 206 546 201 554 q 74 584 122 546 q 25 714 25 622 q 60 840 25 781 q 152 944 94 899 q 284 1015 210 989 q 438 1042 358 1042 q 467 1041 453 1042 q 496 1039 482 1040 l 496 0 m 419 1389 l 565 1389 l 453 1126 l 349 1126 l 419 1389 z "},"Î":{"ha":560,"x_min":25,"x_max":592,"o":"m 496 0 l 296 0 l 296 942 q 193 851 229 910 q 157 708 157 792 q 163 638 157 665 q 177 592 169 610 q 193 565 185 575 q 206 546 201 554 q 74 584 122 546 q 25 714 25 622 q 60 840 25 781 q 152 944 94 899 q 284 1015 210 989 q 438 1042 358 1042 q 467 1041 453 1042 q 496 1039 482 1040 l 496 0 m 547 1126 l 440 1238 l 246 1126 l 185 1126 l 424 1389 l 453 1389 l 592 1126 l 547 1126 z "},"Ï":{"ha":560,"x_min":25,"x_max":606,"o":"m 496 0 l 296 0 l 296 942 q 193 851 229 910 q 157 708 157 792 q 163 638 157 665 q 177 592 169 610 q 193 565 185 575 q 206 546 201 554 q 74 584 122 546 q 25 714 25 622 q 60 840 25 781 q 152 944 94 899 q 284 1015 210 989 q 438 1042 358 1042 q 467 1041 453 1042 q 496 1039 482 1040 l 496 0 m 436 1228 q 460 1288 436 1263 q 521 1313 485 1313 q 581 1288 556 1313 q 606 1228 606 1263 q 581 1167 606 1192 q 521 1143 556 1143 q 460 1167 485 1143 q 436 1228 436 1192 m 186 1228 q 210 1288 186 1263 q 271 1313 235 1313 q 331 1288 306 1313 q 356 1228 356 1263 q 331 1167 356 1192 q 271 1143 306 1143 q 210 1167 235 1143 q 186 1228 186 1192 z "},"Ì":{"ha":560,"x_min":25,"x_max":496,"o":"m 496 0 l 296 0 l 296 942 q 193 851 229 910 q 157 708 157 792 q 163 638 157 665 q 177 592 169 610 q 193 565 185 575 q 206 546 201 554 q 74 584 122 546 q 25 714 25 622 q 60 840 25 781 q 152 944 94 899 q 284 1015 210 989 q 438 1042 358 1042 q 467 1041 453 1042 q 496 1039 482 1040 l 496 0 m 204 1389 l 350 1389 l 446 1126 l 342 1126 l 204 1389 z "},"J":{"ha":603,"x_min":-4,"x_max":539,"o":"m 539 1042 l 539 42 q 524 -101 539 -39 q 474 -204 508 -162 q 386 -267 440 -246 q 253 -287 332 -287 q 60 -235 124 -287 q -4 -89 -4 -182 q 2 -32 -4 -64 q 28 28 8 0 q 81 76 47 57 q 172 94 115 94 q 209 91 189 94 q 247 73 229 88 q 278 31 265 58 q 290 -47 290 3 q 251 -24 268 -29 q 213 -18 235 -18 q 141 -40 161 -18 q 121 -99 121 -62 q 157 -187 121 -156 q 246 -218 193 -218 q 283 -212 265 -218 q 315 -187 301 -206 q 335 -135 328 -168 q 343 -47 343 -101 l 343 944 q 240 856 279 915 q 201 701 201 797 q 208 633 201 661 q 224 588 215 606 q 240 561 232 571 q 250 546 247 551 q 118 585 167 546 q 69 707 69 624 q 104 839 69 778 q 197 945 139 900 q 329 1016 254 990 q 483 1042 404 1042 l 539 1042 z "},"K":{"ha":901,"x_min":25,"x_max":908,"o":"m 496 594 l 738 1035 l 867 1035 l 571 590 q 595 591 586 590 q 619 592 604 592 q 781 539 725 592 q 836 358 836 486 q 835 310 836 339 q 833 253 833 282 q 831 197 832 224 q 829 154 829 171 q 851 50 829 86 q 908 0 872 14 q 833 -18 867 -12 q 774 -24 800 -24 q 674 13 706 -24 q 642 131 642 50 q 643 179 642 150 q 647 240 644 208 q 650 303 649 272 q 651 360 651 335 q 629 482 651 435 q 543 529 607 529 q 518 528 531 529 q 496 524 506 526 l 496 0 l 296 0 l 296 942 q 193 849 229 910 q 157 701 157 789 q 163 637 157 664 q 178 592 169 610 q 194 563 186 574 q 206 546 201 551 q 74 585 122 546 q 25 707 25 624 q 60 839 25 778 q 152 945 94 900 q 284 1016 210 990 q 438 1042 358 1042 q 467 1041 453 1042 q 496 1039 482 1040 l 496 594 z "},"L":{"ha":629,"x_min":24,"x_max":1110,"o":"m 494 26 q 612 -15 551 14 q 736 -75 672 -44 q 866 -128 800 -106 q 999 -151 932 -151 q 1053 -147 1025 -151 q 1108 -129 1081 -142 q 1110 -142 1110 -136 q 1110 -154 1110 -147 q 1100 -220 1110 -186 q 1072 -282 1090 -254 q 1024 -328 1053 -310 q 956 -347 994 -347 q 865 -324 911 -347 q 768 -265 818 -300 q 665 -190 718 -231 q 557 -114 613 -149 q 443 -56 501 -79 q 325 -32 385 -32 q 309 -32 317 -32 q 293 -33 301 -32 l 293 928 q 191 835 226 896 q 156 689 156 775 q 162 624 156 651 q 176 579 168 597 q 192 549 183 561 q 204 532 200 538 q 72 571 121 532 q 24 693 24 610 q 58 825 24 764 q 151 931 93 886 q 283 1002 208 976 q 436 1028 357 1028 q 466 1027 451 1028 q 494 1025 481 1026 l 494 26 z "},"Ł":{"ha":686,"x_min":25,"x_max":1111,"o":"m 496 647 l 639 756 l 651 671 l 496 557 l 496 26 q 613 -15 553 14 q 738 -75 674 -44 q 867 -128 801 -106 q 1000 -151 933 -151 q 1054 -147 1026 -151 q 1110 -129 1082 -142 q 1111 -142 1111 -136 q 1111 -154 1111 -147 q 1101 -220 1111 -186 q 1073 -282 1092 -254 q 1025 -328 1054 -310 q 957 -347 996 -347 q 867 -324 914 -347 q 769 -265 819 -300 q 667 -190 719 -231 q 558 -114 614 -149 q 444 -56 503 -79 q 326 -32 386 -32 q 310 -32 318 -32 q 294 -33 303 -32 l 294 410 l 219 356 l 207 429 l 294 494 l 294 928 q 192 835 228 896 q 157 689 157 775 q 163 624 157 651 q 177 579 169 597 q 193 549 185 561 q 206 532 201 538 q 74 571 122 532 q 25 693 25 610 q 60 825 25 764 q 152 931 94 886 q 284 1002 210 976 q 438 1028 358 1028 q 467 1027 453 1028 q 496 1025 482 1026 l 496 647 z "},"M":{"ha":1094,"x_min":29,"x_max":1051,"o":"m 174 0 l 322 951 q 202 859 244 921 q 160 708 160 797 q 166 639 160 667 q 181 593 172 611 q 197 565 189 575 q 210 546 206 554 q 79 583 129 546 q 29 710 29 621 q 60 831 29 771 q 141 937 90 890 q 258 1013 192 983 q 394 1042 324 1042 q 507 1022 451 1042 l 631 290 l 781 1022 l 981 1022 l 1051 0 l 851 0 l 808 624 l 679 0 l 489 0 l 383 624 l 285 0 l 174 0 z "},"N":{"ha":997,"x_min":28,"x_max":933,"o":"m 933 1039 l 933 0 l 742 0 l 428 692 l 428 0 l 294 0 l 294 942 q 196 856 231 911 q 161 717 161 800 q 167 644 161 672 q 180 597 172 615 q 196 567 188 579 q 211 546 204 556 q 74 588 119 546 q 28 731 28 631 q 50 843 28 788 q 116 943 72 899 q 226 1015 160 988 q 382 1042 293 1042 q 425 1039 399 1042 q 483 1022 451 1036 l 807 286 l 807 1039 l 933 1039 z "},"Ń":{"ha":997,"x_min":28,"x_max":933,"o":"m 933 1039 l 933 0 l 742 0 l 428 692 l 428 0 l 294 0 l 294 942 q 196 856 231 911 q 161 717 161 800 q 167 644 161 672 q 180 597 172 615 q 196 567 188 579 q 211 546 204 556 q 74 588 119 546 q 28 731 28 631 q 50 843 28 788 q 116 943 72 899 q 226 1015 160 988 q 382 1042 293 1042 q 425 1039 399 1042 q 483 1022 451 1036 l 807 286 l 807 1039 l 933 1039 m 646 1389 l 792 1389 l 679 1126 l 575 1126 l 646 1389 z "},"Ñ":{"ha":997,"x_min":28,"x_max":933,"o":"m 933 1039 l 933 0 l 742 0 l 428 692 l 428 0 l 294 0 l 294 942 q 196 856 231 911 q 161 717 161 800 q 167 644 161 672 q 180 597 172 615 q 196 567 188 579 q 211 546 204 556 q 74 588 119 546 q 28 731 28 631 q 50 843 28 788 q 116 943 72 899 q 226 1015 160 988 q 382 1042 293 1042 q 425 1039 399 1042 q 483 1022 451 1036 l 807 286 l 807 1039 l 933 1039 m 883 1276 q 867 1227 882 1251 q 825 1183 851 1203 q 763 1150 799 1163 q 689 1138 728 1138 q 623 1146 654 1138 q 561 1163 592 1154 q 502 1181 531 1172 q 444 1189 474 1189 q 360 1153 392 1189 l 351 1156 q 423 1257 371 1222 q 554 1292 475 1292 q 623 1285 592 1292 q 682 1269 654 1278 q 736 1253 710 1260 q 793 1246 763 1246 q 841 1254 819 1246 q 874 1278 863 1263 l 883 1276 z "},"O":{"ha":968,"x_min":24,"x_max":931,"o":"m 543 911 q 492 839 514 892 q 456 718 471 786 q 435 575 442 650 q 428 433 428 500 q 442 271 428 333 q 478 174 457 208 q 524 127 500 139 q 568 115 549 115 q 641 153 610 115 q 694 256 672 192 q 726 402 715 319 q 736 574 736 485 q 716 779 736 700 q 661 903 696 858 q 580 963 626 947 q 482 978 533 978 q 356 958 415 978 q 251 899 296 938 q 181 803 207 860 q 156 674 156 746 q 167 595 156 622 q 193 546 178 568 q 69 581 114 546 q 24 694 24 617 q 62 828 24 765 q 165 939 100 892 q 319 1014 231 986 q 507 1042 407 1042 q 710 1001 628 1042 q 840 892 792 961 q 910 731 889 822 q 931 538 931 639 q 924 413 931 476 q 899 288 917 349 q 854 174 882 228 q 785 79 826 119 q 686 15 743 39 q 556 -8 629 -8 q 428 14 489 -8 q 322 88 368 36 q 248 223 275 139 q 221 432 221 307 q 233 593 221 507 q 274 752 244 679 q 351 874 303 825 q 472 922 400 922 q 506 920 488 922 q 543 911 524 918 z "},"Œ":{"ha":1208,"x_min":24,"x_max":1196,"o":"m 1113 582 l 1113 479 l 929 479 q 903 305 924 392 q 839 147 883 218 l 1181 147 l 1181 0 l 644 0 q 602 -6 625 -3 q 556 -8 579 -8 q 428 14 489 -8 q 322 88 368 36 q 248 223 275 139 q 221 432 221 307 q 233 593 221 507 q 274 752 244 679 q 351 874 303 825 q 472 922 400 922 q 506 920 488 922 q 543 911 524 918 q 492 839 514 892 q 456 718 471 786 q 435 575 442 650 q 428 433 428 500 q 442 271 428 333 q 478 174 457 208 q 524 127 500 139 q 568 115 549 115 q 641 153 610 115 q 694 256 672 192 q 726 402 715 319 q 736 574 736 485 q 716 779 736 700 q 661 903 696 858 q 580 963 626 947 q 482 978 533 978 q 356 958 415 978 q 251 899 296 938 q 181 803 207 860 q 156 674 156 746 q 167 595 156 622 q 193 546 178 568 q 69 581 114 546 q 24 694 24 617 q 62 828 24 765 q 165 939 100 892 q 319 1014 231 986 q 507 1042 407 1042 q 669 1017 599 1042 q 742 1035 701 1029 q 840 1042 782 1042 q 944 1033 882 1042 q 1074 1025 1007 1025 q 1137 1028 1106 1025 q 1196 1042 1168 1032 q 1191 991 1193 1019 q 1180 937 1189 963 q 1152 893 1171 911 q 1099 875 1133 875 q 1024 881 1060 875 q 952 894 988 886 q 882 911 917 903 q 814 924 847 919 q 899 772 872 860 q 929 582 925 683 l 1113 582 z "},"Ó":{"ha":968,"x_min":24,"x_max":931,"o":"m 543 911 q 492 839 514 892 q 456 718 471 786 q 435 575 442 650 q 428 433 428 500 q 442 271 428 333 q 478 174 457 208 q 524 127 500 139 q 568 115 549 115 q 641 153 610 115 q 694 256 672 192 q 726 402 715 319 q 736 574 736 485 q 716 779 736 700 q 661 903 696 858 q 580 963 626 947 q 482 978 533 978 q 356 958 415 978 q 251 899 296 938 q 181 803 207 860 q 156 674 156 746 q 167 595 156 622 q 193 546 178 568 q 69 581 114 546 q 24 694 24 617 q 62 828 24 765 q 165 939 100 892 q 319 1014 231 986 q 507 1042 407 1042 q 710 1001 628 1042 q 840 892 792 961 q 910 731 889 822 q 931 538 931 639 q 924 413 931 476 q 899 288 917 349 q 854 174 882 228 q 785 79 826 119 q 686 15 743 39 q 556 -8 629 -8 q 428 14 489 -8 q 322 88 368 36 q 248 223 275 139 q 221 432 221 307 q 233 593 221 507 q 274 752 244 679 q 351 874 303 825 q 472 922 400 922 q 506 920 488 922 q 543 911 524 918 m 585 1389 l 731 1389 l 618 1126 l 514 1126 l 585 1389 z "},"Ô":{"ha":968,"x_min":24,"x_max":931,"o":"m 543 911 q 492 839 514 892 q 456 718 471 786 q 435 575 442 650 q 428 433 428 500 q 442 271 428 333 q 478 174 457 208 q 524 127 500 139 q 568 115 549 115 q 641 153 610 115 q 694 256 672 192 q 726 402 715 319 q 736 574 736 485 q 716 779 736 700 q 661 903 696 858 q 580 963 626 947 q 482 978 533 978 q 356 958 415 978 q 251 899 296 938 q 181 803 207 860 q 156 674 156 746 q 167 595 156 622 q 193 546 178 568 q 69 581 114 546 q 24 694 24 617 q 62 828 24 765 q 165 939 100 892 q 319 1014 231 986 q 507 1042 407 1042 q 710 1001 628 1042 q 840 892 792 961 q 910 731 889 822 q 931 538 931 639 q 924 413 931 476 q 899 288 917 349 q 854 174 882 228 q 785 79 826 119 q 686 15 743 39 q 556 -8 629 -8 q 428 14 489 -8 q 322 88 368 36 q 248 223 275 139 q 221 432 221 307 q 233 593 221 507 q 274 752 244 679 q 351 874 303 825 q 472 922 400 922 q 506 920 488 922 q 543 911 524 918 m 732 1126 l 625 1238 l 431 1126 l 369 1126 l 608 1389 l 638 1389 l 776 1126 l 732 1126 z "},"Ö":{"ha":968,"x_min":24,"x_max":931,"o":"m 543 911 q 492 839 514 892 q 456 718 471 786 q 435 575 442 650 q 428 433 428 500 q 442 271 428 333 q 478 174 457 208 q 524 127 500 139 q 568 115 549 115 q 641 153 610 115 q 694 256 672 192 q 726 402 715 319 q 736 574 736 485 q 716 779 736 700 q 661 903 696 858 q 580 963 626 947 q 482 978 533 978 q 356 958 415 978 q 251 899 296 938 q 181 803 207 860 q 156 674 156 746 q 167 595 156 622 q 193 546 178 568 q 69 581 114 546 q 24 694 24 617 q 62 828 24 765 q 165 939 100 892 q 319 1014 231 986 q 507 1042 407 1042 q 710 1001 628 1042 q 840 892 792 961 q 910 731 889 822 q 931 538 931 639 q 924 413 931 476 q 899 288 917 349 q 854 174 882 228 q 785 79 826 119 q 686 15 743 39 q 556 -8 629 -8 q 428 14 489 -8 q 322 88 368 36 q 248 223 275 139 q 221 432 221 307 q 233 593 221 507 q 274 752 244 679 q 351 874 303 825 q 472 922 400 922 q 506 920 488 922 q 543 911 524 918 m 349 1228 q 373 1288 349 1263 q 433 1313 397 1313 q 493 1288 468 1313 q 518 1228 518 1263 q 493 1167 518 1192 q 433 1143 468 1143 q 373 1167 397 1143 q 349 1228 349 1192 m 599 1228 q 623 1288 599 1263 q 683 1313 647 1313 q 743 1288 718 1313 q 768 1228 768 1263 q 743 1167 768 1192 q 683 1143 718 1143 q 623 1167 647 1143 q 599 1228 599 1192 z "},"Ò":{"ha":968,"x_min":24,"x_max":931,"o":"m 543 911 q 492 839 514 892 q 456 718 471 786 q 435 575 442 650 q 428 433 428 500 q 442 271 428 333 q 478 174 457 208 q 524 127 500 139 q 568 115 549 115 q 641 153 610 115 q 694 256 672 192 q 726 402 715 319 q 736 574 736 485 q 716 779 736 700 q 661 903 696 858 q 580 963 626 947 q 482 978 533 978 q 356 958 415 978 q 251 899 296 938 q 181 803 207 860 q 156 674 156 746 q 167 595 156 622 q 193 546 178 568 q 69 581 114 546 q 24 694 24 617 q 62 828 24 765 q 165 939 100 892 q 319 1014 231 986 q 507 1042 407 1042 q 710 1001 628 1042 q 840 892 792 961 q 910 731 889 822 q 931 538 931 639 q 924 413 931 476 q 899 288 917 349 q 854 174 882 228 q 785 79 826 119 q 686 15 743 39 q 556 -8 629 -8 q 428 14 489 -8 q 322 88 368 36 q 248 223 275 139 q 221 432 221 307 q 233 593 221 507 q 274 752 244 679 q 351 874 303 825 q 472 922 400 922 q 506 920 488 922 q 543 911 524 918 m 383 1389 l 529 1389 l 625 1126 l 521 1126 l 383 1389 z "},"Ő":{"ha":968,"x_min":24,"x_max":931,"o":"m 543 911 q 492 839 514 892 q 456 718 471 786 q 435 575 442 650 q 428 433 428 500 q 442 271 428 333 q 478 174 457 208 q 524 127 500 139 q 568 115 549 115 q 641 153 610 115 q 694 256 672 192 q 726 402 715 319 q 736 574 736 485 q 716 779 736 700 q 661 903 696 858 q 580 963 626 947 q 482 978 533 978 q 356 958 415 978 q 251 899 296 938 q 181 803 207 860 q 156 674 156 746 q 167 595 156 622 q 193 546 178 568 q 69 581 114 546 q 24 694 24 617 q 62 828 24 765 q 165 939 100 892 q 319 1014 231 986 q 507 1042 407 1042 q 710 1001 628 1042 q 840 892 792 961 q 910 731 889 822 q 931 538 931 639 q 924 413 931 476 q 899 288 917 349 q 854 174 882 228 q 785 79 826 119 q 686 15 743 39 q 556 -8 629 -8 q 428 14 489 -8 q 322 88 368 36 q 248 223 275 139 q 221 432 221 307 q 233 593 221 507 q 274 752 244 679 q 351 874 303 825 q 472 922 400 922 q 506 920 488 922 q 543 911 524 918 m 526 1389 l 658 1389 l 546 1126 l 456 1126 l 526 1389 m 707 1389 l 839 1389 l 726 1126 l 636 1126 l 707 1389 z "},"Ø":{"ha":917,"x_min":22,"x_max":896,"o":"m 526 -99 l 526 -8 q 401 13 458 -8 q 301 81 343 33 q 235 205 258 128 q 211 393 211 282 q 224 549 211 467 q 267 702 238 632 q 344 818 296 772 q 461 864 392 864 q 526 854 493 864 l 526 910 q 472 915 503 915 q 345 896 404 915 q 243 840 286 876 q 175 753 200 804 q 150 638 150 701 q 156 578 150 600 q 167 542 161 556 q 179 523 174 529 q 186 511 185 517 q 66 543 110 511 q 22 654 22 575 q 59 775 22 717 q 159 878 96 833 q 308 949 222 922 q 492 975 393 975 q 509 974 500 975 q 526 974 518 974 l 526 1042 l 599 1042 l 599 965 q 741 905 683 949 q 833 799 799 861 q 881 662 867 738 q 896 504 896 586 q 881 346 896 428 q 830 193 865 264 q 738 69 794 122 q 599 0 682 17 l 599 -99 l 526 -99 m 411 393 q 417 285 411 336 q 438 193 424 233 q 474 127 451 153 q 526 97 496 101 l 526 849 q 477 775 499 825 q 441 661 456 725 q 419 527 426 597 q 411 393 411 457 m 710 536 q 680 766 710 685 q 599 882 650 847 l 599 125 q 644 194 624 150 q 680 294 665 239 q 702 411 694 349 q 710 536 710 474 z "},"Õ":{"ha":968,"x_min":24,"x_max":931,"o":"m 543 911 q 492 839 514 892 q 456 718 471 786 q 435 575 442 650 q 428 433 428 500 q 442 271 428 333 q 478 174 457 208 q 524 127 500 139 q 568 115 549 115 q 641 153 610 115 q 694 256 672 192 q 726 402 715 319 q 736 574 736 485 q 716 779 736 700 q 661 903 696 858 q 580 963 626 947 q 482 978 533 978 q 356 958 415 978 q 251 899 296 938 q 181 803 207 860 q 156 674 156 746 q 167 595 156 622 q 193 546 178 568 q 69 581 114 546 q 24 694 24 617 q 62 828 24 765 q 165 939 100 892 q 319 1014 231 986 q 507 1042 407 1042 q 710 1001 628 1042 q 840 892 792 961 q 910 731 889 822 q 931 538 931 639 q 924 413 931 476 q 899 288 917 349 q 854 174 882 228 q 785 79 826 119 q 686 15 743 39 q 556 -8 629 -8 q 428 14 489 -8 q 322 88 368 36 q 248 223 275 139 q 221 432 221 307 q 233 593 221 507 q 274 752 244 679 q 351 874 303 825 q 472 922 400 922 q 506 920 488 922 q 543 911 524 918 m 821 1276 q 804 1227 819 1251 q 763 1183 789 1203 q 701 1150 736 1163 q 626 1138 665 1138 q 560 1146 592 1138 q 499 1163 529 1154 q 440 1181 468 1172 q 382 1189 411 1189 q 297 1153 329 1189 l 289 1156 q 360 1257 308 1222 q 492 1292 413 1292 q 560 1285 529 1292 q 619 1269 592 1278 q 674 1253 647 1260 q 731 1246 700 1246 q 778 1254 757 1246 q 811 1278 800 1263 l 821 1276 z "},"P":{"ha":836,"x_min":25,"x_max":833,"o":"m 496 911 l 496 447 q 572 480 539 451 q 627 551 604 508 q 662 647 650 594 q 674 751 674 699 q 666 824 674 785 q 634 898 658 864 q 563 955 610 932 q 439 978 517 978 q 325 961 376 978 q 236 910 274 944 q 178 823 199 876 q 157 697 157 769 q 162 635 157 660 q 174 594 167 611 q 190 567 182 578 q 206 546 199 556 q 74 585 122 546 q 25 707 25 624 q 59 839 25 778 q 152 945 93 900 q 290 1016 211 990 q 456 1042 368 1042 q 610 1019 540 1042 q 729 956 679 997 q 806 858 779 915 q 833 729 833 800 q 813 613 833 672 q 750 505 792 553 q 647 426 708 457 q 503 396 585 396 l 496 396 l 496 0 l 296 0 l 296 883 l 496 911 z "},"Q":{"ha":968,"x_min":24,"x_max":1006,"o":"m 543 911 q 492 839 514 892 q 456 718 471 786 q 435 575 442 650 q 428 433 428 500 q 437 296 428 351 q 461 204 446 240 q 544 218 504 218 q 608 208 579 218 q 661 182 636 199 q 694 256 679 213 q 717 349 708 299 q 731 457 726 400 q 736 574 736 514 q 716 779 736 700 q 661 903 696 858 q 580 963 626 947 q 482 978 533 978 q 356 958 415 978 q 251 899 296 938 q 181 803 207 860 q 156 674 156 746 q 167 595 156 622 q 193 546 178 568 q 69 581 114 546 q 24 694 24 617 q 62 828 24 765 q 165 939 100 892 q 319 1014 231 986 q 507 1042 407 1042 q 710 1001 628 1042 q 840 892 792 961 q 910 731 889 822 q 931 538 931 639 q 923 410 931 475 q 897 283 915 344 q 850 167 879 221 q 778 72 821 113 q 819 30 799 50 q 863 -6 840 10 q 913 -31 886 -22 q 972 -40 940 -40 q 990 -40 983 -40 q 1006 -37 997 -39 q 963 -133 993 -108 q 885 -157 933 -157 q 808 -142 840 -157 q 750 -104 775 -128 q 707 -51 725 -81 q 674 11 689 -21 q 556 -8 619 -8 q 428 14 489 -8 q 322 88 368 36 q 248 223 275 139 q 221 432 221 307 q 233 593 221 507 q 274 752 244 679 q 351 874 303 825 q 472 922 400 922 q 506 920 488 922 q 543 911 524 918 m 521 167 q 486 163 504 167 q 527 125 506 135 q 568 115 549 115 q 607 125 589 115 q 569 156 590 144 q 521 167 549 167 z "},"R":{"ha":908,"x_min":25,"x_max":908,"o":"m 496 911 l 496 590 l 507 590 q 572 608 543 590 q 619 654 600 625 q 649 720 639 683 q 658 796 658 757 q 651 854 658 822 q 623 913 644 886 q 560 959 601 940 q 451 978 519 978 q 334 960 388 978 q 242 906 281 942 q 181 819 203 871 q 158 699 158 767 q 165 633 158 660 q 179 588 171 606 q 195 561 188 571 q 206 546 203 551 q 74 585 122 546 q 25 707 25 624 q 57 835 25 775 q 147 942 89 896 q 287 1015 206 988 q 467 1042 368 1042 q 604 1025 542 1042 q 712 976 667 1008 q 782 897 757 944 q 807 790 807 850 q 780 674 807 729 q 700 582 753 618 q 802 513 768 565 q 836 358 836 460 q 835 310 836 339 q 833 253 833 282 q 831 197 832 224 q 829 154 829 171 q 851 50 829 86 q 908 0 872 14 q 833 -18 867 -12 q 774 -24 800 -24 q 674 13 706 -24 q 642 131 642 50 q 643 179 642 150 q 647 240 644 208 q 650 303 649 272 q 651 360 651 335 q 628 483 651 436 q 542 529 606 529 q 496 524 518 529 l 496 0 l 296 0 l 296 883 l 496 911 z "},"S":{"ha":735,"x_min":46,"x_max":722,"o":"m 633 867 q 610 781 633 814 q 544 749 588 749 q 475 778 506 749 q 505 818 494 792 q 515 872 515 844 q 488 943 515 915 q 403 971 460 971 q 313 936 340 971 q 285 843 285 901 q 317 732 285 775 q 399 655 350 689 q 503 590 447 621 q 608 518 560 560 q 690 417 657 476 q 722 267 722 358 q 697 133 722 189 q 626 42 671 78 q 521 -9 582 7 q 388 -25 460 -25 q 262 -12 324 -25 q 152 31 200 1 q 75 110 104 61 q 46 231 46 160 q 59 317 46 278 q 95 382 72 356 q 149 423 118 408 q 213 438 179 438 q 249 433 229 438 q 288 419 268 429 q 324 390 307 408 q 350 346 340 372 q 300 340 325 346 q 255 321 275 335 q 222 283 235 307 q 210 221 210 258 q 254 117 210 149 q 365 86 299 86 q 468 118 432 86 q 504 228 504 150 q 474 350 504 300 q 399 438 444 400 q 301 508 353 475 q 203 578 249 540 q 127 668 157 617 q 97 794 97 719 q 178 978 97 915 q 397 1042 258 1042 q 456 1038 417 1042 q 535 1017 496 1035 q 604 965 575 1000 q 633 867 633 929 z "},"Ś":{"ha":735,"x_min":46,"x_max":722,"o":"m 633 867 q 610 781 633 814 q 544 749 588 749 q 475 778 506 749 q 505 818 494 792 q 515 872 515 844 q 488 943 515 915 q 403 971 460 971 q 313 936 340 971 q 285 843 285 901 q 317 732 285 775 q 399 655 350 689 q 503 590 447 621 q 608 518 560 560 q 690 417 657 476 q 722 267 722 358 q 697 133 722 189 q 626 42 671 78 q 521 -9 582 7 q 388 -25 460 -25 q 262 -12 324 -25 q 152 31 200 1 q 75 110 104 61 q 46 231 46 160 q 59 317 46 278 q 95 382 72 356 q 149 423 118 408 q 213 438 179 438 q 249 433 229 438 q 288 419 268 429 q 324 390 307 408 q 350 346 340 372 q 300 340 325 346 q 255 321 275 335 q 222 283 235 307 q 210 221 210 258 q 254 117 210 149 q 365 86 299 86 q 468 118 432 86 q 504 228 504 150 q 474 350 504 300 q 399 438 444 400 q 301 508 353 475 q 203 578 249 540 q 127 668 157 617 q 97 794 97 719 q 178 978 97 915 q 397 1042 258 1042 q 456 1038 417 1042 q 535 1017 496 1035 q 604 965 575 1000 q 633 867 633 929 m 393 1389 l 539 1389 l 426 1126 l 322 1126 l 393 1389 z "},"Š":{"ha":735,"x_min":46,"x_max":722,"o":"m 633 867 q 610 781 633 814 q 544 749 588 749 q 475 778 506 749 q 505 818 494 792 q 515 872 515 844 q 488 943 515 915 q 403 971 460 971 q 313 936 340 971 q 285 843 285 901 q 317 732 285 775 q 399 655 350 689 q 503 590 447 621 q 608 518 560 560 q 690 417 657 476 q 722 267 722 358 q 697 133 722 189 q 626 42 671 78 q 521 -9 582 7 q 388 -25 460 -25 q 262 -12 324 -25 q 152 31 200 1 q 75 110 104 61 q 46 231 46 160 q 59 317 46 278 q 95 382 72 356 q 149 423 118 408 q 213 438 179 438 q 249 433 229 438 q 288 419 268 429 q 324 390 307 408 q 350 346 340 372 q 300 340 325 346 q 255 321 275 335 q 222 283 235 307 q 210 221 210 258 q 254 117 210 149 q 365 86 299 86 q 468 118 432 86 q 504 228 504 150 q 474 350 504 300 q 399 438 444 400 q 301 508 353 475 q 203 578 249 540 q 127 668 157 617 q 97 794 97 719 q 178 978 97 915 q 397 1042 258 1042 q 456 1038 417 1042 q 535 1017 496 1035 q 604 965 575 1000 q 633 867 633 929 m 279 1389 l 386 1278 l 581 1389 l 642 1389 l 403 1126 l 374 1126 l 235 1389 l 279 1389 z "},"T":{"ha":933,"x_min":28,"x_max":956,"o":"m 808 861 q 708 870 764 861 q 593 892 653 879 l 593 0 l 392 0 l 392 919 l 378 919 q 274 905 315 919 q 207 863 232 890 q 172 796 182 836 q 163 706 163 756 q 169 632 163 660 q 183 587 175 604 q 200 560 192 569 q 214 544 208 551 q 77 585 126 544 q 28 731 28 626 q 50 853 28 796 q 122 951 72 910 q 249 1017 171 993 q 442 1040 328 1040 q 542 1035 497 1040 q 627 1024 588 1031 q 706 1013 667 1018 q 788 1008 744 1008 q 885 1017 846 1008 q 951 1038 925 1026 q 956 989 956 1010 q 922 894 956 926 q 808 861 888 861 z "},"Þ":{"ha":839,"x_min":26,"x_max":835,"o":"m 467 1042 l 467 888 q 628 854 560 883 q 743 780 697 825 q 812 677 789 735 q 835 560 835 619 q 814 444 835 501 q 752 342 793 388 q 649 270 711 297 q 506 243 588 243 l 467 243 l 467 0 l 265 0 l 265 776 q 185 688 213 743 q 158 560 158 633 q 165 481 158 510 q 181 435 172 451 q 197 410 189 418 q 208 393 206 401 q 72 433 117 393 q 26 564 26 474 q 44 653 26 610 q 94 733 63 696 q 170 801 126 771 q 265 853 214 832 l 265 1014 l 467 1042 m 485 294 q 567 319 531 294 q 627 384 603 344 q 664 474 651 424 q 676 574 676 524 q 664 666 676 621 q 626 745 651 711 q 560 801 600 779 q 467 825 521 822 l 467 294 l 485 294 z "},"U":{"ha":1071,"x_min":24,"x_max":1008,"o":"m 1008 1039 l 1008 292 q 980 160 1008 217 q 904 65 951 103 q 798 9 857 28 q 676 -10 739 -10 q 554 9 614 -10 q 448 65 494 28 q 373 160 401 103 q 344 292 344 217 l 344 961 q 205 869 254 935 q 156 708 156 804 q 161 639 156 667 q 174 594 167 611 q 190 565 182 576 q 204 546 199 554 q 72 584 121 546 q 24 713 24 622 q 59 839 24 779 q 156 944 94 899 q 300 1015 218 989 q 475 1042 382 1042 q 507 1040 493 1042 q 543 1035 521 1039 l 543 278 q 554 212 543 240 q 584 165 565 183 q 627 136 603 146 q 676 126 651 126 q 726 136 701 126 q 769 165 750 146 q 799 212 788 183 q 811 278 811 240 l 811 1039 l 1008 1039 z "},"Ú":{"ha":1071,"x_min":24,"x_max":1008,"o":"m 1008 1039 l 1008 292 q 980 160 1008 217 q 904 65 951 103 q 798 9 857 28 q 676 -10 739 -10 q 554 9 614 -10 q 448 65 494 28 q 373 160 401 103 q 344 292 344 217 l 344 961 q 205 869 254 935 q 156 708 156 804 q 161 639 156 667 q 174 594 167 611 q 190 565 182 576 q 204 546 199 554 q 72 584 121 546 q 24 713 24 622 q 59 839 24 779 q 156 944 94 899 q 300 1015 218 989 q 475 1042 382 1042 q 507 1040 493 1042 q 543 1035 521 1039 l 543 278 q 554 212 543 240 q 584 165 565 183 q 627 136 603 146 q 676 126 651 126 q 726 136 701 126 q 769 165 750 146 q 799 212 788 183 q 811 278 811 240 l 811 1039 l 1008 1039 m 665 1389 l 811 1389 l 699 1126 l 594 1126 l 665 1389 z "},"Û":{"ha":1071,"x_min":24,"x_max":1008,"o":"m 1008 1039 l 1008 292 q 980 160 1008 217 q 904 65 951 103 q 798 9 857 28 q 676 -10 739 -10 q 554 9 614 -10 q 448 65 494 28 q 373 160 401 103 q 344 292 344 217 l 344 961 q 205 869 254 935 q 156 708 156 804 q 161 639 156 667 q 174 594 167 611 q 190 565 182 576 q 204 546 199 554 q 72 584 121 546 q 24 713 24 622 q 59 839 24 779 q 156 944 94 899 q 300 1015 218 989 q 475 1042 382 1042 q 507 1040 493 1042 q 543 1035 521 1039 l 543 278 q 554 212 543 240 q 584 165 565 183 q 627 136 603 146 q 676 126 651 126 q 726 136 701 126 q 769 165 750 146 q 799 212 788 183 q 811 278 811 240 l 811 1039 l 1008 1039 m 804 1126 l 697 1238 l 503 1126 l 442 1126 l 681 1389 l 710 1389 l 849 1126 l 804 1126 z "},"Ü":{"ha":1071,"x_min":24,"x_max":1008,"o":"m 1008 1039 l 1008 292 q 980 160 1008 217 q 904 65 951 103 q 798 9 857 28 q 676 -10 739 -10 q 554 9 614 -10 q 448 65 494 28 q 373 160 401 103 q 344 292 344 217 l 344 961 q 205 869 254 935 q 156 708 156 804 q 161 639 156 667 q 174 594 167 611 q 190 565 182 576 q 204 546 199 554 q 72 584 121 546 q 24 713 24 622 q 59 839 24 779 q 156 944 94 899 q 300 1015 218 989 q 475 1042 382 1042 q 507 1040 493 1042 q 543 1035 521 1039 l 543 278 q 554 212 543 240 q 584 165 565 183 q 627 136 603 146 q 676 126 651 126 q 726 136 701 126 q 769 165 750 146 q 799 212 788 183 q 811 278 811 240 l 811 1039 l 1008 1039 m 714 1228 q 738 1288 714 1263 q 799 1313 763 1313 q 858 1288 833 1313 q 883 1228 883 1263 q 858 1167 883 1192 q 799 1143 833 1143 q 738 1167 763 1143 q 714 1228 714 1192 m 464 1228 q 488 1288 464 1263 q 549 1313 513 1313 q 608 1288 583 1313 q 633 1228 633 1263 q 608 1167 633 1192 q 549 1143 583 1143 q 488 1167 513 1143 q 464 1228 464 1192 z "},"Ù":{"ha":1071,"x_min":24,"x_max":1008,"o":"m 1008 1039 l 1008 292 q 980 160 1008 217 q 904 65 951 103 q 798 9 857 28 q 676 -10 739 -10 q 554 9 614 -10 q 448 65 494 28 q 373 160 401 103 q 344 292 344 217 l 344 961 q 205 869 254 935 q 156 708 156 804 q 161 639 156 667 q 174 594 167 611 q 190 565 182 576 q 204 546 199 554 q 72 584 121 546 q 24 713 24 622 q 59 839 24 779 q 156 944 94 899 q 300 1015 218 989 q 475 1042 382 1042 q 507 1040 493 1042 q 543 1035 521 1039 l 543 278 q 554 212 543 240 q 584 165 565 183 q 627 136 603 146 q 676 126 651 126 q 726 136 701 126 q 769 165 750 146 q 799 212 788 183 q 811 278 811 240 l 811 1039 l 1008 1039 m 490 1389 l 636 1389 l 732 1126 l 628 1126 l 490 1389 z "},"Ű":{"ha":1071,"x_min":24,"x_max":1008,"o":"m 1008 1039 l 1008 292 q 980 160 1008 217 q 904 65 951 103 q 798 9 857 28 q 676 -10 739 -10 q 554 9 614 -10 q 448 65 494 28 q 373 160 401 103 q 344 292 344 217 l 344 961 q 205 869 254 935 q 156 708 156 804 q 161 639 156 667 q 174 594 167 611 q 190 565 182 576 q 204 546 199 554 q 72 584 121 546 q 24 713 24 622 q 59 839 24 779 q 156 944 94 899 q 300 1015 218 989 q 475 1042 382 1042 q 507 1040 493 1042 q 543 1035 521 1039 l 543 278 q 554 212 543 240 q 584 165 565 183 q 627 136 603 146 q 676 126 651 126 q 726 136 701 126 q 769 165 750 146 q 799 212 788 183 q 811 278 811 240 l 811 1039 l 1008 1039 m 800 1389 l 932 1389 l 819 1126 l 729 1126 l 800 1389 m 619 1389 l 751 1389 l 639 1126 l 549 1126 l 619 1389 z "},"V":{"ha":990,"x_min":24,"x_max":997,"o":"m 711 185 l 894 1035 l 997 1035 l 764 0 l 558 0 l 307 949 q 194 857 233 919 q 156 708 156 794 q 162 639 156 667 q 176 593 168 611 q 192 565 183 575 q 204 546 200 554 q 72 584 121 546 q 24 714 24 622 q 58 840 24 781 q 151 944 93 899 q 283 1015 208 989 q 436 1042 357 1042 q 466 1041 451 1042 q 494 1039 481 1040 l 711 185 z "},"W":{"ha":1401,"x_min":24,"x_max":1386,"o":"m 661 185 l 799 1035 l 975 1035 l 1142 185 l 1279 1035 l 1386 1035 l 1193 0 l 983 0 l 844 707 l 703 0 l 503 0 l 307 949 q 194 856 232 918 q 156 703 156 794 q 163 634 156 661 q 178 589 169 607 q 194 561 186 571 q 204 546 201 551 q 72 585 121 546 q 24 707 24 624 q 58 839 24 778 q 151 945 93 900 q 283 1016 208 990 q 436 1042 357 1042 q 466 1041 451 1042 q 494 1039 481 1040 l 661 185 z "},"X":{"ha":901,"x_min":25,"x_max":904,"o":"m 683 0 l 533 378 l 349 0 l 258 0 l 488 494 l 308 949 q 196 857 235 919 q 157 708 157 794 q 163 637 157 664 q 177 592 169 610 q 193 564 185 574 q 206 546 201 554 q 74 584 122 546 q 25 714 25 622 q 60 840 25 781 q 152 944 94 899 q 284 1015 210 989 q 438 1042 358 1042 q 467 1041 453 1042 q 496 1039 482 1040 l 647 651 l 811 1035 l 901 1035 l 693 533 l 904 0 l 683 0 z "},"Y":{"ha":901,"x_min":24,"x_max":918,"o":"m 517 0 l 517 428 l 307 949 q 194 857 233 919 q 156 708 156 794 q 162 637 156 664 q 176 592 168 610 q 192 564 183 574 q 204 546 200 554 q 72 584 121 546 q 24 714 24 622 q 58 840 24 781 q 151 944 93 899 q 283 1015 208 989 q 436 1042 357 1042 q 466 1041 451 1042 q 494 1039 481 1040 l 693 540 l 826 1035 l 918 1035 l 739 428 l 739 0 l 517 0 z "},"Ý":{"ha":901,"x_min":24,"x_max":918,"o":"m 517 0 l 517 428 l 307 949 q 194 857 233 919 q 156 708 156 794 q 162 637 156 664 q 176 592 168 610 q 192 564 183 574 q 204 546 200 554 q 72 584 121 546 q 24 714 24 622 q 58 840 24 781 q 151 944 93 899 q 283 1015 208 989 q 436 1042 357 1042 q 466 1041 451 1042 q 494 1039 481 1040 l 693 540 l 826 1035 l 918 1035 l 739 428 l 739 0 l 517 0 m 668 1389 l 814 1389 l 701 1126 l 597 1126 l 668 1389 z "},"Ÿ":{"ha":901,"x_min":24,"x_max":918,"o":"m 517 0 l 517 428 l 307 949 q 194 857 233 919 q 156 708 156 794 q 162 637 156 664 q 176 592 168 610 q 192 564 183 574 q 204 546 200 554 q 72 584 121 546 q 24 714 24 622 q 58 840 24 781 q 151 944 93 899 q 283 1015 208 989 q 436 1042 357 1042 q 466 1041 451 1042 q 494 1039 481 1040 l 693 540 l 826 1035 l 918 1035 l 739 428 l 739 0 l 517 0 m 714 1228 q 738 1288 714 1263 q 799 1313 763 1313 q 858 1288 833 1313 q 883 1228 883 1263 q 858 1167 883 1192 q 799 1143 833 1143 q 738 1167 763 1143 q 714 1228 714 1192 m 464 1228 q 488 1288 464 1263 q 549 1313 513 1313 q 608 1288 583 1313 q 633 1228 633 1263 q 608 1167 633 1192 q 549 1143 583 1143 q 488 1167 513 1143 q 464 1228 464 1192 z "},"Z":{"ha":772,"x_min":25,"x_max":776,"o":"m 653 118 q 630 131 643 118 q 617 178 617 143 q 638 227 617 213 q 685 242 660 242 q 726 232 708 242 q 754 208 743 222 q 771 175 765 193 q 776 140 776 157 q 767 90 776 115 q 740 45 758 65 q 694 13 721 25 q 629 0 667 0 l 72 0 l 464 967 q 428 967 453 967 q 374 968 403 968 q 316 969 344 968 q 269 969 288 969 q 185 964 222 969 q 149 942 149 958 q 173 920 165 935 q 181 888 181 906 q 165 838 181 861 q 117 815 149 815 q 74 825 92 815 q 46 850 57 835 q 30 883 35 865 q 25 918 25 901 q 33 964 25 942 q 60 1003 42 986 q 105 1031 78 1021 q 168 1042 132 1042 l 714 1042 l 325 90 q 389 89 353 90 q 460 88 425 88 q 516 89 485 88 q 576 94 547 90 q 627 103 606 97 q 653 118 649 108 z "},"Ź":{"ha":772,"x_min":25,"x_max":776,"o":"m 653 118 q 630 131 643 118 q 617 178 617 143 q 638 227 617 213 q 685 242 660 242 q 726 232 708 242 q 754 208 743 222 q 771 175 765 193 q 776 140 776 157 q 767 90 776 115 q 740 45 758 65 q 694 13 721 25 q 629 0 667 0 l 72 0 l 464 967 q 428 967 453 967 q 374 968 403 968 q 316 969 344 968 q 269 969 288 969 q 185 964 222 969 q 149 942 149 958 q 173 920 165 935 q 181 888 181 906 q 165 838 181 861 q 117 815 149 815 q 74 825 92 815 q 46 850 57 835 q 30 883 35 865 q 25 918 25 901 q 33 964 25 942 q 60 1003 42 986 q 105 1031 78 1021 q 168 1042 132 1042 l 714 1042 l 325 90 q 389 89 353 90 q 460 88 425 88 q 516 89 485 88 q 576 94 547 90 q 627 103 606 97 q 653 118 649 108 m 438 1389 l 583 1389 l 471 1126 l 367 1126 l 438 1389 z "},"Ž":{"ha":772,"x_min":25,"x_max":776,"o":"m 653 118 q 630 131 643 118 q 617 178 617 143 q 638 227 617 213 q 685 242 660 242 q 726 232 708 242 q 754 208 743 222 q 771 175 765 193 q 776 140 776 157 q 767 90 776 115 q 740 45 758 65 q 694 13 721 25 q 629 0 667 0 l 72 0 l 464 967 q 428 967 453 967 q 374 968 403 968 q 316 969 344 968 q 269 969 288 969 q 185 964 222 969 q 149 942 149 958 q 173 920 165 935 q 181 888 181 906 q 165 838 181 861 q 117 815 149 815 q 74 825 92 815 q 46 850 57 835 q 30 883 35 865 q 25 918 25 901 q 33 964 25 942 q 60 1003 42 986 q 105 1031 78 1021 q 168 1042 132 1042 l 714 1042 l 325 90 q 389 89 353 90 q 460 88 425 88 q 516 89 485 88 q 576 94 547 90 q 627 103 606 97 q 653 118 649 108 m 301 1389 l 408 1278 l 603 1389 l 664 1389 l 425 1126 l 396 1126 l 257 1389 l 301 1389 z "},"Ż":{"ha":772,"x_min":25,"x_max":776,"o":"m 297 1226 q 323 1289 297 1263 q 385 1315 349 1315 q 447 1289 421 1315 q 474 1226 474 1263 q 447 1165 474 1190 q 385 1139 421 1139 q 323 1165 349 1139 q 297 1226 297 1190 m 653 118 q 630 131 643 118 q 617 178 617 143 q 638 227 617 213 q 685 242 660 242 q 726 232 708 242 q 754 208 743 222 q 771 175 765 193 q 776 140 776 157 q 767 90 776 115 q 740 45 758 65 q 694 13 721 25 q 629 0 667 0 l 72 0 l 464 967 q 428 967 453 967 q 374 968 403 968 q 316 969 344 968 q 269 969 288 969 q 185 964 222 969 q 149 942 149 958 q 173 920 165 935 q 181 888 181 906 q 165 838 181 861 q 117 815 149 815 q 74 825 92 815 q 46 850 57 835 q 30 883 35 865 q 25 918 25 901 q 33 964 25 942 q 60 1003 42 986 q 105 1031 78 1021 q 168 1042 132 1042 l 714 1042 l 325 90 q 389 89 353 90 q 460 88 425 88 q 516 89 485 88 q 576 94 547 90 q 627 103 606 97 q 653 118 649 108 z "},"a":{"ha":731,"x_min":42,"x_max":867,"o":"m 638 694 l 638 222 q 653 145 638 164 q 710 126 669 126 q 777 161 750 126 q 808 249 804 196 l 867 249 q 828 113 856 164 q 765 35 800 63 q 694 0 731 8 q 631 -8 658 -8 q 519 26 557 -8 q 465 119 481 60 q 439 73 454 96 q 402 32 424 50 q 352 3 381 14 q 286 -8 324 -8 q 199 8 242 -8 q 120 63 156 25 q 63 162 85 100 q 42 314 42 224 q 56 446 42 378 q 102 571 71 514 q 184 665 133 628 q 307 701 235 701 q 343 699 324 701 q 381 690 363 697 q 414 667 399 682 q 438 628 429 653 l 438 694 l 638 694 m 438 561 q 432 576 436 567 q 419 594 428 585 q 399 609 411 603 q 369 615 386 615 q 312 587 336 615 q 273 516 288 558 q 251 423 258 474 q 244 326 244 372 q 256 212 244 253 q 283 152 267 171 q 317 130 299 133 q 347 126 335 126 q 378 134 363 126 q 408 157 394 142 q 429 195 421 172 q 438 249 438 218 l 438 561 z "},"á":{"ha":731,"x_min":42,"x_max":867,"o":"m 638 694 l 638 222 q 653 145 638 164 q 710 126 669 126 q 777 161 750 126 q 808 249 804 196 l 867 249 q 828 113 856 164 q 765 35 800 63 q 694 0 731 8 q 631 -8 658 -8 q 519 26 557 -8 q 465 119 481 60 q 439 73 454 96 q 402 32 424 50 q 352 3 381 14 q 286 -8 324 -8 q 199 8 242 -8 q 120 63 156 25 q 63 162 85 100 q 42 314 42 224 q 56 446 42 378 q 102 571 71 514 q 184 665 133 628 q 307 701 235 701 q 343 699 324 701 q 381 690 363 697 q 414 667 399 682 q 438 628 429 653 l 438 694 l 638 694 m 369 615 q 312 587 336 615 q 273 516 288 558 q 251 423 258 474 q 244 326 244 372 q 256 212 244 253 q 283 152 267 171 q 317 130 299 133 q 347 126 335 126 q 378 134 363 126 q 408 157 394 142 q 429 195 421 172 q 438 249 438 218 l 438 563 q 431 577 435 568 q 418 594 426 586 q 398 609 410 603 q 369 615 386 615 m 378 1042 l 524 1042 l 411 779 l 307 779 l 378 1042 z "},"â":{"ha":731,"x_min":42,"x_max":867,"o":"m 638 694 l 638 222 q 653 145 638 164 q 710 126 669 126 q 777 161 750 126 q 808 249 804 196 l 867 249 q 828 113 856 164 q 765 35 800 63 q 694 0 731 8 q 631 -8 658 -8 q 519 26 557 -8 q 465 119 481 60 q 439 73 454 96 q 402 32 424 50 q 352 3 381 14 q 286 -8 324 -8 q 199 8 242 -8 q 120 63 156 25 q 63 162 85 100 q 42 314 42 224 q 56 446 42 378 q 102 571 71 514 q 184 665 133 628 q 307 701 235 701 q 343 699 324 701 q 381 690 363 697 q 414 667 399 682 q 438 628 429 653 l 438 694 l 638 694 m 369 615 q 312 587 336 615 q 273 516 288 558 q 251 423 258 474 q 244 326 244 372 q 256 212 244 253 q 283 152 267 171 q 317 130 299 133 q 347 126 335 126 q 378 134 363 126 q 408 157 394 142 q 429 194 421 172 q 438 247 438 217 l 438 563 q 431 577 435 568 q 418 594 426 586 q 398 609 410 603 q 369 615 386 615 m 547 779 l 440 890 l 246 779 l 185 779 l 424 1042 l 453 1042 l 592 779 l 547 779 z "},"´":{"ha":439,"x_min":1,"x_max":218,"o":"m 72 1042 l 218 1042 l 106 779 l 1 779 l 72 1042 z "},"ä":{"ha":731,"x_min":42,"x_max":867,"o":"m 638 694 l 638 222 q 653 145 638 164 q 710 126 669 126 q 777 161 750 126 q 808 249 804 196 l 867 249 q 828 113 856 164 q 765 35 800 63 q 694 0 731 8 q 631 -8 658 -8 q 519 26 557 -8 q 465 119 481 60 q 439 73 454 96 q 402 32 424 50 q 352 3 381 14 q 286 -8 324 -8 q 199 8 242 -8 q 120 63 156 25 q 63 162 85 100 q 42 314 42 224 q 56 446 42 378 q 102 571 71 514 q 184 665 133 628 q 307 701 235 701 q 343 699 324 701 q 381 690 363 697 q 414 667 399 682 q 438 628 429 653 l 438 694 l 638 694 m 438 561 q 432 576 436 567 q 419 594 428 585 q 399 609 411 603 q 369 615 386 615 q 312 587 336 615 q 273 516 288 558 q 251 423 258 474 q 244 326 244 372 q 256 212 244 253 q 283 152 267 171 q 317 130 299 133 q 347 126 335 126 q 378 134 363 126 q 408 157 394 142 q 429 195 421 172 q 438 249 438 218 l 438 561 m 201 881 q 226 940 201 915 q 286 965 250 965 q 346 940 321 965 q 371 881 371 915 q 346 820 371 844 q 286 796 321 796 q 226 820 250 796 q 201 881 201 844 m 451 881 q 476 940 451 915 q 536 965 500 965 q 596 940 571 965 q 621 881 621 915 q 596 820 621 844 q 536 796 571 796 q 476 820 500 796 q 451 881 451 844 z "},"æ":{"ha":897,"x_min":64,"x_max":1015,"o":"m 285 -8 q 210 1 249 -8 q 138 37 171 11 q 85 106 106 63 q 64 219 64 150 q 84 305 64 269 q 140 362 104 340 q 224 393 175 383 q 329 403 272 403 q 372 401 354 403 q 403 397 390 400 q 409 435 407 414 q 411 476 411 457 q 383 578 411 538 q 300 618 354 618 q 204 599 238 618 q 146 553 171 581 l 99 593 q 158 654 129 632 q 215 687 186 676 q 272 699 243 697 q 329 701 300 701 q 431 688 382 701 q 521 646 479 675 q 596 690 553 674 q 696 707 639 707 q 835 661 789 707 q 882 529 882 615 q 861 435 882 479 q 805 358 840 392 q 722 304 769 325 q 618 281 674 283 q 621 258 619 269 q 625 236 622 247 q 669 133 642 158 q 735 108 697 108 q 819 118 785 108 q 880 147 854 128 q 926 191 906 165 q 968 249 946 217 l 1015 249 q 969 156 996 201 q 902 75 942 111 q 810 17 863 39 q 686 -6 757 -6 q 549 24 610 -6 q 454 125 489 54 q 434 74 446 99 q 403 32 422 50 q 355 3 383 14 q 285 -8 326 -8 m 774 538 q 758 613 774 593 q 722 633 742 633 q 675 608 694 633 q 642 540 656 582 q 621 448 628 499 q 614 347 614 397 q 678 366 649 349 q 728 409 707 383 q 762 468 750 435 q 774 538 774 501 m 386 318 q 292 290 326 318 q 258 217 258 263 q 268 167 258 185 q 292 140 278 150 q 319 128 306 131 q 340 126 333 126 q 370 135 357 126 q 392 165 383 143 q 406 223 401 186 q 411 317 411 260 q 399 318 404 318 q 386 318 393 318 z "},"à":{"ha":731,"x_min":42,"x_max":867,"o":"m 638 694 l 638 222 q 653 145 638 164 q 710 126 669 126 q 777 161 750 126 q 808 249 804 196 l 867 249 q 828 113 856 164 q 765 35 800 63 q 694 0 731 8 q 631 -8 658 -8 q 519 26 557 -8 q 465 119 481 60 q 439 73 454 96 q 402 32 424 50 q 352 3 381 14 q 286 -8 324 -8 q 199 8 242 -8 q 120 63 156 25 q 63 162 85 100 q 42 314 42 224 q 56 446 42 378 q 102 571 71 514 q 184 665 133 628 q 307 701 235 701 q 343 699 324 701 q 381 690 363 697 q 414 667 399 682 q 438 628 429 653 l 438 694 l 638 694 m 369 615 q 312 587 336 615 q 273 516 288 558 q 251 423 258 474 q 244 326 244 372 q 256 212 244 253 q 283 152 267 171 q 317 130 299 133 q 347 126 335 126 q 378 134 363 126 q 408 157 394 142 q 429 194 421 172 q 438 247 438 217 l 438 563 q 431 577 435 568 q 418 594 426 586 q 398 609 410 603 q 369 615 386 615 m 197 1042 l 343 1042 l 439 779 l 335 779 l 197 1042 z "},"&":{"ha":931,"x_min":50,"x_max":922,"o":"m 919 574 q 922 551 922 560 q 909 496 922 524 q 872 444 896 468 q 817 403 849 421 q 746 381 785 386 q 717 222 744 296 q 642 94 690 149 q 523 7 593 39 q 365 -25 453 -25 q 227 1 286 -25 q 128 69 168 26 q 69 168 89 113 q 50 282 50 224 q 62 377 50 329 q 97 466 74 425 q 156 537 121 507 q 239 579 192 567 q 142 675 172 621 q 113 790 113 729 q 129 883 113 838 q 178 965 146 929 q 257 1022 211 1000 q 361 1044 303 1044 q 469 1028 425 1044 q 542 985 514 1011 q 582 925 569 958 q 594 858 594 892 q 590 812 594 835 q 575 771 585 789 q 551 742 565 753 q 519 732 538 732 q 489 738 504 732 q 456 764 474 744 q 483 802 475 775 q 492 860 492 829 q 482 915 492 893 q 458 947 472 936 q 426 963 443 958 q 392 967 408 967 q 347 953 367 967 q 314 918 328 940 q 293 867 300 896 q 286 808 286 839 q 297 737 286 772 q 331 671 308 701 q 388 617 353 640 q 471 581 422 593 q 392 541 426 569 q 334 473 357 513 q 299 388 311 433 q 288 299 288 342 q 297 226 288 261 q 327 165 307 192 q 379 124 347 139 q 456 108 411 108 q 628 174 572 108 q 697 378 685 240 q 640 383 668 379 q 586 386 613 386 q 469 324 494 386 l 460 325 q 520 466 463 411 q 686 521 578 521 q 741 517 715 521 q 793 514 767 514 q 866 528 832 514 q 911 574 900 542 l 919 574 z "},"ą":{"ha":731,"x_min":42,"x_max":854,"o":"m 638 694 l 638 222 q 653 144 638 171 q 711 118 668 118 q 771 157 751 118 q 796 249 790 196 l 854 249 q 831 151 846 192 q 796 81 815 110 q 755 35 776 53 q 711 7 733 18 q 675 -33 693 -3 q 657 -99 657 -62 q 662 -128 657 -112 q 676 -156 667 -143 q 698 -178 685 -169 q 728 -186 711 -186 q 774 -169 753 -186 q 813 -139 794 -153 q 815 -160 814 -151 q 819 -182 817 -169 q 797 -209 808 -194 q 769 -237 785 -224 q 733 -259 753 -250 q 686 -268 713 -268 q 628 -256 653 -268 q 585 -224 603 -243 q 559 -183 568 -206 q 550 -139 550 -160 q 565 -74 550 -108 q 610 -7 581 -39 q 519 29 557 -1 q 465 118 482 60 q 439 72 454 94 q 401 31 424 49 q 351 2 379 13 q 286 -8 322 -8 q 199 8 242 -8 q 120 63 156 25 q 63 162 85 100 q 42 314 42 224 q 56 446 42 378 q 102 571 71 514 q 184 665 133 628 q 307 701 235 701 q 402 677 374 701 q 438 622 431 653 l 438 694 l 638 694 m 369 615 q 312 587 336 615 q 273 516 288 558 q 251 423 258 474 q 244 326 244 372 q 256 212 244 253 q 283 152 267 171 q 317 130 299 133 q 347 126 335 126 q 378 134 363 126 q 408 157 394 142 q 429 195 421 172 q 438 249 438 218 l 438 567 q 417 598 432 581 q 369 615 401 615 z "},"å":{"ha":731,"x_min":42,"x_max":867,"o":"m 638 694 l 638 222 q 653 145 638 164 q 710 126 669 126 q 777 161 750 126 q 808 249 804 196 l 867 249 q 828 113 856 164 q 765 35 800 63 q 694 0 731 8 q 631 -8 658 -8 q 519 26 557 -8 q 465 119 481 60 q 439 73 454 96 q 402 32 424 50 q 352 3 381 14 q 286 -8 324 -8 q 199 8 242 -8 q 120 63 156 25 q 63 162 85 100 q 42 314 42 224 q 56 446 42 378 q 102 571 71 514 q 184 665 133 628 q 307 701 235 701 q 343 699 324 701 q 381 690 363 697 q 414 667 399 682 q 438 628 429 653 l 438 694 l 638 694 m 438 561 q 432 576 436 567 q 419 594 428 585 q 399 609 411 603 q 369 615 386 615 q 312 587 336 615 q 273 516 288 558 q 251 423 258 474 q 244 326 244 372 q 256 212 244 253 q 283 152 267 171 q 317 130 299 133 q 347 126 335 126 q 378 134 363 126 q 408 157 394 142 q 429 195 421 172 q 438 249 438 218 l 438 561 m 390 990 q 440 981 419 990 q 472 956 460 971 q 489 921 483 940 q 494 882 494 901 q 468 802 494 838 q 386 767 442 767 q 303 801 332 767 q 275 879 275 836 q 303 956 275 922 q 390 990 332 990 m 443 878 q 432 924 443 903 q 389 944 421 944 q 348 928 365 944 q 331 879 331 913 q 344 835 331 854 q 389 815 357 815 q 430 832 417 815 q 443 878 443 849 z "},"^":{"ha":585,"x_min":-96,"x_max":311,"o":"m 267 779 l 160 890 l -35 779 l -96 779 l 143 1042 l 172 1042 l 311 779 l 267 779 z "},"~":{"ha":608,"x_min":40,"x_max":572,"o":"m 572 929 q 556 880 571 904 q 514 835 540 856 q 452 803 488 815 q 378 790 417 790 q 312 799 343 790 q 250 816 281 807 q 191 833 219 825 q 133 842 163 842 q 49 806 81 842 l 40 808 q 112 910 60 875 q 243 944 164 944 q 312 938 281 944 q 371 922 343 931 q 425 906 399 913 q 482 899 451 899 q 530 907 508 899 q 563 931 551 915 l 572 929 z "},"*":{"ha":556,"x_min":39,"x_max":513,"o":"m 321 1044 l 321 858 l 463 943 l 511 871 l 361 781 l 513 696 l 478 624 l 321 711 l 321 522 l 231 522 l 231 703 l 97 624 l 49 696 l 194 783 l 39 871 l 74 943 l 231 854 l 231 1044 l 321 1044 z "},"@":{"ha":783,"x_min":47,"x_max":740,"o":"m 331 -53 q 231 -39 282 -53 q 140 8 181 -25 q 73 94 99 40 q 47 228 47 147 q 85 441 47 342 q 187 614 122 540 q 338 731 251 688 q 521 774 424 774 q 591 767 553 774 q 663 737 629 760 q 718 671 696 714 q 740 556 740 628 q 720 422 740 488 q 667 305 700 357 q 591 221 633 253 q 504 189 549 189 q 464 199 479 189 q 442 225 449 210 q 405 183 425 200 q 354 167 385 167 q 294 197 317 167 q 272 289 272 226 q 285 389 272 335 q 321 490 297 443 q 378 569 344 538 q 454 600 411 600 q 488 593 474 600 q 508 576 501 586 l 514 597 l 590 589 l 528 322 q 524 306 525 314 q 522 290 522 297 q 527 269 522 275 q 539 264 532 264 q 574 290 553 264 q 614 358 594 317 q 647 448 633 399 q 660 543 660 497 q 653 601 660 572 q 629 651 646 629 q 585 686 613 672 q 517 700 558 700 q 383 658 443 700 q 278 550 322 615 q 210 406 235 485 q 186 256 186 328 q 195 178 186 214 q 226 116 204 142 q 283 75 247 90 q 371 60 318 60 q 496 87 444 60 q 582 158 547 114 q 608 133 601 150 q 614 99 614 115 q 594 38 614 65 q 537 -10 574 10 q 447 -42 500 -31 q 331 -53 394 -53 m 497 532 q 468 546 486 546 q 422 519 443 546 q 386 456 401 493 q 362 378 371 418 q 353 311 353 338 q 359 270 353 292 q 382 249 365 249 q 405 256 392 249 q 433 275 418 264 q 438 300 433 288 l 497 532 z "},"ã":{"ha":731,"x_min":42,"x_max":867,"o":"m 638 694 l 638 222 q 653 145 638 164 q 710 126 669 126 q 777 161 750 126 q 808 249 804 196 l 867 249 q 828 113 856 164 q 765 35 800 63 q 694 0 731 8 q 631 -8 658 -8 q 519 26 557 -8 q 465 119 481 60 q 439 73 454 96 q 402 32 424 50 q 352 3 381 14 q 286 -8 324 -8 q 199 8 242 -8 q 120 63 156 25 q 63 162 85 100 q 42 314 42 224 q 56 446 42 378 q 102 571 71 514 q 184 665 133 628 q 307 701 235 701 q 343 699 324 701 q 381 690 363 697 q 414 667 399 682 q 438 628 429 653 l 438 694 l 638 694 m 369 615 q 312 587 336 615 q 273 516 288 558 q 251 423 258 474 q 244 326 244 372 q 256 212 244 253 q 283 152 267 171 q 317 130 299 133 q 347 126 335 126 q 378 134 363 126 q 408 157 394 142 q 429 195 421 172 q 438 249 438 218 l 438 563 q 431 577 435 568 q 418 594 426 586 q 398 609 410 603 q 369 615 386 615 m 647 929 q 631 880 646 904 q 589 835 615 856 q 527 803 563 815 q 453 790 492 790 q 387 799 418 790 q 325 816 356 807 q 266 833 294 825 q 208 842 238 842 q 124 806 156 842 l 115 808 q 187 910 135 875 q 318 944 239 944 q 387 938 356 944 q 446 922 418 931 q 500 906 474 913 q 557 899 526 899 q 605 907 583 899 q 638 931 626 915 l 647 929 z "},"b":{"ha":617,"x_min":64,"x_max":599,"o":"m 65 944 l 265 972 l 265 660 q 326 694 303 686 q 374 701 350 701 q 465 680 424 701 q 535 617 506 658 q 582 513 565 575 q 599 372 599 451 q 586 244 599 311 q 540 120 574 176 q 447 28 506 64 q 294 -8 388 -8 q 120 50 176 -8 q 64 207 64 108 l 65 944 m 456 360 q 424 536 456 472 q 338 600 392 600 q 299 594 321 600 q 265 575 276 588 l 265 208 q 285 145 265 164 q 335 126 304 126 q 394 148 371 126 q 431 203 418 169 q 450 278 444 238 q 456 360 456 319 z "},"\\":{"ha":731,"x_min":19,"x_max":710,"o":"m 19 1042 l 119 1042 l 710 -347 l 610 -347 l 19 1042 z "},"|":{"ha":326,"x_min":99,"x_max":228,"o":"m 228 -347 l 99 -347 l 99 1043 l 228 1043 l 228 -347 z "},"{":{"ha":396,"x_min":35,"x_max":363,"o":"m 363 -326 q 323 -335 342 -332 q 281 -337 304 -337 q 197 -324 231 -337 q 143 -288 163 -311 q 115 -234 124 -265 q 107 -167 107 -203 q 116 -72 107 -122 q 136 30 125 -21 q 156 128 147 81 q 165 217 165 176 q 147 290 165 261 q 79 318 129 318 q 35 314 60 318 l 35 392 q 79 388 60 388 q 147 416 129 388 q 165 489 165 444 q 156 576 165 528 q 136 676 147 625 q 116 777 125 726 q 107 872 107 828 q 115 940 107 908 q 143 994 124 971 q 197 1030 163 1017 q 281 1043 231 1043 q 323 1040 304 1043 q 363 1032 342 1038 l 363 957 q 331 961 346 960 q 301 963 317 963 q 218 932 238 963 q 199 844 199 901 q 208 739 199 792 q 228 636 217 686 q 249 542 240 586 q 258 463 258 497 q 248 402 258 428 q 218 353 238 376 q 248 303 238 329 q 258 243 258 278 q 249 164 258 208 q 228 69 240 119 q 208 -34 217 19 q 199 -139 199 -87 q 218 -226 199 -196 q 301 -257 238 -257 q 331 -256 317 -257 q 363 -251 346 -254 l 363 -326 z "},"}":{"ha":396,"x_min":33,"x_max":361,"o":"m 33 -251 q 65 -256 50 -254 q 94 -257 79 -257 q 178 -226 158 -257 q 197 -139 197 -196 q 188 -34 197 -87 q 167 69 179 19 q 147 164 156 119 q 138 243 138 208 q 148 303 138 278 q 178 353 158 329 q 148 402 158 376 q 138 463 138 428 q 147 542 138 497 q 167 636 156 586 q 188 739 179 686 q 197 844 197 792 q 178 932 197 901 q 94 963 158 963 q 65 961 79 963 q 33 957 50 960 l 33 1032 q 73 1040 54 1038 q 115 1043 92 1043 q 199 1030 165 1043 q 253 994 233 1017 q 281 940 272 971 q 289 872 289 908 q 280 777 289 828 q 260 676 271 726 q 240 576 249 625 q 231 489 231 528 q 249 416 231 444 q 317 388 267 388 q 361 392 336 388 l 361 314 q 317 318 336 318 q 249 290 267 318 q 231 217 231 261 q 240 128 231 176 q 260 30 249 81 q 280 -72 271 -21 q 289 -167 289 -122 q 281 -234 289 -203 q 253 -288 272 -265 q 199 -324 233 -311 q 115 -337 165 -337 q 73 -335 92 -337 q 33 -326 54 -332 l 33 -251 z "},"[":{"ha":411,"x_min":99,"x_max":382,"o":"m 382 -347 l 99 -347 l 99 1042 l 381 1042 l 381 956 l 228 956 l 228 -261 l 382 -261 l 382 -347 z "},"]":{"ha":411,"x_min":29,"x_max":313,"o":"m 29 1042 l 313 1042 l 313 -347 l 29 -347 l 29 -261 l 183 -261 l 183 956 l 29 956 l 29 1042 z "},"˘":{"ha":599,"x_min":-112,"x_max":392,"o":"m 392 976 q 370 894 392 929 q 313 836 349 860 q 233 801 278 813 q 140 789 188 789 q 47 801 93 789 q -34 836 1 813 q -91 894 -69 860 q -112 976 -112 929 l -3 976 q 10 922 -3 944 q 42 883 22 899 q 88 859 63 867 q 142 851 114 851 q 194 859 168 851 q 241 883 221 867 q 274 922 261 899 q 286 976 286 944 l 392 976 z "},"¦":{"ha":326,"x_min":99,"x_max":228,"o":"m 228 308 l 228 -347 l 99 -347 l 99 308 l 228 308 m 99 418 l 99 1044 l 228 1044 l 228 418 l 99 418 z "},"•":{"ha":385,"x_min":58,"x_max":326,"o":"m 58 371 q 69 423 58 399 q 97 466 79 447 q 140 495 115 485 q 192 506 164 506 q 244 495 219 506 q 287 466 268 485 q 316 423 306 447 q 326 371 326 399 q 316 319 326 343 q 287 276 306 294 q 244 248 268 258 q 192 238 219 238 q 97 276 136 238 q 58 371 58 315 z "},"c":{"ha":533,"x_min":43,"x_max":646,"o":"m 400 479 q 403 499 403 490 q 404 521 404 507 q 388 603 404 578 q 347 628 372 628 q 299 599 319 628 q 266 527 279 571 q 247 429 253 483 q 240 324 240 375 q 249 217 240 258 q 276 151 258 175 q 322 118 294 128 q 383 108 349 108 q 456 119 425 108 q 513 149 488 131 q 558 194 538 168 q 599 249 579 219 l 646 249 q 599 154 626 200 q 533 72 572 108 q 440 14 493 36 q 315 -8 386 -8 q 207 9 257 -8 q 120 65 157 26 q 63 164 83 103 q 43 311 43 225 q 55 438 43 369 q 99 565 67 507 q 185 663 131 624 q 328 701 240 701 q 417 686 382 701 q 474 648 453 671 q 503 598 494 625 q 511 546 511 571 q 497 486 511 510 q 457 463 482 463 q 431 467 446 463 q 400 479 415 471 z "},"ć":{"ha":533,"x_min":43,"x_max":646,"o":"m 400 479 q 403 499 403 490 q 404 521 404 507 q 388 603 404 578 q 347 628 372 628 q 299 599 319 628 q 266 527 279 571 q 247 429 253 483 q 240 324 240 375 q 249 217 240 258 q 276 151 258 175 q 322 118 294 128 q 383 108 349 108 q 456 119 425 108 q 513 149 488 131 q 558 194 538 168 q 599 249 579 219 l 646 249 q 599 154 626 200 q 533 72 572 108 q 440 14 493 36 q 315 -8 386 -8 q 207 9 257 -8 q 120 65 157 26 q 63 164 83 103 q 43 311 43 225 q 55 438 43 369 q 99 565 67 507 q 185 663 131 624 q 328 701 240 701 q 417 686 382 701 q 474 648 453 671 q 503 598 494 625 q 511 546 511 571 q 497 486 511 510 q 457 463 482 463 q 431 467 446 463 q 400 479 415 471 m 363 1042 l 508 1042 l 396 779 l 292 779 l 363 1042 z "},"ˇ":{"ha":408,"x_min":-82,"x_max":325,"o":"m -37 1042 l 69 931 l 264 1042 l 325 1042 l 86 779 l 57 779 l -82 1042 l -37 1042 z "},"č":{"ha":533,"x_min":43,"x_max":646,"o":"m 400 479 q 403 499 403 490 q 404 521 404 507 q 388 603 404 578 q 347 628 372 628 q 299 599 319 628 q 266 527 279 571 q 247 429 253 483 q 240 324 240 375 q 249 217 240 258 q 276 151 258 175 q 322 118 294 128 q 383 108 349 108 q 456 119 425 108 q 513 149 488 131 q 558 194 538 168 q 599 249 579 219 l 646 249 q 599 154 626 200 q 533 72 572 108 q 440 14 493 36 q 315 -8 386 -8 q 207 9 257 -8 q 120 65 157 26 q 63 164 83 103 q 43 311 43 225 q 55 438 43 369 q 99 565 67 507 q 185 663 131 624 q 328 701 240 701 q 417 686 382 701 q 474 648 453 671 q 503 598 494 625 q 511 546 511 571 q 497 486 511 510 q 457 463 482 463 q 431 467 446 463 q 400 479 415 471 m 228 1042 l 335 931 l 529 1042 l 590 1042 l 351 779 l 322 779 l 183 1042 l 228 1042 z "},"ç":{"ha":533,"x_min":43,"x_max":646,"o":"m 400 479 q 403 499 403 490 q 404 521 404 507 q 388 603 404 578 q 347 628 372 628 q 299 599 319 628 q 266 527 279 571 q 247 429 253 483 q 240 324 240 375 q 249 217 240 258 q 276 151 258 175 q 322 118 294 128 q 383 108 349 108 q 456 119 425 108 q 513 149 488 131 q 558 194 538 168 q 599 249 579 219 l 646 249 q 603 162 628 204 q 545 85 579 119 q 466 26 511 50 q 363 -6 421 1 l 365 8 l 310 40 l 303 -8 q 198 12 246 -7 q 116 69 150 31 q 63 167 82 107 q 43 311 43 226 q 55 438 43 369 q 99 565 67 507 q 185 663 131 624 q 328 701 240 701 q 417 686 382 701 q 474 648 453 671 q 503 598 494 625 q 511 546 511 571 q 497 486 511 510 q 457 463 482 463 q 431 467 446 463 q 400 479 415 471 m 522 -178 q 510 -231 522 -208 q 480 -270 499 -254 q 436 -294 461 -286 q 385 -303 411 -303 q 297 -291 332 -303 q 228 -264 261 -279 q 244 -233 235 -247 q 274 -219 254 -219 q 309 -225 294 -219 q 335 -238 324 -231 q 358 -251 347 -246 q 385 -257 369 -257 q 408 -243 400 -257 q 415 -211 415 -229 q 399 -168 415 -187 q 349 -149 383 -149 q 306 -153 321 -149 q 281 -165 290 -158 l 303 -8 l 315 -8 q 340 -8 328 -8 q 363 -6 351 -7 l 347 -92 q 418 -81 389 -81 q 522 -178 522 -81 z "},"ĉ":{"ha":533,"x_min":43,"x_max":646,"o":"m 400 479 q 403 499 403 490 q 404 521 404 507 q 388 603 404 578 q 347 628 372 628 q 299 599 319 628 q 266 527 279 571 q 247 429 253 483 q 240 324 240 375 q 249 217 240 258 q 276 151 258 175 q 322 118 294 128 q 383 108 349 108 q 456 119 425 108 q 513 149 488 131 q 558 194 538 168 q 599 249 579 219 l 646 249 q 599 154 626 200 q 533 72 572 108 q 440 14 493 36 q 315 -8 386 -8 q 207 9 257 -8 q 120 65 157 26 q 63 164 83 103 q 43 311 43 225 q 55 438 43 369 q 99 565 67 507 q 185 663 131 624 q 328 701 240 701 q 417 686 382 701 q 474 648 453 671 q 503 598 494 625 q 511 546 511 571 q 497 486 511 510 q 457 463 482 463 q 431 467 446 463 q 400 479 415 471 m 497 779 l 390 890 l 196 779 l 135 779 l 374 1042 l 403 1042 l 542 779 l 497 779 z "},"¸":{"ha":315,"x_min":56,"x_max":350,"o":"m 350 -178 q 338 -231 350 -208 q 308 -270 326 -254 q 264 -294 289 -286 q 213 -303 239 -303 q 124 -291 160 -303 q 56 -264 89 -279 q 72 -233 63 -247 q 101 -219 82 -219 q 137 -225 122 -219 q 163 -238 151 -231 q 186 -251 175 -246 q 213 -257 197 -257 q 235 -243 228 -257 q 243 -211 243 -229 q 227 -168 243 -187 q 176 -149 211 -149 q 133 -153 149 -149 q 108 -165 118 -158 l 138 40 l 193 8 l 175 -92 q 246 -81 217 -81 q 350 -178 350 -81 z "},"¢":{"ha":544,"x_min":39,"x_max":506,"o":"m 292 201 q 196 221 242 204 q 115 272 150 238 q 60 363 81 307 q 39 500 39 418 q 105 732 39 646 q 292 828 171 818 l 292 997 l 346 997 l 346 828 q 447 794 404 824 q 489 704 489 765 q 486 680 489 692 q 475 658 483 668 q 450 640 467 647 q 407 632 433 633 q 418 686 418 658 q 401 744 418 718 q 346 774 383 771 l 346 288 q 438 303 401 289 q 506 367 474 318 q 462 245 500 279 q 346 203 424 211 l 346 -37 l 292 -37 l 292 201 m 186 507 q 191 439 186 472 q 208 377 196 406 q 241 326 221 349 q 292 294 261 304 l 292 763 q 247 724 267 750 q 213 664 226 699 q 193 589 200 629 q 186 507 186 549 z "},"ˆ":{"ha":407,"x_min":-165,"x_max":242,"o":"m 197 779 l 90 890 l -104 779 l -165 779 l 74 1042 l 103 1042 l 242 779 l 197 779 z "},":":{"ha":376,"x_min":78,"x_max":299,"o":"m 78 188 q 110 266 78 233 q 188 299 142 299 q 266 266 233 299 q 299 188 299 233 q 266 110 299 142 q 188 78 233 78 q 110 110 142 78 q 78 188 78 142 m 78 521 q 110 599 78 567 q 188 632 142 632 q 266 599 233 632 q 299 521 299 567 q 266 443 299 475 q 188 411 233 411 q 110 443 142 411 q 78 521 78 475 z "},",":{"ha":325,"x_min":54,"x_max":267,"o":"m 54 124 q 83 192 54 163 q 153 221 113 221 q 238 179 208 221 q 267 78 267 138 q 258 15 267 49 q 234 -53 250 -19 q 194 -118 218 -86 q 140 -175 171 -150 q 124 -159 128 -168 q 121 -142 121 -150 q 126 -112 121 -126 q 140 -85 132 -99 q 153 -57 147 -71 q 158 -28 158 -43 q 142 3 158 -10 q 106 31 126 17 q 70 67 86 46 q 54 124 54 89 z "},"©":{"ha":769,"x_min":49,"x_max":721,"o":"m 189 467 q 207 551 189 514 q 254 616 225 589 q 321 658 283 643 q 396 672 358 672 q 498 640 450 672 q 567 540 546 608 l 501 515 q 462 578 494 557 q 392 599 429 599 q 345 591 368 599 q 305 567 322 583 q 276 528 288 551 q 265 474 265 504 q 276 415 265 442 q 303 368 286 388 q 345 337 321 349 q 397 325 369 325 q 458 342 429 325 q 501 388 486 358 l 563 347 q 488 278 533 303 q 392 253 443 253 q 313 270 350 253 q 248 317 275 288 q 205 385 221 346 q 189 467 189 424 m 385 106 q 254 133 315 106 q 147 209 193 161 q 75 322 101 257 q 49 460 49 386 q 75 599 49 535 q 147 712 101 664 q 254 788 193 760 q 385 815 315 815 q 514 788 453 815 q 621 713 575 761 q 694 601 667 665 q 721 461 721 536 q 694 322 721 386 q 621 209 667 257 q 514 133 575 161 q 385 106 453 106 m 113 460 q 134 343 113 397 q 193 249 156 289 q 281 187 231 210 q 388 164 331 164 q 493 187 443 164 q 581 249 543 210 q 640 343 618 289 q 661 460 661 397 q 640 576 661 522 q 581 670 618 631 q 493 733 543 710 q 388 756 443 756 q 281 733 331 756 q 193 670 231 710 q 134 576 156 631 q 113 460 113 522 z "},"¤":{"ha":636,"x_min":63,"x_max":571,"o":"m 115 733 l 193 656 q 319 697 250 697 q 385 687 354 697 q 443 657 417 676 l 521 735 l 571 685 l 494 608 q 536 481 536 551 q 494 354 536 411 l 571 278 l 521 228 l 444 304 q 387 274 418 285 q 319 264 356 264 q 192 306 249 264 l 114 228 l 64 278 l 142 356 q 112 413 122 382 q 101 479 101 444 q 112 547 101 515 q 142 604 122 578 l 63 683 l 115 733 m 319 619 q 221 579 261 619 q 181 481 181 539 q 221 382 181 422 q 319 342 261 342 q 418 382 378 342 q 458 481 458 422 q 418 579 458 539 q 319 619 378 619 z "},"d":{"ha":731,"x_min":42,"x_max":867,"o":"m 638 972 l 638 222 q 653 145 638 164 q 710 126 669 126 q 777 161 750 126 q 808 249 804 196 l 867 249 q 828 113 856 164 q 765 35 800 63 q 694 0 731 8 q 631 -8 658 -8 q 519 26 557 -8 q 465 119 481 60 q 439 73 454 96 q 402 32 424 50 q 352 3 381 14 q 286 -8 324 -8 q 199 8 242 -8 q 120 63 156 25 q 63 162 85 100 q 42 314 42 224 q 56 446 42 378 q 102 571 71 514 q 184 665 133 628 q 307 701 235 701 q 343 699 324 701 q 381 690 363 697 q 414 667 399 682 q 438 628 429 653 l 438 944 l 638 972 m 438 561 q 432 576 436 567 q 419 594 428 585 q 399 609 411 603 q 369 615 386 615 q 312 587 336 615 q 273 516 288 558 q 251 423 258 474 q 244 326 244 372 q 256 212 244 253 q 283 152 267 171 q 317 130 299 133 q 347 126 335 126 q 378 134 363 126 q 408 157 394 142 q 429 195 421 172 q 438 249 438 218 l 438 561 z "},"†":{"ha":571,"x_min":29,"x_max":542,"o":"m 332 594 l 542 594 l 542 439 l 332 439 l 332 -347 l 232 -347 l 232 439 l 29 439 l 29 594 l 232 594 l 232 1042 l 332 1042 l 332 594 z "},"‡":{"ha":596,"x_min":42,"x_max":554,"o":"m 344 594 l 554 594 l 554 439 l 344 439 l 344 296 l 554 296 l 554 140 l 344 140 l 344 -347 l 244 -347 l 244 140 l 42 140 l 42 296 l 244 296 l 244 439 l 42 439 l 42 594 l 244 594 l 244 1042 l 344 1042 l 344 594 z "},"đ":{"ha":731,"x_min":42,"x_max":867,"o":"m 638 972 l 638 863 l 725 863 l 725 807 l 638 807 l 638 222 q 653 145 638 164 q 710 126 669 126 q 777 161 750 126 q 808 249 804 196 l 867 249 q 828 113 856 164 q 765 35 800 63 q 694 0 731 8 q 631 -8 658 -8 q 519 26 557 -8 q 465 119 481 60 q 439 73 454 96 q 402 32 424 50 q 352 3 381 14 q 286 -8 324 -8 q 199 8 242 -8 q 120 63 156 25 q 63 162 85 100 q 42 314 42 224 q 56 446 42 378 q 102 571 71 514 q 184 665 133 628 q 307 701 235 701 q 343 699 324 701 q 381 690 363 697 q 414 667 399 682 q 438 628 429 653 l 438 807 l 393 807 l 393 863 l 438 863 l 438 944 l 638 972 m 369 615 q 312 587 336 615 q 273 516 288 558 q 251 423 258 474 q 244 326 244 372 q 256 212 244 253 q 283 152 267 171 q 317 130 299 133 q 347 126 335 126 q 378 134 363 126 q 408 157 394 142 q 429 195 421 172 q 438 249 438 218 l 438 563 q 431 577 435 568 q 418 594 426 586 q 398 609 410 603 q 369 615 386 615 z "},"°":{"ha":443,"x_min":58,"x_max":385,"o":"m 231 975 q 306 956 276 975 q 353 906 336 938 q 378 835 371 875 q 385 756 385 796 q 376 675 385 717 q 350 599 368 633 q 303 542 332 564 q 235 519 275 519 q 162 531 194 519 q 106 570 129 543 q 71 642 83 597 q 58 751 58 686 q 69 839 58 799 q 102 910 81 879 q 156 958 124 940 q 231 975 189 975 m 158 763 q 160 709 158 742 q 167 646 161 676 q 188 593 174 615 q 228 571 201 571 q 261 585 247 571 q 285 622 275 599 q 299 675 294 644 q 303 739 303 706 q 297 831 303 794 q 281 888 290 867 q 259 918 271 910 q 236 926 247 926 q 185 885 211 926 q 158 763 158 843 z "},"¨":{"ha":544,"x_min":78,"x_max":497,"o":"m 78 881 q 102 940 78 915 q 163 965 126 965 q 222 940 197 965 q 247 881 247 915 q 222 820 247 844 q 163 796 197 796 q 102 820 126 796 q 78 881 78 844 m 328 881 q 352 940 328 915 q 413 965 376 965 q 472 940 447 965 q 497 881 497 915 q 472 820 497 844 q 413 796 447 796 q 352 820 376 796 q 328 881 328 844 z "},"÷":{"ha":575,"x_min":42,"x_max":528,"o":"m 208 110 q 240 188 208 156 q 318 221 272 221 q 397 188 364 221 q 429 110 429 156 q 397 32 429 64 q 318 0 364 0 q 240 32 272 0 q 208 110 208 64 m 208 575 q 240 653 208 621 q 318 686 272 686 q 397 653 364 686 q 429 575 429 621 q 397 497 429 529 q 318 465 364 465 q 240 497 272 465 q 208 575 208 529 m 528 286 l 42 286 l 42 396 l 528 396 l 528 286 z "},"$":{"ha":535,"x_min":49,"x_max":493,"o":"m 465 703 q 453 647 465 668 q 414 625 440 625 q 383 633 397 625 q 354 657 369 640 q 372 680 367 664 q 376 711 376 696 q 351 771 376 743 q 275 800 325 799 l 275 582 q 348 538 310 560 q 418 488 386 517 q 472 420 450 460 q 493 325 493 381 q 434 194 493 239 q 275 149 375 150 l 275 -37 l 225 -37 l 225 151 q 157 167 189 156 q 101 200 125 179 q 63 252 76 221 q 49 326 49 283 q 72 401 49 374 q 131 428 94 428 q 176 417 160 428 q 196 393 193 407 q 165 369 175 389 q 154 322 154 350 q 176 251 154 279 q 225 210 197 224 l 225 485 q 165 526 194 506 q 110 569 135 546 q 71 622 86 593 q 56 688 56 650 q 69 746 56 718 q 107 794 83 774 q 161 829 131 815 q 225 847 192 843 l 225 997 l 275 997 l 275 850 q 338 843 304 849 q 399 822 371 838 q 447 777 428 806 q 465 703 465 749 m 353 299 q 331 385 353 349 q 275 449 308 421 l 275 200 q 336 231 319 203 q 353 299 353 260 m 182 715 q 194 663 182 685 q 225 621 206 640 l 225 789 q 192 756 203 776 q 182 715 182 735 z "},"ı":{"ha":371,"x_min":65,"x_max":494,"o":"m 265 694 l 265 222 q 281 145 265 164 q 338 126 297 126 q 405 161 378 126 q 436 249 432 196 l 494 249 q 456 113 483 164 q 393 35 428 63 q 322 0 358 8 q 258 -8 286 -8 q 108 51 151 -8 q 65 207 65 110 l 65 694 l 265 694 z "},"e":{"ha":533,"x_min":43,"x_max":646,"o":"m 382 108 q 456 119 424 108 q 513 149 488 131 q 558 194 538 168 q 599 249 579 219 l 646 249 q 599 154 626 200 q 533 72 572 108 q 440 14 493 36 q 317 -8 388 -8 q 207 10 257 -8 q 120 66 157 28 q 63 165 83 104 q 43 310 43 225 q 56 438 43 369 q 103 565 69 507 q 193 663 136 624 q 338 701 250 701 q 440 681 404 701 q 494 632 476 660 q 515 578 511 604 q 518 540 518 551 q 495 431 518 478 q 434 351 472 383 q 347 301 396 318 q 246 281 297 283 q 277 148 247 188 q 382 108 307 108 m 411 539 q 394 608 411 588 q 358 628 378 628 q 315 605 335 628 q 281 544 296 582 q 258 454 267 506 q 246 347 249 403 q 311 366 281 350 q 364 408 342 382 q 399 467 386 433 q 411 539 411 500 z "},"é":{"ha":533,"x_min":43,"x_max":646,"o":"m 382 108 q 456 119 424 108 q 513 149 488 131 q 558 194 538 168 q 599 249 579 219 l 646 249 q 599 154 626 200 q 533 72 572 108 q 440 14 493 36 q 317 -8 388 -8 q 207 10 257 -8 q 120 66 157 28 q 63 165 83 104 q 43 310 43 225 q 56 438 43 369 q 103 565 69 507 q 193 663 136 624 q 338 701 250 701 q 440 681 404 701 q 494 632 476 660 q 515 578 511 604 q 518 540 518 551 q 495 431 518 478 q 434 351 472 383 q 347 301 396 318 q 246 281 297 283 q 277 148 247 188 q 382 108 307 108 m 338 1042 l 483 1042 l 371 779 l 267 779 l 338 1042 m 411 539 q 394 608 411 588 q 358 628 378 628 q 315 605 335 628 q 281 544 296 582 q 258 454 267 506 q 246 347 249 403 q 311 366 281 350 q 364 408 342 382 q 399 467 386 433 q 411 539 411 500 z "},"ê":{"ha":533,"x_min":43,"x_max":646,"o":"m 382 108 q 456 119 424 108 q 513 149 488 131 q 558 194 538 168 q 599 249 579 219 l 646 249 q 599 154 626 200 q 533 72 572 108 q 440 14 493 36 q 317 -8 388 -8 q 207 10 257 -8 q 120 66 157 28 q 63 165 83 104 q 43 310 43 225 q 56 438 43 369 q 103 565 69 507 q 193 663 136 624 q 338 701 250 701 q 440 681 404 701 q 494 632 476 660 q 515 578 511 604 q 518 540 518 551 q 495 431 518 478 q 434 351 472 383 q 347 301 396 318 q 246 281 297 283 q 277 148 247 188 q 382 108 307 108 m 496 779 l 389 890 l 194 779 l 133 779 l 372 1042 l 401 1042 l 540 779 l 496 779 m 411 539 q 394 608 411 588 q 358 628 378 628 q 315 605 335 628 q 281 544 296 582 q 258 454 267 506 q 246 347 249 403 q 311 366 281 350 q 364 408 342 382 q 399 467 386 433 q 411 539 411 500 z "},"ë":{"ha":533,"x_min":43,"x_max":646,"o":"m 382 108 q 456 119 424 108 q 513 149 488 131 q 558 194 538 168 q 599 249 579 219 l 646 249 q 599 154 626 200 q 533 72 572 108 q 440 14 493 36 q 317 -8 388 -8 q 207 10 257 -8 q 120 66 157 28 q 63 165 83 104 q 43 310 43 225 q 56 438 43 369 q 103 565 69 507 q 193 663 136 624 q 338 701 250 701 q 440 681 404 701 q 494 632 476 660 q 515 578 511 604 q 518 540 518 551 q 495 431 518 478 q 434 351 472 383 q 347 301 396 318 q 246 281 297 283 q 277 148 247 188 q 382 108 307 108 m 411 539 q 394 608 411 588 q 358 628 378 628 q 315 605 335 628 q 281 544 296 582 q 258 454 267 506 q 246 347 249 403 q 311 366 281 350 q 364 408 342 382 q 399 467 386 433 q 411 539 411 500 m 144 881 q 169 940 144 915 q 229 965 193 965 q 289 940 264 965 q 314 881 314 915 q 289 820 314 844 q 229 796 264 796 q 169 820 193 796 q 144 881 144 844 m 394 881 q 419 940 394 915 q 479 965 443 965 q 539 940 514 965 q 564 881 564 915 q 539 820 564 844 q 479 796 514 796 q 419 820 443 796 q 394 881 394 844 z "},"è":{"ha":533,"x_min":43,"x_max":646,"o":"m 382 108 q 456 119 424 108 q 513 149 488 131 q 558 194 538 168 q 599 249 579 219 l 646 249 q 599 154 626 200 q 533 72 572 108 q 440 14 493 36 q 317 -8 388 -8 q 207 10 257 -8 q 120 66 157 28 q 63 165 83 104 q 43 310 43 225 q 56 438 43 369 q 103 565 69 507 q 193 663 136 624 q 338 701 250 701 q 440 681 404 701 q 494 632 476 660 q 515 578 511 604 q 518 540 518 551 q 495 431 518 478 q 434 351 472 383 q 347 301 396 318 q 246 281 297 283 q 277 148 247 188 q 382 108 307 108 m 142 1042 l 288 1042 l 383 779 l 279 779 l 142 1042 m 411 539 q 394 608 411 588 q 358 628 378 628 q 315 605 335 628 q 281 544 296 582 q 258 454 267 506 q 246 347 249 403 q 311 366 281 350 q 364 408 342 382 q 399 467 386 433 q 411 539 411 500 z "},"…":{"ha":996,"x_min":54,"x_max":942,"o":"m 54 104 q 86 183 54 150 q 164 215 118 215 q 242 183 210 215 q 275 104 275 150 q 242 26 275 58 q 164 -6 210 -6 q 86 26 118 -6 q 54 104 54 58 m 381 104 q 413 183 381 150 q 490 215 444 215 q 569 183 536 215 q 601 104 601 150 q 569 26 601 58 q 490 -6 536 -6 q 413 26 444 -6 q 381 104 381 58 m 721 104 q 753 183 721 150 q 831 215 785 215 q 909 183 876 215 q 942 104 942 150 q 909 26 942 58 q 831 -6 876 -6 q 753 26 785 -6 q 721 104 721 58 z "},"—":{"ha":651,"x_min":82,"x_max":569,"o":"m 569 308 l 82 308 l 82 418 l 568 418 l 569 308 z "},"–":{"ha":526,"x_min":82,"x_max":444,"o":"m 444 308 l 82 308 l 82 418 l 443 418 l 444 308 z "},"ę":{"ha":532,"x_min":46,"x_max":649,"o":"m 421 -85 q 440 -154 421 -122 q 494 -186 460 -186 q 540 -169 519 -186 q 579 -139 560 -153 q 581 -160 581 -151 q 585 -182 582 -169 q 562 -209 574 -194 q 535 -237 550 -224 q 499 -259 519 -250 q 451 -268 478 -268 q 393 -256 418 -268 q 351 -224 368 -243 q 326 -183 335 -206 q 317 -139 317 -160 q 332 -72 317 -107 q 379 -4 347 -36 q 322 -8 354 -8 q 210 9 261 -8 q 124 65 160 26 q 67 166 88 104 q 46 317 46 228 q 58 443 46 375 q 103 570 71 511 q 190 668 136 629 q 328 707 244 707 q 435 687 397 707 q 491 638 474 667 q 512 580 508 610 q 515 532 515 550 q 494 436 515 481 q 438 358 474 392 q 355 304 403 325 q 253 281 307 283 q 270 194 260 228 q 296 141 281 160 q 333 115 311 122 q 386 108 356 108 q 459 119 428 108 q 515 149 490 131 q 561 194 540 168 q 601 249 582 219 l 649 249 q 577 119 617 164 q 503 44 538 74 q 444 -12 468 14 q 421 -85 421 -39 m 407 539 q 391 613 407 593 q 356 633 375 633 q 308 608 328 633 q 275 542 289 582 q 255 450 261 501 q 249 347 249 399 q 313 365 283 349 q 363 408 342 382 q 395 468 383 435 q 407 539 407 501 z "},"=":{"ha":685,"x_min":88,"x_max":597,"o":"m 597 439 l 88 439 l 88 594 l 597 594 l 597 439 m 597 140 l 88 140 l 88 296 l 597 296 l 597 140 z "},"ð":{"ha":747,"x_min":58,"x_max":871,"o":"m 654 222 q 667 147 654 168 q 725 126 681 126 q 786 161 765 126 q 813 249 807 196 l 871 249 q 832 115 858 164 q 774 40 806 65 q 707 7 742 14 q 644 0 672 0 q 545 31 588 0 q 482 119 503 61 q 456 73 471 96 q 419 32 440 50 q 369 3 397 14 q 303 -8 340 -8 q 215 8 258 -8 q 137 63 172 25 q 80 162 101 100 q 58 314 58 224 q 73 446 58 378 q 119 571 88 514 q 201 665 150 628 q 324 701 251 701 q 413 684 382 701 q 454 640 444 667 l 454 674 q 446 799 454 746 l 343 782 l 335 836 l 431 853 q 399 910 418 882 q 347 972 379 939 l 410 972 q 483 929 447 953 q 550 874 519 906 l 654 892 l 667 835 l 590 822 q 637 717 619 778 q 654 576 654 657 l 654 222 m 386 615 q 328 587 353 615 q 290 516 304 558 q 268 423 275 474 q 261 326 261 372 q 272 212 261 253 q 299 152 283 171 q 333 130 315 133 q 364 126 351 126 q 395 134 379 126 q 424 157 411 142 q 446 195 438 172 q 454 249 454 218 l 454 574 q 431 601 447 586 q 386 615 414 615 z "},"!":{"ha":369,"x_min":74,"x_max":294,"o":"m 126 321 l 86 972 l 286 972 l 244 321 l 126 321 m 74 110 q 106 188 74 156 q 183 221 138 221 q 262 188 229 221 q 294 110 294 156 q 262 32 294 64 q 183 0 229 0 q 106 32 138 0 q 74 110 74 64 z "},"¡":{"ha":354,"x_min":68,"x_max":289,"o":"m 236 307 l 276 -344 l 76 -344 l 118 307 l 236 307 m 289 518 q 257 440 289 472 q 179 407 225 407 q 101 440 133 407 q 68 518 68 472 q 101 596 68 564 q 179 628 133 628 q 257 596 225 628 q 289 518 289 564 z "},"f":{"ha":371,"x_min":-133,"x_max":472,"o":"m 407 833 q 388 896 400 874 q 343 918 376 918 q 315 913 329 918 q 290 896 301 908 q 272 861 279 883 q 265 804 265 839 l 265 694 l 367 694 l 367 639 l 265 639 l 265 -111 q 247 -232 265 -186 q 200 -303 228 -278 q 138 -338 172 -329 q 75 -347 104 -347 q -4 -334 33 -347 q -71 -297 -42 -321 q -117 -238 -100 -272 q -133 -164 -133 -204 q -118 -99 -133 -126 q -76 -53 -103 -72 q -14 -18 -50 -33 q 65 11 22 -3 l 65 804 q 84 924 65 878 q 132 997 103 971 q 196 1031 161 1022 q 263 1040 231 1040 q 349 1024 311 1040 q 413 979 386 1007 q 453 914 439 951 q 472 833 468 876 l 407 833 m -60 -154 q -53 -185 -60 -172 q -35 -207 -46 -199 q -12 -219 -25 -215 q 10 -224 0 -224 q 49 -201 32 -224 q 67 -115 67 -178 l 67 -35 q 20 -54 43 -43 q -20 -80 -3 -65 q -49 -113 -37 -94 q -60 -154 -60 -132 z "},"ﬀ":{"ha":710,"x_min":-133,"x_max":810,"o":"m 599 1040 q 747 983 693 1040 q 810 833 801 925 l 744 833 q 726 895 738 872 q 679 918 715 918 q 653 914 667 918 q 629 899 640 910 q 611 865 618 888 q 604 808 604 843 l 604 694 l 743 694 l 743 639 l 604 639 l 604 -111 q 585 -232 604 -186 q 538 -303 567 -278 q 474 -338 508 -329 q 407 -347 439 -347 q 301 -324 344 -347 q 233 -260 257 -300 q 160 -330 204 -312 q 75 -347 115 -347 q -4 -334 33 -347 q -71 -297 -42 -321 q -117 -238 -100 -272 q -133 -164 -133 -204 q -118 -99 -133 -126 q -76 -53 -103 -72 q -14 -18 -50 -33 q 65 11 22 -3 l 65 804 q 84 924 65 878 q 132 997 103 971 q 196 1031 161 1022 q 263 1040 231 1040 q 365 1016 322 1040 q 433 951 407 992 q 510 1023 463 1006 q 599 1040 557 1040 m 265 51 l 404 76 l 404 818 q 383 892 404 868 q 338 917 361 917 q 288 888 310 917 q 265 804 265 860 l 265 694 l 367 694 l 367 639 l 265 639 l 265 51 m 331 -224 q 361 -219 347 -224 q 384 -203 375 -215 q 399 -171 393 -192 q 404 -115 404 -150 l 404 42 l 265 15 l 265 -111 q 257 -194 265 -160 q 290 -217 269 -211 q 331 -224 311 -224 m -60 -154 q -53 -185 -60 -172 q -35 -207 -46 -199 q -12 -219 -25 -215 q 10 -224 0 -224 q 49 -201 32 -224 q 67 -115 67 -178 l 67 -35 q 20 -54 43 -43 q -20 -80 -3 -65 q -49 -113 -37 -94 q -60 -154 -60 -132 z "},"ﬃ":{"ha":1061,"x_min":-135,"x_max":1185,"o":"m 956 694 l 956 222 q 972 145 956 164 q 1028 126 988 126 q 1095 161 1068 126 q 1126 249 1122 196 l 1185 249 q 1146 113 1174 164 q 1083 35 1118 63 q 1013 0 1049 8 q 949 -8 976 -8 q 799 51 842 -8 q 756 207 756 110 l 756 639 l 588 639 l 588 -115 q 569 -231 588 -186 q 524 -302 551 -276 q 461 -337 496 -328 q 392 -347 426 -347 q 294 -328 336 -347 q 226 -274 253 -308 q 152 -333 194 -318 q 74 -347 110 -347 q -6 -334 32 -347 q -72 -297 -43 -321 q -117 -240 -100 -274 q -135 -165 -135 -206 q -119 -99 -135 -126 q -76 -52 -103 -72 q -12 -17 -49 -32 q 65 11 24 -3 l 65 808 q 84 927 65 882 q 132 997 103 972 q 197 1031 161 1022 q 268 1040 233 1040 q 369 1023 322 1040 q 453 969 417 1006 q 545 1026 492 1013 q 657 1040 599 1040 q 749 1033 700 1040 q 838 1006 797 1025 q 906 951 879 986 q 933 861 933 917 q 907 787 933 806 q 846 768 881 768 q 809 772 828 768 q 776 787 790 776 q 752 813 761 797 q 743 854 743 829 q 751 894 743 878 q 778 911 760 911 q 784 911 781 911 q 789 910 788 911 q 758 951 782 938 q 700 965 733 965 q 644 952 667 965 q 609 917 622 939 q 591 866 596 894 q 586 808 586 838 l 586 694 l 956 694 m 268 50 l 386 72 l 386 639 l 268 639 l 268 50 m 311 -243 q 368 -214 349 -243 q 388 -115 388 -185 l 388 38 l 268 11 l 268 -111 q 265 -160 268 -137 q 258 -201 263 -182 q 278 -234 263 -225 q 311 -243 294 -243 m 386 742 q 394 841 386 799 q 418 915 403 883 q 356 939 392 939 q 310 928 328 939 q 284 899 293 917 q 272 858 275 881 q 268 815 268 836 l 268 694 l 386 694 l 386 742 m -53 -154 q -46 -185 -53 -172 q -28 -207 -39 -199 q -6 -219 -18 -215 q 15 -224 6 -224 q 56 -200 36 -224 q 75 -115 75 -176 l 75 -35 q 28 -54 51 -43 q -12 -80 6 -65 q -42 -113 -31 -94 q -53 -154 -53 -132 z "},"ﬄ":{"ha":1082,"x_min":-135,"x_max":1207,"o":"m 65 -347 q -6 -334 29 -347 q -70 -297 -42 -321 q -117 -240 -99 -274 q -135 -165 -135 -207 q -119 -99 -135 -126 q -76 -52 -103 -72 q -12 -17 -49 -32 q 65 11 24 -3 l 65 808 q 84 927 65 882 q 132 997 103 972 q 197 1031 161 1022 q 267 1040 232 1040 q 439 982 369 1040 q 510 1028 469 1017 q 589 1040 550 1040 q 779 1011 683 1040 q 976 944 875 982 l 976 222 q 991 147 976 168 q 1050 126 1006 126 q 1117 161 1090 126 q 1149 249 1144 196 l 1207 249 q 1167 113 1196 164 q 1105 35 1139 63 q 1034 0 1071 8 q 969 -8 997 -8 q 896 6 931 -8 q 835 52 861 21 q 793 132 808 83 q 778 249 778 181 l 778 931 q 710 947 747 942 q 658 953 672 953 q 633 949 646 953 q 610 933 621 944 q 594 901 600 922 q 588 847 588 881 l 588 694 l 718 694 l 718 639 l 589 639 l 589 -111 q 571 -229 589 -183 q 524 -301 553 -275 q 462 -337 496 -328 q 394 -347 428 -347 q 296 -328 338 -347 q 226 -275 254 -308 q 151 -333 196 -318 q 65 -347 107 -347 m 269 51 l 386 72 l 386 639 l 269 639 l 269 51 m 260 -200 q 290 -235 271 -228 q 319 -243 308 -243 q 367 -215 347 -243 q 388 -115 388 -186 l 388 38 l 269 11 l 269 -111 q 267 -158 269 -136 q 260 -200 265 -181 m 386 804 q 391 872 386 842 q 404 925 396 901 q 357 939 383 939 q 311 928 329 939 q 283 899 293 917 q 269 859 272 881 q 265 815 265 838 l 265 694 l 386 694 l 386 804 m -53 -158 q -31 -205 -53 -186 q 15 -224 -8 -224 q 56 -200 36 -224 q 75 -115 75 -176 l 75 -35 q -17 -83 19 -54 q -53 -158 -53 -111 z "},"ﬁ":{"ha":739,"x_min":-136,"x_max":863,"o":"m -62 -157 q -54 -191 -62 -178 q -34 -211 -46 -204 q -10 -221 -22 -218 q 8 -224 1 -224 q 47 -199 29 -224 q 65 -115 65 -175 l 65 -35 q -28 -85 7 -54 q -62 -157 -62 -117 m 421 858 q 432 891 421 876 q 468 910 443 906 q 438 951 461 938 q 381 965 414 965 q 325 952 347 965 q 290 917 303 939 q 272 866 276 894 q 267 808 267 838 l 267 694 l 379 694 l 379 639 l 268 639 l 268 -111 q 250 -229 268 -183 q 203 -301 232 -275 q 140 -337 175 -328 q 72 -347 106 -347 q -10 -333 28 -347 q -76 -295 -47 -319 q -120 -238 -104 -271 q -136 -167 -136 -206 q -120 -100 -136 -128 q -76 -52 -104 -72 q -12 -17 -49 -32 q 65 11 24 -1 l 65 742 q 92 897 65 839 q 160 988 118 956 q 252 1030 201 1019 q 350 1040 303 1040 q 440 1034 393 1040 q 525 1009 486 1028 q 588 955 564 990 q 613 860 613 919 q 583 791 613 814 q 518 768 554 768 q 451 791 482 768 q 421 858 421 814 m 633 694 l 633 222 q 649 145 633 164 q 706 126 665 126 q 773 161 746 126 q 804 249 800 196 l 863 249 q 824 113 851 164 q 761 35 796 63 q 690 0 726 8 q 626 -8 654 -8 q 476 51 519 -8 q 433 207 433 110 l 433 694 l 633 694 z "},"ﬂ":{"ha":758,"x_min":-135,"x_max":883,"o":"m 654 222 q 670 145 654 164 q 726 126 686 126 q 794 161 767 126 q 825 249 821 196 l 883 249 q 844 113 872 164 q 782 35 817 63 q 711 0 747 8 q 647 -8 675 -8 q 497 51 540 -8 q 454 207 454 110 l 454 931 q 386 947 424 942 q 335 953 349 953 q 310 949 322 953 q 287 933 297 944 q 270 901 276 922 q 264 847 264 881 l 264 694 l 394 694 l 394 639 l 265 639 l 265 -115 q 247 -234 265 -189 q 200 -304 229 -279 q 135 -338 171 -329 q 65 -347 100 -347 q -6 -334 29 -347 q -70 -297 -42 -321 q -117 -240 -99 -274 q -135 -165 -135 -207 q -119 -99 -135 -126 q -76 -52 -103 -72 q -12 -17 -49 -32 q 65 11 24 -3 l 65 808 q 84 927 65 882 q 132 997 103 972 q 197 1031 161 1022 q 265 1040 232 1040 q 456 1011 360 1040 q 653 944 551 982 l 654 222 m -61 -158 q -39 -205 -61 -186 q 7 -224 -17 -224 q 47 -200 28 -224 q 67 -115 67 -176 l 67 -35 q -25 -83 11 -54 q -61 -158 -61 -111 z "},"ƒ":{"ha":421,"x_min":-81,"x_max":525,"o":"m 318 -111 q 299 -232 318 -186 q 253 -303 281 -278 q 191 -338 225 -329 q 128 -347 157 -347 q 49 -334 86 -347 q -18 -297 11 -321 q -64 -238 -47 -272 q -81 -164 -81 -204 q -65 -99 -81 -126 q -24 -53 -50 -72 q 39 -18 3 -33 q 118 11 75 -3 l 118 639 l 35 639 l 35 694 l 118 694 l 118 804 q 137 927 118 881 q 186 999 156 974 q 256 1032 217 1024 q 333 1040 294 1040 q 483 990 440 1040 q 525 833 525 940 l 460 833 q 444 896 460 874 q 396 918 429 918 q 368 913 382 918 q 343 896 354 908 q 325 861 332 883 q 318 804 318 839 l 318 694 l 421 694 l 421 639 l 318 639 l 318 -111 m -7 -153 q 0 -184 -7 -171 q 17 -206 7 -197 q 40 -219 28 -215 q 61 -224 51 -224 q 101 -201 83 -224 q 118 -115 118 -178 l 118 -35 q 29 -83 65 -54 q -7 -153 -7 -112 z "},"g":{"ha":704,"x_min":38,"x_max":828,"o":"m 636 694 l 636 50 q 688 76 665 61 q 726 115 710 92 q 753 170 743 138 q 769 249 764 203 l 828 249 q 802 134 821 179 q 756 60 783 89 q 698 14 729 31 q 636 -12 667 -3 l 636 -111 q 618 -232 636 -186 q 572 -303 600 -278 q 509 -338 543 -329 q 443 -347 475 -347 q 367 -336 403 -347 q 306 -305 332 -325 q 265 -256 281 -285 q 250 -190 250 -226 q 266 -123 250 -153 q 308 -71 282 -93 q 368 -33 335 -49 q 436 -6 401 -17 l 436 111 q 376 46 413 72 q 279 19 339 19 q 193 36 236 19 q 115 89 150 53 q 59 184 81 125 q 38 326 38 243 q 51 455 38 389 q 98 576 65 521 q 184 666 131 631 q 315 701 238 701 q 347 699 329 701 q 381 690 364 697 q 413 669 397 683 q 436 632 428 656 l 436 694 l 636 694 m 369 615 q 310 589 335 615 q 270 522 286 563 q 247 431 254 481 q 240 333 240 381 q 251 232 240 268 q 278 178 263 196 q 308 158 293 161 q 332 154 324 154 q 403 183 376 154 q 436 257 431 213 l 436 567 q 416 598 432 581 q 369 615 400 615 m 324 -179 q 342 -222 324 -206 q 379 -239 360 -239 q 420 -208 404 -239 q 436 -115 436 -178 l 436 -75 q 356 -120 388 -94 q 324 -179 324 -146 z "},"ğ":{"ha":704,"x_min":38,"x_max":828,"o":"m 636 694 l 636 50 q 688 76 665 61 q 726 115 710 92 q 753 170 743 138 q 769 249 764 203 l 828 249 q 802 134 821 179 q 756 60 783 89 q 698 14 729 31 q 636 -12 667 -3 l 636 -111 q 618 -232 636 -186 q 572 -303 600 -278 q 509 -338 543 -329 q 443 -347 475 -347 q 367 -336 403 -347 q 306 -305 332 -325 q 265 -256 281 -285 q 250 -190 250 -226 q 266 -123 250 -153 q 308 -71 282 -93 q 368 -33 335 -49 q 436 -6 401 -17 l 436 111 q 376 46 413 72 q 279 19 339 19 q 193 36 236 19 q 115 89 150 53 q 59 184 81 125 q 38 326 38 243 q 51 455 38 389 q 98 576 65 521 q 184 666 131 631 q 315 701 238 701 q 347 699 329 701 q 381 690 364 697 q 413 669 397 683 q 436 632 428 656 l 436 694 l 636 694 m 369 615 q 310 589 335 615 q 270 522 286 563 q 247 431 254 481 q 240 333 240 381 q 251 232 240 268 q 278 178 263 196 q 308 158 293 161 q 332 154 324 154 q 403 183 376 154 q 436 257 431 213 l 436 567 q 416 598 432 581 q 369 615 400 615 m 614 976 q 592 894 614 929 q 535 836 571 860 q 455 801 500 813 q 363 789 410 789 q 269 801 315 789 q 188 836 224 813 q 131 894 153 860 q 110 976 110 929 l 219 976 q 232 922 219 944 q 265 883 244 899 q 310 859 285 867 q 364 851 336 851 q 417 859 390 851 q 463 883 443 867 q 496 922 483 899 q 508 976 508 944 l 614 976 m 324 -179 q 342 -222 324 -206 q 379 -239 360 -239 q 420 -208 404 -239 q 436 -115 436 -178 l 436 -75 q 356 -120 388 -94 q 324 -179 324 -146 z "},"ß":{"ha":625,"x_min":74,"x_max":618,"o":"m 274 -297 l 74 -347 l 74 736 q 93 859 74 813 q 142 931 113 906 q 210 964 172 956 q 285 972 247 972 q 454 922 392 972 q 517 772 517 871 q 491 664 517 710 q 419 593 465 618 q 569 493 519 561 q 618 308 618 425 q 599 173 618 231 q 549 76 579 115 q 483 19 518 38 q 414 0 447 0 q 394 1 406 0 q 371 3 382 1 l 371 85 q 418 103 399 85 q 450 153 438 122 q 468 226 463 185 q 474 313 474 268 q 442 469 474 413 q 325 546 410 526 l 332 626 q 395 673 365 643 q 425 760 425 703 q 400 831 425 813 q 350 850 375 850 q 324 845 338 850 q 299 828 310 840 q 281 793 288 815 q 274 736 274 771 l 274 -297 z "},"`":{"ha":279,"x_min":-187,"x_max":54,"o":"m -187 1042 l -42 1042 l 54 779 l -50 779 l -187 1042 z "},">":{"ha":503,"x_min":78,"x_max":464,"o":"m 78 596 l 464 388 l 464 313 l 79 140 l 82 219 l 386 353 l 82 519 l 78 596 z "},"«":{"ha":714,"x_min":29,"x_max":665,"o":"m 343 561 l 144 351 l 376 157 l 333 96 l 29 353 l 272 624 l 343 561 m 632 561 l 433 351 l 665 157 l 622 96 l 318 353 l 561 624 l 632 561 z "},"»":{"ha":718,"x_min":50,"x_max":686,"o":"m 372 158 l 571 368 l 339 563 l 382 624 l 686 367 l 443 96 l 372 158 m 83 158 l 282 368 l 50 563 l 93 624 l 397 367 l 154 96 l 83 158 z "},"‹":{"ha":425,"x_min":29,"x_max":376,"o":"m 343 561 l 144 351 l 376 157 l 333 96 l 29 353 l 272 624 l 343 561 z "},"›":{"ha":429,"x_min":50,"x_max":397,"o":"m 83 158 l 282 368 l 50 563 l 93 624 l 397 367 l 154 96 l 83 158 z "},"h":{"ha":701,"x_min":65,"x_max":825,"o":"m 418 421 q 400 539 418 504 q 347 574 382 574 q 312 563 326 574 q 288 533 297 551 q 272 492 278 515 q 265 446 267 469 l 265 0 l 65 0 l 65 944 l 265 972 l 265 622 q 338 685 297 671 q 414 700 378 700 q 488 688 453 700 q 551 645 524 675 q 593 566 578 615 q 608 444 608 517 q 608 399 608 426 q 606 344 607 372 q 603 290 604 317 q 603 246 603 264 q 617 156 603 186 q 675 126 632 126 q 714 135 699 126 q 739 161 729 144 q 755 200 749 178 q 767 249 761 222 l 825 249 q 792 115 814 165 q 741 37 769 64 q 681 1 713 10 q 618 -8 649 -8 q 463 63 511 -8 q 415 251 415 133 q 416 287 415 264 q 417 335 417 310 q 417 383 417 360 q 418 421 418 407 z "},"˝":{"ha":606,"x_min":1,"x_max":385,"o":"m 72 1042 l 204 1042 l 92 779 l 1 779 l 72 1042 m 253 1042 l 385 1042 l 272 779 l 182 779 l 253 1042 z "},"-":{"ha":443,"x_min":82,"x_max":361,"o":"m 361 308 l 82 308 l 82 418 l 361 418 l 361 308 z "},"i":{"ha":371,"x_min":50,"x_max":494,"o":"m 265 694 l 265 222 q 281 145 265 164 q 338 126 297 126 q 405 161 378 126 q 436 249 432 196 l 494 249 q 456 113 483 164 q 393 35 428 63 q 322 0 358 8 q 258 -8 286 -8 q 108 51 151 -8 q 65 207 65 110 l 65 694 l 265 694 m 50 879 q 82 958 50 925 q 160 990 114 990 q 238 958 206 990 q 271 879 271 925 q 238 801 271 833 q 160 769 206 769 q 82 801 114 769 q 50 879 50 833 z "},"í":{"ha":371,"x_min":65,"x_max":494,"o":"m 265 694 l 265 222 q 281 145 265 164 q 338 126 297 126 q 405 161 378 126 q 436 249 432 196 l 494 249 q 456 113 483 164 q 393 35 428 63 q 322 0 358 8 q 258 -8 286 -8 q 108 51 151 -8 q 65 207 65 110 l 65 694 l 265 694 m 190 1042 l 336 1042 l 224 779 l 119 779 l 190 1042 z "},"î":{"ha":371,"x_min":-39,"x_max":494,"o":"m 265 694 l 265 222 q 281 145 265 164 q 338 126 297 126 q 405 161 378 126 q 436 249 432 196 l 494 249 q 456 113 483 164 q 393 35 428 63 q 322 0 358 8 q 258 -8 286 -8 q 108 51 151 -8 q 65 207 65 110 l 65 694 l 265 694 m 324 779 l 217 890 l 22 779 l -39 779 l 200 1042 l 229 1042 l 368 779 l 324 779 z "},"ï":{"ha":371,"x_min":-36,"x_max":494,"o":"m 265 694 l 265 222 q 281 145 265 164 q 338 126 297 126 q 405 161 378 126 q 436 249 432 196 l 494 249 q 456 113 483 164 q 393 35 428 63 q 322 0 358 8 q 258 -8 286 -8 q 108 51 151 -8 q 65 207 65 110 l 65 694 l 265 694 m -36 881 q -12 940 -36 915 q 49 965 13 965 q 108 940 83 965 q 133 881 133 915 q 108 820 133 844 q 49 796 83 796 q -12 820 13 796 q -36 881 -36 844 m 214 881 q 238 940 214 915 q 299 965 263 965 q 358 940 333 965 q 383 881 383 915 q 358 820 383 844 q 299 796 333 796 q 238 820 263 796 q 214 881 214 844 z "},"ì":{"ha":371,"x_min":-17,"x_max":494,"o":"m 265 694 l 265 222 q 281 145 265 164 q 338 126 297 126 q 405 161 378 126 q 436 249 432 196 l 494 249 q 456 113 483 164 q 393 35 428 63 q 322 0 358 8 q 258 -8 286 -8 q 108 51 151 -8 q 65 207 65 110 l 65 694 l 265 694 m -17 1042 l 129 1042 l 225 779 l 121 779 l -17 1042 z "},"ĳ":{"ha":704,"x_min":50,"x_max":828,"o":"m 636 694 l 636 50 q 688 76 665 61 q 726 115 710 92 q 753 170 743 138 q 769 249 764 203 l 828 249 q 802 134 821 179 q 756 60 783 89 q 698 14 729 31 q 636 -12 667 -3 l 636 -111 q 618 -231 636 -185 q 572 -303 600 -278 q 509 -338 543 -329 q 443 -347 475 -347 q 367 -336 403 -347 q 306 -305 332 -325 q 265 -256 281 -285 q 250 -190 250 -226 q 266 -123 250 -153 q 308 -71 282 -93 q 368 -33 335 -49 q 436 -6 401 -17 l 436 694 l 636 694 m 265 694 l 265 222 q 281 145 265 164 q 338 126 297 126 q 365 129 356 126 q 381 135 374 132 q 382 121 382 128 q 382 107 382 114 q 370 50 382 72 q 340 15 358 28 q 299 -3 321 1 q 258 -8 278 -8 q 108 51 151 -8 q 65 207 65 110 l 65 694 l 265 694 m 50 879 q 82 958 50 925 q 160 990 114 990 q 238 958 206 990 q 271 879 271 925 q 238 801 271 833 q 160 769 206 769 q 82 801 114 769 q 50 879 50 833 m 424 879 q 456 958 424 925 q 533 990 488 990 q 612 958 579 990 q 644 879 644 925 q 612 801 644 833 q 533 769 579 769 q 456 801 488 769 q 424 879 424 833 m 324 -178 q 342 -222 324 -206 q 381 -239 361 -239 q 421 -208 406 -239 q 436 -115 436 -178 l 436 -75 q 356 -119 389 -94 q 324 -178 324 -144 z "},"j":{"ha":333,"x_min":-121,"x_max":457,"o":"m 265 694 l 265 50 q 317 76 294 61 q 356 115 339 92 q 383 170 372 138 q 399 249 393 203 l 457 249 q 431 134 450 179 q 385 60 413 89 q 327 14 358 31 q 265 -12 296 -3 l 265 -111 q 247 -231 265 -185 q 201 -303 229 -278 q 138 -338 172 -329 q 72 -347 104 -347 q -3 -336 32 -347 q -65 -305 -39 -325 q -106 -256 -90 -285 q -121 -190 -121 -226 q -104 -123 -121 -153 q -61 -71 -87 -93 q -1 -33 -35 -49 q 65 -6 32 -17 l 65 694 l 265 694 m 53 879 q 85 958 53 925 q 163 990 117 990 q 241 958 208 990 q 274 879 274 925 q 241 801 274 833 q 163 769 208 769 q 85 801 117 769 q 53 879 53 833 m -47 -178 q -28 -222 -47 -206 q 10 -239 -10 -239 q 50 -208 35 -239 q 65 -115 65 -178 l 65 -75 q -15 -119 18 -94 q -47 -178 -47 -144 z "},"k":{"ha":719,"x_min":65,"x_max":843,"o":"m 626 694 l 390 503 q 409 504 400 504 q 428 504 418 504 q 503 495 467 504 q 566 465 539 486 q 610 408 593 443 q 626 322 626 374 q 626 291 626 310 q 624 253 625 272 q 622 218 622 235 q 621 192 621 201 q 635 144 621 163 q 689 126 649 126 q 729 134 714 126 q 755 156 744 142 q 772 194 765 171 q 785 249 778 217 l 843 249 q 810 116 832 167 q 761 38 789 65 q 700 1 733 10 q 633 -8 667 -8 q 543 7 581 -8 q 481 49 506 22 q 445 110 457 75 q 433 183 433 144 q 435 231 433 200 q 436 286 436 261 q 423 364 436 335 q 365 393 410 393 q 299 369 322 393 q 265 310 276 344 l 265 0 l 65 0 l 65 944 l 265 972 l 265 483 l 489 694 l 626 694 z "},"l":{"ha":371,"x_min":65,"x_max":494,"o":"m 265 972 l 265 222 q 281 145 265 164 q 338 126 297 126 q 405 161 378 126 q 436 249 432 196 l 494 249 q 456 113 483 164 q 393 35 428 63 q 322 0 358 8 q 258 -8 286 -8 q 108 51 151 -8 q 65 207 65 110 l 65 944 l 265 972 z "},"<":{"ha":497,"x_min":35,"x_max":419,"o":"m 419 519 l 121 353 l 418 219 l 418 140 l 35 331 l 35 388 l 417 596 l 419 519 z "},"¬":{"ha":647,"x_min":57,"x_max":561,"o":"m 561 71 l 407 71 l 407 308 l 57 308 l 57 418 l 561 418 l 561 71 z "},"ł":{"ha":371,"x_min":-19,"x_max":494,"o":"m 265 972 l 265 635 l 410 742 l 422 657 l 265 542 l 265 222 q 281 145 265 164 q 338 126 297 126 q 405 161 378 126 q 436 249 432 196 l 494 249 q 456 113 483 164 q 393 35 428 63 q 322 0 358 8 q 258 -8 286 -8 q 108 51 151 -8 q 65 207 65 110 l 65 396 l -3 346 l -19 426 l 65 489 l 65 944 l 265 972 z "},"m":{"ha":1044,"x_min":65,"x_max":1168,"o":"m 763 419 q 743 538 763 503 q 690 574 724 574 q 631 535 650 574 q 608 446 613 497 l 608 0 l 408 0 l 408 479 q 406 513 408 496 q 396 544 403 531 q 377 566 389 557 q 347 575 365 575 q 290 537 310 575 q 265 446 269 499 l 265 0 l 65 0 l 65 694 l 265 694 l 265 622 q 340 687 299 672 q 417 701 381 701 q 513 676 468 701 q 585 582 557 651 q 623 643 601 619 q 667 679 644 667 q 713 696 690 692 q 757 700 736 700 q 831 688 796 700 q 894 645 867 675 q 936 566 921 615 q 951 444 951 517 q 951 399 951 426 q 949 344 950 372 q 947 290 947 317 q 946 246 946 264 q 960 156 946 186 q 1018 126 975 126 q 1057 135 1042 126 q 1082 161 1072 144 q 1098 200 1092 178 q 1110 249 1104 222 l 1168 249 q 1135 116 1157 167 q 1085 38 1113 65 q 1024 1 1057 10 q 960 -8 992 -8 q 808 63 856 -8 q 760 251 760 133 q 760 287 760 264 q 761 335 761 310 q 762 383 761 360 q 763 419 763 407 z "},"−":{"ha":650,"x_min":82,"x_max":568,"o":"m 568 308 l 82 308 l 82 418 l 568 418 l 568 308 z "},"µ":{"ha":701,"x_min":65,"x_max":839,"o":"m 610 694 l 610 222 q 624 148 610 169 q 674 126 638 126 q 751 163 726 126 q 781 249 775 199 l 839 249 q 800 113 828 164 q 738 35 772 63 q 667 0 703 8 q 601 -8 631 -8 q 488 26 526 -8 q 436 124 450 61 q 399 58 419 83 q 355 19 378 33 q 309 -1 332 4 q 265 -8 286 -7 l 265 -181 l 65 -231 l 65 694 l 265 694 l 265 222 q 280 148 265 169 q 322 126 294 126 q 385 161 360 126 q 410 249 410 196 l 410 694 l 610 694 z "},"×":{"ha":618,"x_min":60,"x_max":558,"o":"m 131 582 l 310 433 l 489 582 l 558 492 l 399 360 l 558 229 l 489 139 l 310 286 l 131 139 l 60 228 l 219 360 l 60 493 l 131 582 z "},"n":{"ha":701,"x_min":65,"x_max":825,"o":"m 419 419 q 401 538 419 503 q 347 574 382 574 q 312 563 326 574 q 288 533 297 551 q 272 492 278 515 q 265 446 267 469 l 265 0 l 65 0 l 65 694 l 265 694 l 265 622 q 338 685 297 671 q 414 700 378 700 q 488 688 453 700 q 551 645 524 675 q 593 566 578 615 q 608 444 608 517 q 608 399 608 426 q 606 344 607 372 q 603 290 604 317 q 603 246 603 264 q 615 156 603 186 q 671 126 628 126 q 737 161 718 126 q 767 249 756 196 l 825 249 q 792 115 814 165 q 742 37 769 64 q 682 1 714 10 q 619 -8 650 -8 q 465 63 513 -8 q 417 251 417 133 q 417 287 417 264 q 418 335 418 310 q 419 383 418 360 q 419 419 419 406 z "},"ń":{"ha":701,"x_min":65,"x_max":825,"o":"m 419 419 q 401 538 419 503 q 347 574 382 574 q 312 563 326 574 q 288 533 297 551 q 272 492 278 515 q 265 446 267 469 l 265 0 l 65 0 l 65 694 l 265 694 l 265 622 q 338 685 297 671 q 414 700 378 700 q 488 688 453 700 q 551 645 524 675 q 593 566 578 615 q 608 444 608 517 q 608 399 608 426 q 606 344 607 372 q 603 290 604 317 q 603 246 603 264 q 615 156 603 186 q 671 126 628 126 q 737 161 718 126 q 767 249 756 196 l 825 249 q 792 115 814 165 q 742 37 769 64 q 682 1 714 10 q 619 -8 650 -8 q 465 63 513 -8 q 417 251 417 133 q 417 287 417 264 q 418 335 418 310 q 419 383 418 360 q 419 419 419 406 m 389 1042 l 535 1042 l 422 779 l 318 779 l 389 1042 z "},"ñ":{"ha":701,"x_min":65,"x_max":825,"o":"m 419 419 q 401 538 419 503 q 347 574 382 574 q 312 563 326 574 q 288 533 297 551 q 272 492 278 515 q 265 446 267 469 l 265 0 l 65 0 l 65 694 l 265 694 l 265 622 q 338 685 297 671 q 414 700 378 700 q 488 688 453 700 q 551 645 524 675 q 593 566 578 615 q 608 444 608 517 q 608 399 608 426 q 606 344 607 372 q 603 290 604 317 q 603 246 603 264 q 615 156 603 186 q 671 126 628 126 q 737 161 718 126 q 767 249 756 196 l 825 249 q 792 115 814 165 q 742 37 769 64 q 682 1 714 10 q 619 -8 650 -8 q 465 63 513 -8 q 417 251 417 133 q 417 287 417 264 q 418 335 418 310 q 419 383 418 360 q 419 419 419 406 m 603 929 q 586 880 601 904 q 544 835 571 856 q 483 803 518 815 q 408 790 447 790 q 342 799 374 790 q 281 816 311 807 q 222 833 250 825 q 164 842 193 842 q 79 806 111 842 l 71 808 q 142 910 90 875 q 274 944 194 944 q 342 938 311 944 q 401 922 374 931 q 456 906 429 913 q 513 899 482 899 q 560 907 539 899 q 593 931 582 915 l 603 929 z "},"#":{"ha":774,"x_min":56,"x_max":719,"o":"m 467 154 l 300 154 l 300 -37 l 221 -37 l 221 154 l 56 154 l 56 296 l 221 296 l 221 453 l 56 453 l 56 594 l 221 594 l 221 997 l 300 997 l 300 594 l 467 594 l 467 997 l 546 997 l 546 594 l 719 594 l 719 453 l 546 453 l 546 296 l 719 296 l 719 154 l 546 154 l 546 -37 l 467 -37 l 467 154 m 300 296 l 467 296 l 467 453 l 300 453 l 300 296 z "},"o":{"ha":610,"x_min":42,"x_max":786,"o":"m 339 701 q 492 649 435 701 q 565 482 549 597 l 575 482 q 619 489 594 482 q 669 507 643 496 q 721 533 696 518 q 765 565 746 549 l 786 528 q 748 488 771 506 q 696 455 725 469 q 635 430 667 440 q 571 414 603 419 q 572 395 572 404 q 572 376 572 386 q 558 226 572 296 q 512 103 544 156 q 428 22 479 51 q 301 -8 376 -8 q 203 8 250 -8 q 121 60 157 24 q 63 158 85 97 q 42 306 42 218 q 54 434 42 365 q 100 563 67 503 q 191 662 133 622 q 339 701 249 701 m 340 122 q 391 142 369 122 q 426 198 413 163 q 447 282 440 233 q 453 388 453 331 l 453 408 q 408 435 418 415 q 399 478 399 454 q 408 522 399 507 q 433 543 418 538 q 397 604 418 590 q 360 618 375 618 q 308 590 329 618 q 272 517 286 561 q 252 421 258 474 q 246 319 246 368 q 255 218 246 257 q 278 158 264 179 q 308 130 292 138 q 340 122 325 122 z "},"ó":{"ha":610,"x_min":42,"x_max":786,"o":"m 339 701 q 492 649 435 701 q 565 482 549 597 l 575 482 q 619 489 594 482 q 669 507 643 496 q 721 533 696 518 q 765 565 746 549 l 786 528 q 748 488 771 506 q 696 455 725 469 q 635 430 667 440 q 571 414 603 419 q 572 395 572 404 q 572 376 572 386 q 558 226 572 296 q 512 103 544 156 q 428 22 479 51 q 301 -8 376 -8 q 203 8 250 -8 q 121 60 157 24 q 63 158 85 97 q 42 306 42 218 q 54 434 42 365 q 100 563 67 503 q 191 662 133 622 q 339 701 249 701 m 340 122 q 391 142 369 122 q 426 198 413 163 q 447 282 440 233 q 453 388 453 331 l 453 408 q 408 435 418 415 q 399 478 399 454 q 408 522 399 507 q 433 543 418 538 q 397 604 418 590 q 360 618 375 618 q 308 590 329 618 q 272 517 286 561 q 252 421 258 474 q 246 319 246 368 q 255 218 246 257 q 278 158 264 179 q 308 130 292 138 q 340 122 325 122 m 356 1042 l 501 1042 l 389 779 l 285 779 l 356 1042 z "},"ô":{"ha":610,"x_min":42,"x_max":786,"o":"m 339 701 q 492 649 435 701 q 565 482 549 597 l 575 482 q 619 489 594 482 q 669 507 643 496 q 721 533 696 518 q 765 565 746 549 l 786 528 q 748 488 771 506 q 696 455 725 469 q 635 430 667 440 q 571 414 603 419 q 572 395 572 404 q 572 376 572 386 q 558 226 572 296 q 512 103 544 156 q 428 22 479 51 q 301 -8 376 -8 q 203 8 250 -8 q 121 60 157 24 q 63 158 85 97 q 42 306 42 218 q 54 434 42 365 q 100 563 67 503 q 191 662 133 622 q 339 701 249 701 m 340 122 q 391 142 369 122 q 426 198 413 163 q 447 282 440 233 q 453 388 453 331 l 453 408 q 408 435 418 415 q 399 478 399 454 q 408 522 399 507 q 433 543 418 538 q 397 604 418 590 q 360 618 375 618 q 308 590 329 618 q 272 517 286 561 q 252 421 258 474 q 246 319 246 368 q 255 218 246 257 q 278 158 264 179 q 308 130 292 138 q 340 122 325 122 m 483 779 l 376 890 l 182 779 l 121 779 l 360 1042 l 389 1042 l 528 779 l 483 779 z "},"ö":{"ha":610,"x_min":42,"x_max":786,"o":"m 339 701 q 492 649 435 701 q 565 482 549 597 l 575 482 q 619 489 594 482 q 669 507 643 496 q 721 533 696 518 q 765 565 746 549 l 786 528 q 748 488 771 506 q 696 455 725 469 q 635 430 667 440 q 571 414 603 419 q 572 395 572 404 q 572 376 572 386 q 558 226 572 296 q 512 103 544 156 q 428 22 479 51 q 301 -8 376 -8 q 203 8 250 -8 q 121 60 157 24 q 63 158 85 97 q 42 306 42 218 q 54 434 42 365 q 100 563 67 503 q 191 662 133 622 q 339 701 249 701 m 340 122 q 391 142 369 122 q 426 198 413 163 q 447 282 440 233 q 453 388 453 331 l 453 408 q 408 435 418 415 q 399 478 399 454 q 408 522 399 507 q 433 543 418 538 q 397 604 418 590 q 360 618 375 618 q 308 590 329 618 q 272 517 286 561 q 252 421 258 474 q 246 319 246 368 q 255 218 246 257 q 278 158 264 179 q 308 130 292 138 q 340 122 325 122 m 122 881 q 147 940 122 915 q 207 965 171 965 q 267 940 242 965 q 292 881 292 915 q 267 820 292 844 q 207 796 242 796 q 147 820 171 796 q 122 881 122 844 m 372 881 q 397 940 372 915 q 457 965 421 965 q 517 940 492 965 q 542 881 542 915 q 517 820 542 844 q 457 796 492 796 q 397 820 421 796 q 372 881 372 844 z "},"œ":{"ha":928,"x_min":44,"x_max":1063,"o":"m 325 708 q 445 674 400 708 q 515 590 490 640 q 588 674 543 642 q 703 707 633 707 q 861 661 806 707 q 917 524 917 615 q 892 427 917 469 q 831 353 868 385 q 747 303 793 322 q 657 279 700 285 q 676 189 661 224 q 713 134 692 154 q 759 107 735 114 q 806 100 783 100 q 860 114 831 100 q 918 153 890 128 q 968 211 946 178 q 1000 283 990 244 l 1063 283 q 1015 178 1044 229 q 945 88 986 128 q 851 24 904 49 q 731 0 797 0 q 605 33 660 0 q 514 126 550 65 q 432 26 482 60 q 325 -8 382 -8 q 187 15 242 -8 q 101 83 132 38 q 57 198 69 129 q 44 357 44 267 q 66 514 44 447 q 126 624 88 581 q 215 688 164 667 q 325 708 267 708 m 361 126 q 406 142 388 126 q 435 184 424 157 q 451 246 446 211 q 457 321 457 281 q 453 394 457 357 q 398 419 417 394 q 379 475 379 443 q 390 522 379 500 q 421 554 400 544 q 394 608 410 589 q 349 626 378 626 q 293 599 315 626 q 258 529 271 571 q 239 439 244 488 q 233 349 233 390 q 243 235 233 278 q 270 167 253 192 q 311 135 288 143 q 361 126 335 126 m 833 528 q 831 556 833 538 q 820 591 828 574 q 799 621 813 608 q 765 633 786 633 q 717 606 738 633 q 684 535 697 578 q 664 442 671 492 q 656 346 657 392 q 731 362 697 346 q 787 403 764 378 q 822 462 810 429 q 833 528 833 494 z "},"˛":{"ha":404,"x_min":94,"x_max":363,"o":"m 265 7 q 222 -34 242 -4 q 201 -97 201 -64 q 219 -156 201 -126 q 272 -186 238 -186 q 317 -170 297 -186 q 357 -139 338 -154 l 363 -182 q 342 -209 354 -194 q 315 -237 331 -224 q 277 -259 299 -250 q 228 -268 256 -268 q 171 -256 196 -268 q 129 -224 146 -243 q 103 -183 113 -206 q 94 -137 94 -160 q 113 -67 94 -106 q 168 7 132 -28 l 265 7 z "},"ò":{"ha":610,"x_min":42,"x_max":786,"o":"m 339 701 q 492 649 435 701 q 565 482 549 597 l 575 482 q 619 489 594 482 q 669 507 643 496 q 721 533 696 518 q 765 565 746 549 l 786 528 q 748 488 771 506 q 696 455 725 469 q 635 430 667 440 q 571 414 603 419 q 572 395 572 404 q 572 376 572 386 q 558 226 572 296 q 512 103 544 156 q 428 22 479 51 q 301 -8 376 -8 q 203 8 250 -8 q 121 60 157 24 q 63 158 85 97 q 42 306 42 218 q 54 434 42 365 q 100 563 67 503 q 191 662 133 622 q 339 701 249 701 m 340 122 q 391 142 369 122 q 426 198 413 163 q 447 282 440 233 q 453 388 453 331 l 453 408 q 408 435 418 415 q 399 478 399 454 q 408 522 399 507 q 433 543 418 538 q 397 604 418 590 q 360 618 375 618 q 308 590 329 618 q 272 517 286 561 q 252 421 258 474 q 246 319 246 368 q 255 218 246 257 q 278 158 264 179 q 308 130 292 138 q 340 122 325 122 m 158 1042 l 304 1042 l 400 779 l 296 779 l 158 1042 z "},"ő":{"ha":610,"x_min":42,"x_max":786,"o":"m 339 701 q 492 649 435 701 q 565 482 549 597 l 575 482 q 619 489 594 482 q 669 507 643 496 q 721 533 696 518 q 765 565 746 549 l 786 528 q 748 488 771 506 q 696 455 725 469 q 635 430 667 440 q 571 414 603 419 q 572 395 572 404 q 572 376 572 386 q 558 226 572 296 q 512 103 544 156 q 428 22 479 51 q 301 -8 376 -8 q 203 8 250 -8 q 121 60 157 24 q 63 158 85 97 q 42 306 42 218 q 54 434 42 365 q 100 563 67 503 q 191 662 133 622 q 339 701 249 701 m 340 122 q 391 142 369 122 q 426 198 413 163 q 447 282 440 233 q 453 388 453 331 l 453 408 q 408 435 418 415 q 399 478 399 454 q 408 522 399 507 q 433 543 418 538 q 397 604 418 590 q 360 618 375 618 q 308 590 329 618 q 272 517 286 561 q 252 421 258 474 q 246 319 246 368 q 255 218 246 257 q 278 158 264 179 q 308 130 292 138 q 340 122 325 122 m 297 1042 l 429 1042 l 317 779 l 226 779 l 297 1042 m 478 1042 l 610 1042 l 497 779 l 407 779 l 478 1042 z "},"½":{"ha":956,"x_min":29,"x_max":917,"o":"m 294 -99 l 194 -99 l 556 1042 l 656 1042 l 294 -99 m 224 313 l 106 313 l 106 781 l 29 781 l 32 815 q 112 824 65 815 q 224 874 158 833 l 224 313 m 646 106 q 733 99 688 106 q 814 92 778 92 q 849 95 835 92 q 872 106 863 99 q 889 122 881 113 q 908 144 897 132 q 915 101 913 117 q 917 71 917 86 q 897 12 917 26 q 838 -3 878 -3 q 786 1 813 -3 q 736 8 760 4 q 692 16 713 13 q 658 19 671 19 q 617 17 635 19 q 576 4 600 15 q 569 24 574 14 q 565 53 565 33 q 581 117 565 88 q 620 175 597 147 q 671 231 643 203 q 722 290 699 258 q 760 358 744 321 q 776 440 776 394 q 774 471 776 456 q 765 499 772 486 q 744 519 757 511 q 711 526 732 526 q 666 513 685 526 q 647 467 647 499 q 653 438 647 453 q 679 417 660 424 q 651 397 667 403 q 619 390 635 390 q 578 413 590 390 q 565 461 565 436 q 605 539 565 510 q 725 568 644 568 q 808 556 775 568 q 859 525 840 544 q 885 481 878 506 q 893 429 893 456 q 861 322 893 365 q 787 242 829 278 q 703 175 744 207 q 646 106 663 143 z "},"¼":{"ha":943,"x_min":29,"x_max":907,"o":"m 268 -99 l 168 -99 l 529 1042 l 629 1042 l 268 -99 m 542 208 q 553 267 544 235 q 572 333 563 299 q 590 404 582 368 q 597 476 597 440 q 590 536 597 519 q 578 564 583 553 q 617 558 597 564 q 651 541 636 553 q 676 510 667 529 q 686 463 686 490 q 678 407 686 433 q 658 356 669 381 q 633 309 646 332 q 613 263 621 286 l 742 263 l 742 549 l 860 564 l 860 263 l 907 263 l 901 208 l 860 208 l 860 1 l 742 1 l 742 208 l 542 208 m 224 313 l 106 313 l 106 781 l 29 781 l 32 815 q 112 824 65 815 q 224 874 158 833 l 224 313 z "},"¹":{"ha":315,"x_min":35,"x_max":229,"o":"m 229 479 l 111 479 l 111 947 l 35 947 l 38 982 q 117 991 71 982 q 229 1040 164 1000 l 229 479 z "},"ª":{"ha":493,"x_min":56,"x_max":449,"o":"m 392 772 q 398 734 392 749 q 428 719 404 719 q 438 719 432 719 q 449 722 443 719 q 438 683 446 697 q 422 663 431 669 q 403 654 413 656 q 385 653 393 653 q 323 672 343 653 q 290 728 303 692 q 253 674 278 700 q 183 649 228 649 q 124 665 149 649 q 85 706 100 681 q 63 763 69 731 q 56 828 56 794 q 64 899 56 863 q 90 967 72 936 q 135 1016 107 997 q 204 1035 164 1035 q 247 1028 229 1035 q 276 1013 264 1022 l 276 1028 l 396 1028 l 392 772 m 236 988 q 204 974 218 988 q 181 938 190 960 q 167 888 172 915 q 163 833 163 860 q 169 774 163 797 q 185 736 175 750 q 205 717 194 722 q 224 711 215 711 q 256 731 243 711 q 276 778 269 751 l 276 975 q 236 988 253 988 z "},"º":{"ha":426,"x_min":57,"x_max":386,"o":"m 338 932 q 358 951 351 942 q 375 976 364 961 l 386 961 q 376 917 383 940 q 346 881 369 893 q 351 849 350 861 q 353 826 353 838 q 340 748 353 782 q 308 692 328 714 q 265 658 289 669 q 215 647 240 647 q 92 692 128 647 q 57 840 57 738 q 105 988 57 940 q 222 1035 153 1035 q 279 1024 253 1035 q 306 996 306 1014 q 297 976 306 982 q 276 965 288 969 q 235 992 261 992 q 201 976 214 992 q 180 938 188 961 q 169 888 172 915 q 165 839 165 861 q 170 780 165 803 q 183 744 175 757 q 203 726 192 731 q 228 721 215 721 q 280 753 267 721 q 293 828 293 786 q 292 849 293 839 q 290 871 292 860 q 268 885 274 874 q 263 908 263 896 q 275 942 263 926 q 306 958 288 958 q 328 953 321 958 q 338 932 335 947 z "},"ø":{"ha":610,"x_min":42,"x_max":779,"o":"m 313 -143 l 313 -8 q 206 10 256 -7 q 119 65 156 28 q 63 163 83 103 q 42 310 42 224 q 54 433 42 367 q 97 558 67 500 q 181 656 128 615 q 313 700 233 696 l 313 840 l 383 840 l 383 696 q 557 496 519 669 q 608 508 582 499 q 658 528 635 517 q 701 554 682 540 q 735 579 721 568 l 779 579 q 749 536 769 558 q 701 493 729 514 q 639 455 672 472 q 568 426 606 438 q 572 350 572 390 q 522 117 572 210 q 385 0 471 25 l 385 -143 l 313 -143 m 350 122 q 392 142 372 122 q 424 198 411 163 q 445 280 438 233 q 453 381 453 326 q 452 397 453 389 q 451 411 451 404 q 406 437 421 415 q 392 494 392 458 q 403 535 392 518 q 432 553 415 551 q 397 606 417 593 q 358 618 378 618 q 309 590 331 618 q 274 517 288 561 q 253 422 260 474 q 246 322 246 369 q 255 216 246 256 q 278 156 264 176 q 312 128 293 135 q 350 122 331 122 z "},"õ":{"ha":610,"x_min":42,"x_max":786,"o":"m 339 701 q 492 649 435 701 q 565 482 549 597 l 575 482 q 619 489 594 482 q 669 507 643 496 q 721 533 696 518 q 765 565 746 549 l 786 528 q 748 488 771 506 q 696 455 725 469 q 635 430 667 440 q 571 414 603 419 q 572 395 572 404 q 572 376 572 386 q 558 226 572 296 q 512 103 544 156 q 428 22 479 51 q 301 -8 376 -8 q 203 8 250 -8 q 121 60 157 24 q 63 158 85 97 q 42 306 42 218 q 54 434 42 365 q 100 563 67 503 q 191 662 133 622 q 339 701 249 701 m 340 122 q 391 142 369 122 q 426 198 413 163 q 447 282 440 233 q 453 388 453 331 l 453 408 q 408 435 418 415 q 399 478 399 454 q 408 522 399 507 q 433 543 418 538 q 397 604 418 590 q 360 618 375 618 q 308 590 329 618 q 272 517 286 561 q 252 421 258 474 q 246 319 246 368 q 255 218 246 257 q 278 158 264 179 q 308 130 292 138 q 340 122 325 122 m 594 929 q 578 880 593 904 q 536 835 563 856 q 474 803 510 815 q 400 790 439 790 q 334 799 365 790 q 272 816 303 807 q 213 833 242 825 q 156 842 185 842 q 71 806 103 842 l 63 808 q 134 910 82 875 q 265 944 186 944 q 334 938 303 944 q 393 922 365 931 q 447 906 421 913 q 504 899 474 899 q 552 907 531 899 q 585 931 574 915 l 594 929 z "},"p":{"ha":650,"x_min":65,"x_max":649,"o":"m 265 746 l 265 642 q 325 684 289 667 q 413 701 361 701 q 502 683 460 701 q 577 626 544 665 q 629 521 610 586 q 649 363 649 456 q 637 229 649 296 q 596 110 625 163 q 517 24 567 57 q 394 -8 468 -8 q 311 6 342 -8 q 265 40 281 21 l 265 -297 l 65 -347 l 65 746 l 265 746 m 328 113 q 389 137 364 113 q 428 200 414 161 q 449 287 443 239 q 456 382 456 335 q 442 503 456 458 q 411 569 429 547 q 376 596 393 590 q 349 601 358 601 q 300 584 324 601 q 265 532 276 567 l 265 144 q 288 123 272 133 q 328 113 303 113 z "},"¶":{"ha":719,"x_min":32,"x_max":628,"o":"m 439 471 q 494 476 476 471 l 494 792 q 478 892 494 857 q 439 947 463 928 l 439 471 m 442 -112 l 311 -112 l 311 399 q 192 444 244 410 q 105 526 140 478 q 51 631 69 574 q 32 749 32 689 q 49 856 32 803 q 99 949 65 908 q 186 1015 133 990 q 311 1040 239 1040 q 429 1023 372 1040 q 531 967 486 1006 q 601 865 575 928 q 628 711 628 803 l 628 -112 l 496 -112 l 496 415 q 467 406 481 410 q 440 400 454 403 l 442 -112 z "},"(":{"ha":388,"x_min":53,"x_max":376,"o":"m 371 986 q 280 892 319 958 q 213 738 240 826 q 172 547 186 650 q 158 342 158 444 q 210 -12 158 156 q 376 -307 263 -179 l 340 -347 q 124 -37 194 -217 q 53 347 53 143 q 71 562 53 454 q 125 763 89 669 q 215 931 161 857 q 340 1042 269 1004 l 371 986 z "},")":{"ha":389,"x_min":11,"x_max":336,"o":"m 18 -292 q 108 -198 69 -264 q 174 -44 147 -132 q 215 147 201 43 q 229 353 229 250 q 176 708 229 542 q 11 1001 124 875 l 49 1042 q 265 731 193 911 q 336 346 336 551 q 318 131 336 239 q 263 -70 300 24 q 172 -237 226 -164 q 47 -347 118 -310 l 18 -292 z "},"%":{"ha":883,"x_min":36,"x_max":849,"o":"m 282 0 l 182 0 l 619 1042 l 719 1042 l 282 0 m 208 975 q 284 956 254 975 q 331 906 314 938 q 356 835 349 875 q 363 756 363 796 q 354 675 363 717 q 328 599 346 633 q 281 542 310 564 q 213 519 253 519 q 140 531 172 519 q 84 570 107 543 q 49 642 61 597 q 36 751 36 686 q 47 839 36 799 q 80 910 58 879 q 134 958 101 940 q 208 975 167 975 m 136 763 q 138 709 136 742 q 145 646 139 676 q 165 593 151 615 q 206 571 179 571 q 239 585 225 571 q 263 622 253 599 q 276 675 272 644 q 281 739 281 706 q 274 831 281 794 q 258 888 268 867 q 237 918 249 910 q 214 926 225 926 q 163 885 189 926 q 136 763 136 843 m 694 456 q 770 437 740 456 q 817 387 800 418 q 842 316 835 356 q 849 236 849 276 q 840 156 849 197 q 814 79 832 114 q 767 22 796 44 q 699 0 739 0 q 626 12 658 0 q 570 51 593 24 q 535 122 547 78 q 522 232 522 167 q 533 319 522 279 q 566 390 544 360 q 620 438 588 421 q 694 456 653 456 m 622 243 q 624 190 622 222 q 631 126 625 157 q 651 74 638 96 q 692 51 665 51 q 725 65 711 51 q 749 102 739 79 q 763 156 758 125 q 767 219 767 186 q 760 311 767 275 q 744 369 754 347 q 723 399 735 390 q 700 407 711 407 q 649 365 675 407 q 622 243 622 324 z "},".":{"ha":329,"x_min":54,"x_max":275,"o":"m 54 110 q 86 188 54 156 q 164 221 118 221 q 242 188 210 221 q 275 110 275 156 q 242 32 275 64 q 164 0 210 0 q 86 32 118 0 q 54 110 54 64 z "},"·":{"ha":385,"x_min":58,"x_max":326,"o":"m 58 371 q 69 423 58 399 q 97 466 79 447 q 140 495 115 485 q 192 506 164 506 q 244 495 219 506 q 287 466 268 485 q 316 423 306 447 q 326 371 326 399 q 316 319 326 343 q 287 276 306 294 q 244 248 268 258 q 192 238 219 238 q 97 276 136 238 q 58 371 58 315 z "},"‰":{"ha":1299,"x_min":38,"x_max":1267,"o":"m 283 0 l 183 0 l 621 1042 l 721 1042 l 283 0 m 210 975 q 285 956 256 975 q 333 906 315 938 q 357 835 350 875 q 364 756 364 796 q 356 675 364 717 q 329 599 347 633 q 283 542 311 564 q 214 519 254 519 q 141 531 174 519 q 85 570 108 543 q 50 642 63 597 q 38 751 38 686 q 49 839 38 799 q 81 910 60 879 q 135 958 103 940 q 210 975 168 975 m 138 763 q 139 709 138 742 q 147 646 140 676 q 167 593 153 615 q 207 571 181 571 q 240 585 226 571 q 264 622 254 599 q 278 675 274 644 q 282 739 282 706 q 276 831 282 794 q 260 888 269 867 q 238 918 250 910 q 215 926 226 926 q 164 885 190 926 q 138 763 138 843 m 696 456 q 772 437 742 456 q 819 387 801 418 q 843 316 836 356 q 850 236 850 276 q 842 156 850 197 q 815 79 833 114 q 769 22 797 44 q 700 0 740 0 q 627 12 660 0 q 572 51 594 24 q 536 122 549 78 q 524 232 524 167 q 535 319 524 279 q 567 390 546 360 q 622 438 589 421 q 696 456 654 456 m 624 243 q 625 190 624 222 q 633 126 626 157 q 653 74 639 96 q 693 51 667 51 q 726 65 713 51 q 750 102 740 79 q 764 156 760 125 q 768 219 768 186 q 762 311 768 275 q 746 369 756 347 q 724 399 736 390 q 701 407 713 407 q 650 365 676 407 q 624 243 624 324 m 1113 456 q 1188 437 1158 456 q 1235 387 1218 418 q 1260 316 1253 356 q 1267 236 1267 276 q 1258 156 1267 197 q 1232 79 1250 114 q 1185 22 1214 44 q 1117 0 1157 0 q 1044 12 1076 0 q 988 51 1011 24 q 953 122 965 78 q 940 232 940 167 q 951 319 940 279 q 984 390 963 360 q 1038 438 1006 421 q 1113 456 1071 456 m 1040 243 q 1042 190 1040 222 q 1049 126 1043 157 q 1069 74 1056 96 q 1110 51 1083 51 q 1143 65 1129 51 q 1167 102 1157 79 q 1181 156 1176 125 q 1185 219 1185 186 q 1178 311 1185 275 q 1163 369 1172 347 q 1141 399 1153 390 q 1118 407 1129 407 q 1067 365 1093 407 q 1040 243 1040 324 z "},"+":{"ha":615,"x_min":51,"x_max":564,"o":"m 386 440 l 564 440 l 564 285 l 385 285 l 385 114 l 228 114 l 228 285 l 51 285 l 51 440 l 231 440 l 231 610 l 386 610 l 386 440 z "},"±":{"ha":664,"x_min":76,"x_max":589,"o":"m 411 585 l 589 585 l 589 429 l 410 429 l 410 258 l 256 258 l 256 429 l 76 429 l 76 585 l 256 585 l 256 754 l 413 754 l 411 585 m 586 94 l 76 94 l 76 204 l 586 204 l 586 94 z "},"q":{"ha":675,"x_min":42,"x_max":636,"o":"m 636 694 l 636 -297 l 436 -347 l 436 68 q 376 14 413 36 q 286 -8 340 -8 q 199 8 242 -8 q 120 63 156 25 q 63 162 85 100 q 42 314 42 224 q 56 446 42 378 q 102 571 71 514 q 184 665 133 628 q 307 701 235 701 q 343 699 324 701 q 380 690 363 697 q 413 669 397 683 q 436 632 428 656 l 436 694 l 636 694 m 369 615 q 312 587 336 615 q 273 516 288 558 q 251 423 258 474 q 244 326 244 372 q 256 212 244 253 q 283 152 267 171 q 317 130 299 133 q 347 126 335 126 q 402 151 375 126 q 436 225 429 176 l 436 567 q 415 597 431 579 q 369 615 400 615 z "},"?":{"ha":583,"x_min":33,"x_max":549,"o":"m 549 761 q 533 663 549 704 q 492 590 517 622 q 438 529 467 557 q 381 472 408 501 q 334 406 354 442 q 308 322 314 369 l 217 322 q 213 364 213 344 q 239 464 213 419 q 297 552 265 508 q 356 644 329 596 q 382 757 382 692 q 353 866 382 835 q 279 897 325 897 q 204 865 229 897 q 179 792 179 832 q 196 731 179 760 q 244 690 213 701 q 209 647 233 661 q 156 632 185 632 q 70 669 107 632 q 33 779 33 707 q 46 847 33 813 q 88 908 58 881 q 168 954 118 936 q 294 972 218 972 q 430 950 379 972 q 507 895 481 928 q 541 826 533 863 q 549 761 549 790 m 147 110 q 179 188 147 156 q 257 221 211 221 q 335 188 303 221 q 368 110 368 156 q 335 32 368 64 q 257 0 303 0 q 179 32 211 0 q 147 110 147 64 z "},"¿":{"ha":578,"x_min":32,"x_max":547,"o":"m 32 -132 q 48 -34 32 -75 q 89 40 64 7 q 143 100 114 72 q 199 158 172 128 q 247 223 226 188 q 272 307 267 258 l 364 307 q 368 265 368 283 q 342 165 368 208 q 283 77 315 121 q 225 -15 251 33 q 199 -128 199 -64 q 227 -237 199 -206 q 301 -268 256 -268 q 376 -235 351 -268 q 401 -162 401 -203 q 385 -101 401 -131 q 336 -61 368 -72 q 372 -17 347 -32 q 425 -3 396 -3 q 510 -40 474 -3 q 547 -150 547 -78 q 535 -217 547 -183 q 492 -279 522 -251 q 413 -325 463 -307 q 286 -343 363 -343 q 150 -321 200 -343 q 74 -266 100 -299 q 40 -197 47 -233 q 32 -132 32 -161 m 433 519 q 401 441 433 474 q 324 408 369 408 q 245 441 278 408 q 213 519 213 474 q 245 597 213 565 q 324 629 278 629 q 401 597 369 629 q 433 519 433 565 z "},"\"":{"ha":485,"x_min":57,"x_max":450,"o":"m 86 1042 l 232 1042 l 161 779 l 57 779 l 86 1042 m 304 1042 l 450 1042 l 379 779 l 275 779 l 304 1042 z "},"„":{"ha":606,"x_min":53,"x_max":549,"o":"m 53 106 q 82 174 53 146 q 154 203 111 203 q 220 177 197 203 q 243 111 243 151 q 199 -7 243 57 q 75 -122 154 -71 q 63 -103 63 -115 l 131 -6 q 114 18 131 7 q 70 55 88 33 q 53 106 53 76 m 358 106 q 388 174 358 146 q 460 203 417 203 q 526 177 503 203 q 549 111 549 151 q 504 -7 549 57 q 381 -122 460 -71 q 368 -103 368 -115 l 436 -6 q 419 18 436 7 q 376 55 393 33 q 358 106 358 76 z "},"“":{"ha":596,"x_min":47,"x_max":543,"o":"m 543 811 q 514 742 543 771 q 442 714 485 714 q 376 740 399 714 q 353 806 353 765 q 397 924 353 860 q 521 1039 442 988 q 533 1019 533 1032 l 465 922 q 482 899 465 908 q 526 862 508 883 q 543 811 543 840 m 238 811 q 208 742 238 771 q 136 714 179 714 q 70 740 93 714 q 47 806 47 765 q 92 924 47 860 q 215 1039 136 988 q 228 1019 228 1032 l 160 922 q 176 899 160 908 q 220 862 203 883 q 238 811 238 840 z "},"”":{"ha":594,"x_min":58,"x_max":554,"o":"m 58 942 q 88 1010 58 982 q 160 1039 117 1039 q 226 1013 203 1039 q 249 947 249 988 q 204 829 249 893 q 81 714 160 765 q 68 733 68 721 l 136 831 q 119 854 136 843 q 76 891 93 869 q 58 942 58 913 m 364 942 q 393 1010 364 982 q 465 1039 422 1039 q 531 1013 508 1039 q 554 947 554 988 q 510 829 554 893 q 386 714 465 765 q 374 733 374 721 l 442 831 q 425 854 442 843 q 381 891 399 869 q 364 942 364 913 z "},"‘":{"ha":290,"x_min":47,"x_max":238,"o":"m 238 811 q 208 742 238 771 q 136 714 179 714 q 70 740 93 714 q 47 806 47 765 q 92 924 47 860 q 215 1039 136 988 q 228 1019 228 1032 l 160 922 q 176 899 160 908 q 220 862 203 883 q 238 811 238 840 z "},"’":{"ha":289,"x_min":58,"x_max":249,"o":"m 58 942 q 88 1010 58 982 q 160 1039 117 1039 q 226 1013 203 1039 q 249 947 249 988 q 204 829 249 893 q 81 714 160 765 q 68 733 68 721 l 136 831 q 119 854 136 843 q 76 891 93 869 q 58 942 58 913 z "},"‚":{"ha":300,"x_min":53,"x_max":243,"o":"m 53 106 q 82 174 53 146 q 154 203 111 203 q 220 177 197 203 q 243 111 243 151 q 199 -7 243 57 q 75 -122 154 -71 q 63 -103 63 -115 l 131 -6 q 114 18 131 7 q 70 55 88 33 q 53 106 53 76 z "},"'":{"ha":267,"x_min":57,"x_max":232,"o":"m 86 1042 l 232 1042 l 161 779 l 57 779 l 86 1042 z "},"r":{"ha":522,"x_min":65,"x_max":535,"o":"m 265 694 l 265 608 q 333 673 296 644 q 415 701 371 701 q 463 690 442 701 q 501 661 485 679 q 526 622 517 643 q 535 578 535 600 q 516 522 535 547 q 454 496 497 496 q 410 510 422 496 q 390 540 397 524 q 376 569 383 556 q 349 583 368 583 q 308 567 328 583 q 265 528 288 551 l 265 0 l 65 0 l 65 694 l 265 694 z "},"®":{"ha":769,"x_min":49,"x_max":721,"o":"m 385 110 q 254 138 315 110 q 147 213 193 165 q 75 326 101 261 q 49 464 49 390 q 75 603 49 539 q 147 716 101 668 q 254 792 193 764 q 385 819 315 819 q 514 792 453 819 q 621 717 575 765 q 694 605 667 669 q 721 465 721 540 q 694 326 721 390 q 621 213 667 261 q 514 138 575 165 q 385 110 453 110 m 113 464 q 134 347 113 401 q 193 253 156 293 q 281 191 231 214 q 388 168 331 168 q 493 191 443 168 q 581 253 543 214 q 640 347 618 293 q 661 464 661 401 q 640 581 661 526 q 581 674 618 635 q 493 737 543 714 q 388 760 443 760 q 281 737 331 760 q 193 674 231 714 q 134 581 156 635 q 113 464 113 526 m 253 671 l 388 671 q 501 641 461 671 q 540 554 540 611 q 517 487 540 515 q 458 447 494 458 l 549 274 l 483 264 l 397 438 l 315 438 l 315 267 l 251 267 l 253 671 m 315 490 l 378 490 q 410 492 393 490 q 442 501 428 494 q 467 520 457 508 q 476 551 476 532 q 451 601 476 588 q 392 614 426 614 l 315 614 l 315 490 z "},"˚":{"ha":217,"x_min":-186,"x_max":33,"o":"m -71 990 q -22 981 -42 990 q 10 956 -1 971 q 28 921 22 940 q 33 882 33 901 q 7 802 33 838 q -75 767 -19 767 q -158 801 -129 767 q -186 879 -186 836 q -158 956 -186 922 q -71 990 -129 990 m -18 878 q -29 924 -18 903 q -72 944 -40 944 q -113 928 -96 944 q -131 879 -131 913 q -117 835 -131 854 q -72 815 -104 815 q -31 832 -44 815 q -18 878 -18 849 z "},"s":{"ha":531,"x_min":33,"x_max":654,"o":"m 654 249 q 563 142 611 183 q 472 71 514 100 q 382 10 436 28 q 278 -8 328 -8 q 171 11 217 -8 q 94 60 125 31 q 49 127 64 90 q 33 197 33 164 q 48 261 33 235 q 85 299 63 288 q 152 505 125 403 q 190 710 179 607 l 390 738 q 449 519 425 603 q 486 378 472 435 q 506 281 500 322 q 511 188 511 239 l 511 179 q 596 249 561 214 l 654 249 m 194 236 q 182 198 194 215 q 146 181 169 181 q 123 184 135 181 q 104 199 111 188 q 140 126 115 150 q 210 101 164 101 q 279 123 250 101 q 308 199 308 144 q 304 266 308 236 q 291 333 300 296 q 267 422 282 371 q 232 551 253 474 q 198 423 218 485 q 156 294 178 361 q 183 273 171 288 q 194 236 194 258 z "},"ś":{"ha":531,"x_min":33,"x_max":654,"o":"m 654 249 q 563 142 611 183 q 472 71 514 100 q 382 10 436 28 q 278 -8 328 -8 q 171 11 217 -8 q 94 60 125 31 q 49 127 64 90 q 33 197 33 164 q 48 261 33 235 q 85 299 63 288 q 152 505 125 403 q 190 710 179 607 l 390 738 q 449 519 425 603 q 486 378 472 435 q 506 281 500 322 q 511 188 511 239 l 511 179 q 596 249 561 214 l 654 249 m 194 236 q 182 198 194 215 q 146 181 169 181 q 123 184 135 181 q 104 199 111 188 q 140 126 115 150 q 210 101 164 101 q 279 123 250 101 q 308 199 308 144 q 304 266 308 236 q 291 333 300 296 q 267 422 282 371 q 232 551 253 474 q 198 423 218 485 q 156 294 178 361 q 183 273 171 288 q 194 236 194 258 m 283 1042 l 429 1042 l 317 779 l 213 779 l 283 1042 z "},"š":{"ha":531,"x_min":33,"x_max":654,"o":"m 654 249 q 563 142 611 183 q 472 71 514 100 q 382 10 436 28 q 278 -8 328 -8 q 171 11 217 -8 q 94 60 125 31 q 49 127 64 90 q 33 197 33 164 q 48 261 33 235 q 85 299 63 288 q 152 505 125 403 q 190 710 179 607 l 390 738 q 449 519 425 603 q 486 378 472 435 q 506 281 500 322 q 511 188 511 239 l 511 179 q 596 249 561 214 l 654 249 m 194 236 q 182 198 194 215 q 146 181 169 181 q 123 184 135 181 q 104 199 111 188 q 140 126 115 150 q 210 101 164 101 q 279 123 250 101 q 308 199 308 144 q 304 266 308 236 q 291 333 300 296 q 267 422 282 371 q 232 551 253 474 q 198 423 218 485 q 156 294 178 361 q 183 273 171 288 q 194 236 194 258 m 147 1042 l 254 931 l 449 1042 l 510 1042 l 271 779 l 242 779 l 103 1042 l 147 1042 z "},"§":{"ha":722,"x_min":50,"x_max":688,"o":"m 607 888 q 589 821 607 844 q 535 797 571 797 q 508 801 522 797 q 479 819 494 806 q 503 852 494 831 q 511 896 511 874 q 488 961 511 932 q 417 990 464 990 q 340 954 367 990 q 313 868 313 918 q 340 778 313 815 q 410 710 368 740 q 500 650 451 679 q 590 583 549 621 q 660 497 632 546 q 688 378 688 449 q 659 258 688 310 q 572 190 631 206 q 576 143 576 167 q 512 -18 576 39 q 325 -75 447 -75 q 242 -68 289 -75 q 151 -38 194 -61 q 79 27 108 -15 q 50 140 50 69 q 79 244 50 210 q 153 278 108 278 q 224 255 194 278 q 276 208 254 232 q 203 184 222 203 q 183 125 183 165 q 190 76 183 100 q 213 35 197 53 q 255 6 229 17 q 317 -6 281 -6 q 393 22 374 -6 q 413 97 413 49 q 387 211 413 164 q 322 294 361 258 q 238 358 283 329 q 153 417 192 386 q 88 488 114 449 q 63 581 63 526 q 90 678 63 638 q 164 740 118 718 q 146 833 146 785 q 167 928 146 889 q 224 993 189 968 q 303 1030 258 1018 q 393 1042 347 1042 q 449 1038 413 1042 q 520 1018 485 1033 q 581 972 556 1003 q 607 888 607 942 m 558 315 q 520 429 558 383 q 428 513 482 475 q 313 588 374 551 q 210 671 253 624 q 196 636 196 660 q 216 581 196 607 q 269 530 236 556 q 341 477 301 504 q 420 418 381 450 q 494 349 460 386 q 550 264 528 311 q 558 315 558 285 z "},";":{"ha":378,"x_min":75,"x_max":299,"o":"m 75 521 q 107 599 75 567 q 185 632 139 632 q 263 599 231 632 q 296 521 296 567 q 263 443 296 475 q 185 411 231 411 q 107 443 139 411 q 75 521 75 475 m 86 124 q 115 192 86 163 q 185 221 144 221 q 269 179 240 221 q 299 78 299 138 q 290 15 299 49 q 266 -53 282 -19 q 226 -118 250 -86 q 172 -175 203 -150 q 156 -159 160 -168 q 153 -142 153 -150 q 158 -112 153 -126 q 172 -85 164 -99 q 185 -57 179 -71 q 190 -28 190 -43 q 174 3 190 -10 q 138 31 158 17 q 102 67 118 46 q 86 124 86 89 z "},"/":{"ha":731,"x_min":21,"x_max":711,"o":"m 121 -347 l 21 -347 l 611 1042 l 711 1042 l 121 -347 z "}," ":{"ha":299,"x_min":0,"x_max":0,"o":""},"£":{"ha":678,"x_min":33,"x_max":647,"o":"m 565 586 q 549 537 564 561 q 507 492 533 513 q 445 460 481 472 q 371 447 410 447 q 358 447 364 447 q 344 449 351 447 l 344 126 q 413 131 379 131 q 482 137 446 131 q 558 161 518 143 q 644 219 597 179 q 647 192 646 206 q 647 167 647 179 q 621 44 647 89 q 546 0 594 0 l 136 0 l 136 499 l 126 499 q 42 463 74 499 l 33 465 q 136 583 56 549 l 136 999 l 344 1042 l 344 583 q 408 565 378 574 q 475 556 439 556 q 523 564 501 556 q 556 588 544 572 l 565 586 z "},"t":{"ha":371,"x_min":21,"x_max":494,"o":"m 265 914 l 265 694 l 350 694 l 350 639 l 265 639 l 265 222 q 281 145 265 164 q 338 126 297 126 q 405 161 378 126 q 436 249 432 196 l 494 249 q 456 113 483 164 q 393 35 428 63 q 322 0 358 8 q 258 -8 286 -8 q 108 51 151 -8 q 65 207 65 110 l 65 639 l 21 639 l 21 694 l 65 694 l 65 886 l 265 914 z "},"þ":{"ha":657,"x_min":-43,"x_max":649,"o":"m 64 674 q 59 765 64 725 q 42 841 54 806 q 10 908 31 876 q -43 972 -11 939 l 19 972 q 103 926 63 951 q 176 863 143 900 q 231 771 208 825 q 260 638 253 717 q 321 683 283 665 q 414 701 358 701 q 503 684 460 701 q 578 626 546 667 q 629 517 610 585 q 649 347 649 449 q 637 225 649 288 q 596 110 625 163 q 517 25 567 58 q 393 -8 468 -8 q 309 8 340 -8 q 263 43 278 24 l 263 -297 l 64 -347 l 64 674 m 325 113 q 388 137 363 113 q 427 199 413 161 q 448 281 442 236 q 454 367 454 326 q 442 497 454 450 q 413 567 429 543 q 377 596 396 590 q 346 601 358 601 q 298 583 322 601 q 263 528 274 564 l 263 149 q 285 124 269 136 q 325 113 300 113 z "},"¾":{"ha":1083,"x_min":35,"x_max":1051,"o":"m 400 -99 l 300 -99 l 661 1042 l 761 1042 l 400 -99 m 183 500 q 139 478 150 497 q 128 433 128 460 q 135 393 128 408 q 153 369 142 378 q 177 358 164 361 q 201 356 190 356 q 244 364 228 356 q 272 386 261 372 q 286 418 282 400 q 290 454 290 436 q 257 556 290 507 q 153 626 224 606 q 237 679 207 640 q 267 758 267 718 q 249 810 267 788 q 193 833 232 833 q 139 789 139 833 q 150 749 139 769 q 182 722 161 728 q 125 696 157 696 q 74 718 96 696 q 53 774 53 740 q 91 845 53 817 q 200 874 129 874 q 275 863 243 874 q 328 834 307 851 q 361 794 350 817 q 372 747 372 771 q 349 679 372 711 q 283 625 326 647 q 381 568 350 607 q 413 485 413 529 q 403 431 413 461 q 369 373 393 400 q 302 327 344 346 q 196 308 260 308 q 163 310 189 308 q 108 326 136 313 q 57 366 79 339 q 35 443 35 393 q 55 513 35 488 q 115 538 75 538 q 156 528 139 538 q 183 500 174 519 m 686 208 q 698 267 689 235 q 717 333 707 299 q 734 404 726 368 q 742 476 742 440 q 735 536 742 519 q 722 564 728 553 q 761 558 742 564 q 796 541 781 553 q 821 510 811 529 q 831 463 831 490 q 822 407 831 433 q 802 356 814 381 q 778 309 790 332 q 757 263 765 286 l 886 263 l 886 549 l 1004 564 l 1004 263 l 1051 263 l 1046 208 l 1004 208 l 1004 1 l 886 1 l 886 208 l 686 208 z "},"³":{"ha":482,"x_min":56,"x_max":433,"o":"m 204 667 q 160 645 171 664 q 149 600 149 626 q 156 560 149 575 q 174 536 163 544 q 198 525 185 528 q 222 522 211 522 q 265 531 249 522 q 292 553 282 539 q 307 585 303 567 q 311 621 311 603 q 278 723 311 674 q 174 793 244 772 q 258 846 228 807 q 288 925 288 885 q 270 977 288 954 q 214 1000 253 1000 q 160 956 160 1000 q 171 915 160 936 q 203 889 182 894 q 146 863 178 863 q 95 885 117 863 q 74 940 74 907 q 112 1012 74 983 q 221 1040 150 1040 q 296 1029 264 1040 q 349 1001 328 1018 q 382 960 371 983 q 393 914 393 938 q 370 846 393 878 q 304 792 347 814 q 402 735 371 774 q 433 651 433 696 q 424 597 433 628 q 390 540 414 567 q 323 494 365 513 q 217 475 281 475 q 183 477 210 475 q 128 492 157 479 q 78 533 100 506 q 56 610 56 560 q 76 679 56 654 q 136 704 96 704 q 177 695 160 704 q 204 667 194 686 z "},"˜":{"ha":560,"x_min":-119,"x_max":413,"o":"m 413 929 q 396 880 411 904 q 354 835 381 856 q 292 803 328 815 q 218 790 257 790 q 152 799 183 790 q 90 816 121 807 q 31 833 60 825 q -26 842 3 842 q -111 806 -79 842 l -119 808 q -48 910 -100 875 q 83 944 4 944 q 152 938 121 944 q 211 922 183 931 q 265 906 239 913 q 322 899 292 899 q 370 907 349 899 q 403 931 392 915 l 413 929 z "},"™":{"ha":688,"x_min":69,"x_max":618,"o":"m 571 601 l 549 811 l 511 601 l 443 601 l 407 815 l 388 601 l 354 601 l 385 907 l 440 907 l 488 667 l 532 908 l 597 908 l 618 601 l 571 601 m 239 601 l 178 601 l 178 878 q 129 864 149 876 q 110 815 110 851 q 115 778 110 785 q 125 765 121 772 q 83 779 97 765 q 69 825 69 793 q 97 888 69 861 q 190 914 124 914 q 234 910 203 914 q 296 907 265 907 q 324 908 311 907 q 346 914 338 910 q 340 877 346 894 q 319 860 333 860 q 281 864 301 860 q 239 872 260 868 l 239 601 z "},"²":{"ha":478,"x_min":67,"x_max":418,"o":"m 147 578 q 234 571 189 578 q 315 564 279 564 q 350 567 336 564 q 373 578 364 571 q 390 594 382 585 q 410 617 399 604 q 416 574 414 589 q 418 543 418 558 q 399 484 418 499 q 339 469 379 469 q 288 473 314 469 q 238 481 261 476 q 193 488 214 485 q 160 492 172 492 q 119 490 136 492 q 78 476 101 488 q 71 496 75 486 q 67 525 67 506 q 83 590 67 561 q 122 647 99 619 q 172 703 144 675 q 223 762 200 731 q 262 830 246 793 q 278 913 278 867 q 276 943 278 928 q 266 971 274 958 q 246 991 258 983 q 213 999 233 999 q 167 985 186 999 q 149 939 149 971 q 155 910 149 925 q 181 889 161 896 q 152 869 168 875 q 121 863 136 863 q 79 885 92 863 q 67 933 67 908 q 106 1011 67 982 q 226 1040 146 1040 q 309 1028 276 1040 q 360 997 342 1017 q 387 953 379 978 q 394 901 394 928 q 363 794 394 838 q 288 715 331 750 q 205 647 246 679 q 147 578 164 615 z "},"u":{"ha":701,"x_min":65,"x_max":839,"o":"m 610 694 l 610 222 q 624 148 610 169 q 674 126 638 126 q 751 163 726 126 q 781 249 775 199 l 839 249 q 800 113 828 164 q 738 35 772 63 q 667 0 703 8 q 601 -8 631 -8 q 488 26 526 -8 q 436 124 450 61 q 396 53 419 79 q 347 14 372 28 q 297 -4 322 0 q 251 -8 272 -8 q 109 50 153 -8 q 65 207 65 108 l 65 694 l 265 694 l 265 222 q 280 148 265 169 q 322 126 294 126 q 385 161 360 126 q 410 249 410 196 l 410 694 l 610 694 z "},"ú":{"ha":701,"x_min":65,"x_max":839,"o":"m 610 694 l 610 222 q 624 148 610 169 q 674 126 638 126 q 751 163 726 126 q 781 249 775 199 l 839 249 q 800 113 828 164 q 738 35 772 63 q 667 0 703 8 q 601 -8 631 -8 q 488 26 526 -8 q 436 124 450 61 q 396 53 419 79 q 347 14 372 28 q 297 -4 322 0 q 251 -8 272 -8 q 109 50 153 -8 q 65 207 65 108 l 65 694 l 265 694 l 265 222 q 280 148 265 169 q 322 126 294 126 q 385 161 360 126 q 410 249 410 196 l 410 694 l 610 694 m 356 1042 l 501 1042 l 389 779 l 285 779 l 356 1042 z "},"û":{"ha":701,"x_min":65,"x_max":839,"o":"m 610 694 l 610 222 q 624 148 610 169 q 674 126 638 126 q 751 163 726 126 q 781 249 775 199 l 839 249 q 800 113 828 164 q 738 35 772 63 q 667 0 703 8 q 601 -8 631 -8 q 488 26 526 -8 q 436 124 450 61 q 396 53 419 79 q 347 14 372 28 q 297 -4 322 0 q 251 -8 272 -8 q 109 50 153 -8 q 65 207 65 108 l 65 694 l 265 694 l 265 222 q 280 148 265 169 q 322 126 294 126 q 385 161 360 126 q 410 249 410 196 l 410 694 l 610 694 m 494 779 l 388 890 l 193 779 l 132 779 l 371 1042 l 400 1042 l 539 779 l 494 779 z "},"ü":{"ha":701,"x_min":65,"x_max":839,"o":"m 610 694 l 610 222 q 624 148 610 169 q 674 126 638 126 q 751 163 726 126 q 781 249 775 199 l 839 249 q 800 113 828 164 q 738 35 772 63 q 667 0 703 8 q 601 -8 631 -8 q 488 26 526 -8 q 436 124 450 61 q 396 53 419 79 q 347 14 372 28 q 297 -4 322 0 q 251 -8 272 -8 q 109 50 153 -8 q 65 207 65 108 l 65 694 l 265 694 l 265 222 q 280 148 265 169 q 322 126 294 126 q 385 161 360 126 q 410 249 410 196 l 410 694 l 610 694 m 382 881 q 406 940 382 915 q 467 965 431 965 q 526 940 501 965 q 551 881 551 915 q 526 820 551 844 q 467 796 501 796 q 406 820 431 796 q 382 881 382 844 m 132 881 q 156 940 132 915 q 217 965 181 965 q 276 940 251 965 q 301 881 301 915 q 276 820 301 844 q 217 796 251 796 q 156 820 181 796 q 132 881 132 844 z "},"ù":{"ha":701,"x_min":65,"x_max":839,"o":"m 610 694 l 610 222 q 624 148 610 169 q 674 126 638 126 q 751 163 726 126 q 781 249 775 199 l 839 249 q 800 113 828 164 q 738 35 772 63 q 667 0 703 8 q 601 -8 631 -8 q 488 26 526 -8 q 436 124 450 61 q 396 53 419 79 q 347 14 372 28 q 297 -4 322 0 q 251 -8 272 -8 q 109 50 153 -8 q 65 207 65 108 l 65 694 l 265 694 l 265 222 q 280 148 265 169 q 322 126 294 126 q 385 161 360 126 q 410 249 410 196 l 410 694 l 610 694 m 151 1042 l 297 1042 l 393 779 l 289 779 l 151 1042 z "},"ű":{"ha":701,"x_min":65,"x_max":839,"o":"m 610 694 l 610 222 q 624 148 610 169 q 674 126 638 126 q 751 163 726 126 q 781 249 775 199 l 839 249 q 800 113 828 164 q 738 35 772 63 q 667 0 703 8 q 601 -8 631 -8 q 488 26 526 -8 q 436 124 450 61 q 396 53 419 79 q 347 14 372 28 q 297 -4 322 0 q 251 -8 272 -8 q 109 50 153 -8 q 65 207 65 108 l 65 694 l 265 694 l 265 222 q 280 148 265 169 q 322 126 294 126 q 385 161 360 126 q 410 249 410 196 l 410 694 l 610 694 m 435 1042 l 567 1042 l 454 779 l 364 779 l 435 1042 m 254 1042 l 386 1042 l 274 779 l 183 779 l 254 1042 z "},"_":{"ha":613,"x_min":63,"x_max":550,"o":"m 550 0 l 63 0 l 63 110 l 550 110 l 550 0 z "},"­":{"ha":443,"x_min":82,"x_max":361,"o":"m 361 308 l 82 308 l 82 418 l 361 418 l 361 308 z "},"v":{"ha":575,"x_min":65,"x_max":563,"o":"m 429 722 q 531 653 500 722 q 563 461 563 583 q 549 299 563 382 q 501 147 535 215 q 413 35 468 79 q 276 -8 358 -8 q 121 54 176 -8 q 65 222 65 117 l 65 694 l 265 694 l 265 222 q 279 149 265 172 q 325 126 293 126 q 394 158 365 126 q 442 240 424 190 q 470 351 461 290 q 479 471 479 413 q 468 590 479 535 q 450 580 465 583 q 426 576 435 576 q 399 585 411 576 q 378 606 388 593 q 365 635 369 619 q 360 664 360 650 q 377 706 360 689 q 429 722 394 722 z "},"w":{"ha":918,"x_min":65,"x_max":906,"o":"m 772 722 q 874 653 843 722 q 906 461 906 583 q 892 299 906 382 q 844 147 878 215 q 756 35 811 79 q 619 -8 701 -8 q 501 22 550 -8 q 429 108 453 53 q 389 47 411 69 q 343 11 367 24 q 296 -5 319 -1 q 251 -8 272 -8 q 109 50 153 -8 q 65 207 65 108 l 65 694 l 265 694 l 265 222 q 280 148 265 169 q 322 126 294 126 q 382 161 360 126 q 408 249 404 196 l 408 694 l 608 694 l 608 222 q 622 149 608 172 q 668 126 636 126 q 738 158 708 126 q 785 240 767 190 q 813 351 804 290 q 822 471 822 413 q 811 590 822 535 q 793 580 808 583 q 769 576 778 576 q 742 585 754 576 q 722 606 731 593 q 708 635 713 619 q 703 664 703 650 q 720 706 703 689 q 772 722 738 722 z "},"x":{"ha":725,"x_min":64,"x_max":847,"o":"m 579 247 q 628 153 603 179 q 688 126 654 126 q 756 159 729 126 q 789 249 783 192 l 847 249 q 809 115 836 165 q 749 38 782 65 q 683 1 717 10 q 626 -8 650 -8 q 503 49 557 -8 q 400 233 449 106 l 257 0 l 157 0 l 369 317 l 314 472 q 272 565 289 542 q 238 588 256 588 q 197 567 217 588 q 160 504 176 546 q 133 399 143 463 q 122 249 122 335 l 64 249 q 74 407 64 326 q 110 553 85 488 q 181 660 136 618 q 294 701 225 701 q 367 687 336 701 q 419 648 397 672 q 456 594 440 624 q 481 536 471 565 l 517 428 q 581 531 558 486 q 604 611 604 575 q 603 631 604 624 q 592 628 593 629 q 582 628 590 628 q 517 653 538 628 q 496 707 496 678 q 522 763 496 743 q 582 783 549 783 q 654 753 621 783 q 688 657 688 724 q 648 507 688 592 q 547 338 608 422 l 579 247 z "},"y":{"ha":675,"x_min":65,"x_max":800,"o":"m 608 694 l 608 50 q 660 76 638 61 q 699 115 682 92 q 726 170 715 138 q 742 249 736 203 l 800 249 q 774 134 793 179 q 728 60 756 89 q 670 14 701 31 q 608 -12 639 -3 l 608 -111 q 590 -231 608 -185 q 544 -303 572 -278 q 481 -338 515 -329 q 415 -347 447 -347 q 340 -336 375 -347 q 278 -305 304 -325 q 238 -256 253 -285 q 222 -190 222 -226 q 238 -123 222 -153 q 281 -71 254 -93 q 340 -33 307 -49 q 408 -6 374 -17 l 408 71 q 370 29 390 44 q 330 6 350 14 q 290 -6 310 -3 q 251 -8 269 -8 q 109 50 153 -8 q 65 207 65 108 l 65 694 l 265 694 l 265 222 q 280 148 265 169 q 322 126 294 126 q 382 161 360 126 q 408 249 404 196 l 408 694 l 608 694 m 296 -178 q 315 -222 296 -206 q 353 -239 333 -239 q 393 -208 378 -239 q 408 -115 408 -178 l 408 -75 q 328 -119 361 -94 q 296 -178 296 -144 z "},"ý":{"ha":675,"x_min":65,"x_max":800,"o":"m 608 694 l 608 50 q 660 76 638 61 q 699 115 682 92 q 726 170 715 138 q 742 249 736 203 l 800 249 q 774 134 793 179 q 728 60 756 89 q 670 14 701 31 q 608 -12 639 -3 l 608 -111 q 590 -231 608 -185 q 544 -303 572 -278 q 481 -338 515 -329 q 415 -347 447 -347 q 340 -336 375 -347 q 278 -305 304 -325 q 238 -256 253 -285 q 222 -190 222 -226 q 238 -123 222 -153 q 281 -71 254 -93 q 340 -33 307 -49 q 408 -6 374 -17 l 408 71 q 370 29 390 44 q 330 6 350 14 q 290 -6 310 -3 q 251 -8 269 -8 q 109 50 153 -8 q 65 207 65 108 l 65 694 l 265 694 l 265 222 q 280 148 265 169 q 322 126 294 126 q 382 161 360 126 q 408 249 404 196 l 408 694 l 608 694 m 354 1042 l 500 1042 l 388 779 l 283 779 l 354 1042 m 296 -178 q 315 -222 296 -206 q 353 -239 333 -239 q 393 -208 378 -239 q 408 -115 408 -178 l 408 -75 q 328 -119 361 -94 q 296 -178 296 -144 z "},"ÿ":{"ha":675,"x_min":65,"x_max":800,"o":"m 608 694 l 608 50 q 660 76 638 61 q 699 115 682 92 q 726 170 715 138 q 742 249 736 203 l 800 249 q 774 134 793 179 q 728 60 756 89 q 670 14 701 31 q 608 -12 639 -3 l 608 -111 q 590 -231 608 -185 q 544 -303 572 -278 q 481 -338 515 -329 q 415 -347 447 -347 q 340 -336 375 -347 q 278 -305 304 -325 q 238 -256 253 -285 q 222 -190 222 -226 q 238 -123 222 -153 q 281 -71 254 -93 q 340 -33 307 -49 q 408 -6 374 -17 l 408 71 q 370 29 390 44 q 330 6 350 14 q 290 -6 310 -3 q 251 -8 269 -8 q 109 50 153 -8 q 65 207 65 108 l 65 694 l 265 694 l 265 222 q 280 148 265 169 q 322 126 294 126 q 382 161 360 126 q 408 249 404 196 l 408 694 l 608 694 m 131 881 q 155 940 131 915 q 215 965 179 965 q 275 940 250 965 q 300 881 300 915 q 275 820 300 844 q 215 796 250 796 q 155 820 179 796 q 131 881 131 844 m 381 881 q 405 940 381 915 q 465 965 429 965 q 525 940 500 965 q 550 881 550 915 q 525 820 550 844 q 465 796 500 796 q 405 820 429 796 q 381 881 381 844 m 296 -178 q 315 -222 296 -206 q 353 -239 333 -239 q 393 -208 378 -239 q 408 -115 408 -178 l 408 -75 q 328 -119 361 -94 q 296 -178 296 -144 z "},"¥":{"ha":988,"x_min":31,"x_max":925,"o":"m 925 267 l 925 197 l 746 197 l 746 0 l 524 0 l 524 197 l 388 197 l 388 267 l 524 267 l 524 357 l 388 357 l 388 426 l 524 426 l 314 949 q 201 857 240 919 q 163 708 163 794 q 169 637 163 664 q 183 592 175 610 q 199 564 190 574 q 211 546 207 554 q 79 584 128 546 q 31 714 31 622 q 65 840 31 781 q 158 944 100 899 q 290 1015 215 989 q 443 1042 364 1042 q 473 1041 458 1042 q 501 1039 488 1040 l 700 540 l 833 1035 l 925 1035 l 746 426 l 925 426 l 925 357 l 746 357 l 746 267 l 925 267 z "},"z":{"ha":594,"x_min":75,"x_max":617,"o":"m 507 126 q 482 138 490 128 q 474 163 474 149 q 489 198 474 181 q 539 215 504 215 q 597 190 578 215 q 617 129 617 164 q 608 84 617 107 q 582 42 600 61 q 538 12 564 24 q 476 0 511 0 l 93 0 l 365 619 l 263 619 q 212 616 232 619 q 192 600 192 613 q 195 594 192 594 q 203 592 199 594 q 212 581 208 589 q 215 551 215 572 q 197 507 215 521 q 154 493 178 493 q 101 512 126 493 q 75 569 75 531 q 83 612 75 590 q 108 652 92 633 q 150 683 125 671 q 208 694 175 694 l 590 694 l 325 107 q 349 106 333 107 q 381 103 364 104 q 416 100 399 101 q 447 99 433 99 q 490 104 472 99 q 507 126 507 110 z "},"ź":{"ha":594,"x_min":75,"x_max":617,"o":"m 507 126 q 482 138 490 128 q 474 163 474 149 q 489 198 474 181 q 539 215 504 215 q 597 190 578 215 q 617 129 617 164 q 608 84 617 107 q 582 42 600 61 q 538 12 564 24 q 476 0 511 0 l 93 0 l 365 619 l 263 619 q 212 616 232 619 q 192 600 192 613 q 195 594 192 594 q 203 592 199 594 q 212 581 208 589 q 215 551 215 572 q 197 507 215 521 q 154 493 178 493 q 101 512 126 493 q 75 569 75 531 q 83 612 75 590 q 108 652 92 633 q 150 683 125 671 q 208 694 175 694 l 590 694 l 325 107 q 349 106 333 107 q 381 103 364 104 q 416 100 399 101 q 447 99 433 99 q 490 104 472 99 q 507 126 507 110 m 356 1042 l 501 1042 l 389 779 l 285 779 l 356 1042 z "},"ž":{"ha":594,"x_min":75,"x_max":617,"o":"m 507 126 q 482 138 490 128 q 474 163 474 149 q 489 198 474 181 q 539 215 504 215 q 597 190 578 215 q 617 129 617 164 q 608 84 617 107 q 582 42 600 61 q 538 12 564 24 q 476 0 511 0 l 93 0 l 365 619 l 263 619 q 212 616 232 619 q 192 600 192 613 q 195 594 192 594 q 203 592 199 594 q 212 581 208 589 q 215 551 215 572 q 197 507 215 521 q 154 493 178 493 q 101 512 126 493 q 75 569 75 531 q 83 612 75 590 q 108 652 92 633 q 150 683 125 671 q 208 694 175 694 l 590 694 l 325 107 q 349 106 333 107 q 381 103 364 104 q 416 100 399 101 q 447 99 433 99 q 490 104 472 99 q 507 126 507 110 m 243 1042 l 350 931 l 544 1042 l 606 1042 l 367 779 l 338 779 l 199 1042 l 243 1042 z "},"ż":{"ha":594,"x_min":75,"x_max":617,"o":"m 247 881 q 273 943 247 917 q 335 969 299 969 q 397 943 371 969 q 424 881 424 917 q 397 819 424 844 q 335 793 371 793 q 273 819 299 793 q 247 881 247 844 m 507 126 q 482 138 490 128 q 474 163 474 149 q 489 198 474 181 q 539 215 504 215 q 597 190 578 215 q 617 129 617 164 q 608 84 617 107 q 582 42 600 61 q 538 12 564 24 q 476 0 511 0 l 93 0 l 365 619 l 263 619 q 212 616 232 619 q 192 600 192 613 q 195 594 192 594 q 203 592 199 594 q 212 581 208 589 q 215 551 215 572 q 197 507 215 521 q 154 493 178 493 q 101 512 126 493 q 75 569 75 531 q 83 612 75 590 q 108 652 92 633 q 150 683 125 671 q 208 694 175 694 l 590 694 l 325 107 q 349 106 333 107 q 381 103 364 104 q 416 100 399 101 q 447 99 433 99 q 490 104 472 99 q 507 126 507 110 z "}}}
